<?xml version="1.0" standalone="no"?>
<!DOCTYPE svg PUBLIC "-//W3C//DTD SVG 1.1//EN" "http://www.w3.org/Graphics/SVG/1.1/DTD/svg11.dtd" >
<svg>
<metadata>
Created by FontForge 20090914 at Mon Sep  4 08:54:24 2017
 By www-data
Copyright (c) 2011 by Vincenzo Vuono. All rights reserved.
</metadata>
<defs>
<font id="Gravity-Book" horiz-adv-x="1044" >
  <font-face 
    font-family="Gravity"
    font-weight="400"
    font-stretch="normal"
    units-per-em="2048"
    panose-1="2 11 6 3 5 5 2 6 8 4"
    ascent="1638"
    descent="-410"
    x-height="1055"
    cap-height="1458"
    bbox="46.1366 -457.003 1945.66 1892"
    underline-thickness="92"
    underline-position="-174"
    unicode-range="U+0020-U+2122"
  />
<missing-glyph horiz-adv-x="1120" 
d="M88 1457h944v-1457h-944v1457zM873 1358h-626l312 -526zM940 203v1050l-313 -525zM873 99l-314 525l-312 -526zM179 203l314 525l-314 525v-1050z" />
    <glyph glyph-name=".notdef" horiz-adv-x="1120" 
d="M88 1457h944v-1457h-944v1457zM873 1358h-626l312 -526zM940 203v1050l-313 -525zM873 99l-314 525l-312 -526zM179 203l314 525l-314 525v-1050z" />
    <glyph glyph-name="space" unicode=" " horiz-adv-x="548" 
 />
    <glyph glyph-name="exclam" unicode="!" horiz-adv-x="406" 
d="M281 432c0 -10 -2.99902 -18.001 -8.99902 -24.001s-13.667 -9 -23 -9h-99c-10 0 -18.167 3 -24.5 9s-9.5 14 -9.5 24l17 991c0 10.667 3 19.167 9 25.5s14.333 9.5 25 9.5h64c9.33301 0 17.166 -3.16699 23.499 -9.5s9.5 -14.166 9.5 -23.499zM296.001 33.999
c0 -9.33301 -2.99902 -17.333 -8.99902 -24s-14 -10 -24 -10h-131c-9.33301 0 -17 3.33301 -23 10s-9 14.667 -9 24l2 135c0 9.33301 3.16699 17.333 9.5 24s14.166 10 23.499 10h125c9.33301 0 17 -3.33301 23 -10s9.33301 -14.667 10 -24z" />
    <glyph glyph-name="quotedbl" unicode="&#x22;" horiz-adv-x="586" 
d="M221 1056c0 -22.667 -11.333 -34 -34 -34h-64c-10.667 0 -19.167 3 -25.5 9s-9.5 14 -9.5 24v367c0 10 2.83301 18.5 8.5 25.5s14.167 10.5 25.5 10.5h68c10 0 17.667 -3.5 23 -10.5s8 -15.833 8 -26.5v-365zM498 1056c0 -22.667 -11.333 -34 -34 -34h-64
c-10.667 0 -19.167 3 -25.5 9s-9.5 14 -9.5 24v367c0 10 2.83301 18.5 8.5 25.5s14.167 10.5 25.5 10.5h68c10 0 17.667 -3.5 23 -10.5s8 -15.833 8 -26.5v-365z" />
    <glyph glyph-name="numbersign" unicode="#" horiz-adv-x="1253" 
d="M1162 944c-1.33301 -7.33301 -4.50195 -13.001 -9.50195 -17.001s-11.167 -6 -18.5 -6h-204c-11.333 0 -18 -5.66699 -20 -17l-40 -245c-1.33301 -7.33301 0 -13.166 4 -17.499s9.33301 -6.5 16 -6.5h186c8.66699 0 16 -2.66699 22 -8s8.33301 -12.333 7 -21l-13 -78
c-1.33301 -7.33301 -4.5 -13 -9.5 -17s-11.167 -6 -18.5 -6h-200c-12.667 0 -20 -6.33301 -22 -19l-78 -461c-1.33301 -8.66699 -4.83301 -15 -10.5 -19s-12.5 -6 -20.5 -6h-73c-8 0 -14.5 2.16699 -19.5 6.5s-6.83301 11.166 -5.5 20.499l77 455
c2 15.333 -5.33301 23 -22 23h-234c-12 -1.33301 -18.667 -7 -20 -17l-78 -465c-1.33301 -8 -4.83301 -13.833 -10.5 -17.5s-12.167 -5.5 -19.5 -5.5h-72c-8.66699 0 -15.667 2.5 -21 7.5s-7.33301 12.167 -6 21.5l76 452c1.33301 8.66699 -0.166992 14.834 -4.5 18.501
s-10.166 5.5 -17.499 5.5h-175c-9.33301 0 -16.833 3.33301 -22.5 10s-7.5 15 -5.5 25l13 71c2.66699 15.333 12.334 23.333 29.001 24h194c10.667 0 17 6.33301 19 19l43 246c1.33301 6 0 11 -4 15s-9.33301 6 -16 6h-180c-8.66699 0 -16 2.66699 -22 8
s-8.33301 12.333 -7 21l13 76c3.33301 16.667 13 25 29 25h191c4.66699 0 9.5 1.83301 14.5 5.5s7.83301 9.16699 8.5 16.5l64 361c1.33301 8 4.83301 14 10.5 18s12.167 6 19.5 6h67c7.33301 0 13.5 -2.16699 18.5 -6.5s6.83301 -10.5 5.5 -18.5l-59 -359
c-1.33301 -6.66699 -0.166016 -12.167 3.50098 -16.5s9.16699 -6.5 16.5 -6.5h241c8.66699 0 15 5.66699 19 17l64 365c3.33301 16.667 13.333 25 30 25h65c7.33301 0 13.666 -2.33301 18.999 -7s7.33301 -11.667 6 -21l-56 -356c0 -6.66699 1.66699 -12.167 5 -16.5
s8.66602 -6.5 15.999 -6.5h191c8 0 14.333 -2.66699 19 -8s6.33398 -12 5.00098 -20zM783.998 901.999c1.33301 5.33301 -0.333984 9.83301 -5.00098 13.5s-9.66699 5.5 -15 5.5h-238c-12.667 0 -19.667 -6 -21 -18l-42 -247c-1.33301 -6 0.333984 -11 5.00098 -15
s9.66699 -6 15 -6h240c11.333 0 18 6.33301 20 19z" />
    <glyph glyph-name="dollar" unicode="$" horiz-adv-x="1270" 
d="M1186 413c2 -66 -11.1709 -123.998 -39.5039 -173.998s-65.666 -92.167 -111.999 -126.5s-98.166 -61 -155.499 -80s-114 -30.167 -170 -33.5c-12.667 0 -19 -6.66699 -19 -20v-120c0 -8.66699 -2.33301 -15.834 -7 -21.501s-11.667 -8.5 -21 -8.5h-73
c-9.33301 0 -16.166 2.83301 -20.499 8.5s-6.5 12.834 -6.5 21.501v120c0 5.33301 -1.66699 10.333 -5 15s-7.66602 7 -12.999 7c-54 1.33301 -107.667 13.666 -161 36.999s-101.666 54 -144.999 92s-79.5 81.333 -108.5 130s-46.5 99 -52.5 151c0 10 2.5 18.5 7.5 25.5
s13.5 10.5 25.5 10.5h80c7.33301 0 14.166 -2.5 20.499 -7.5s10.833 -11.167 13.5 -18.5c13.333 -46 33.333 -86.833 60 -122.5s57.667 -65.834 93 -90.501s73.833 -43.5 115.5 -56.5s84.5 -19.5 128.5 -19.5c46.667 0 94 4.66699 142 14s91.333 24.833 130 46.5
s70.167 50.667 94.5 87s35.833 81.5 34.5 135.5c-0.666992 33.333 -8 62.333 -22 87s-32.5 45.834 -55.5 63.501s-49 32.5 -78 44.5s-58.667 22.167 -89 30.5s-60 15.333 -89 21s-54.833 11.5 -77.5 17.5c-38 9.33301 -76.333 19.666 -115 30.999s-76 24.333 -112 39
s-69.667 31.667 -101 51s-58.666 42 -81.999 68s-41.666 55.833 -54.999 89.5s-20 71.834 -20 114.501c0 58 10.5 110 31.5 156s50.167 85.5 87.5 118.5s81.5 59.333 132.5 79s106.167 31.5 165.5 35.5c5.33301 0 9.83301 2 13.5 6s5.5 8.66699 5.5 14v117
c0 18.667 9 28 27 28h74c8 0 14.5 -2.5 19.5 -7.5s7.5 -11.833 7.5 -20.5v-122c0 -10.667 5 -17 15 -19c46.667 -10 90.834 -25.667 132.501 -47s79.167 -47.333 112.5 -78s61.666 -65.667 84.999 -105s40.333 -81.333 51 -126c0.666992 -10 -1.83301 -18.167 -7.5 -24.5
s-13.834 -9.5 -24.501 -9.5h-80c-10 0 -17.833 3.16699 -23.5 9.5s-10.5 14.166 -14.5 23.499c-15.333 42 -35.5 78 -60.5 108s-52.5 54.667 -82.5 74s-61.333 33.833 -94 43.5s-65 14.5 -97 14.5c-32.667 0 -68 -4.33301 -106 -13s-73.5 -23.334 -106.5 -44.001
s-60.5 -47.667 -82.5 -81s-33 -74.333 -33 -123c0.666992 -41.333 12.834 -76.166 36.501 -104.499s54.5 -52.5 92.5 -72.5s81.167 -37 129.5 -51s98.166 -27 149.499 -39c72.667 -18.667 139.5 -36.834 200.5 -54.501s113.667 -40.5 158 -68.5s79.166 -63.667 104.499 -107
s39 -99.666 41 -168.999z" />
    <glyph glyph-name="percent" unicode="%" horiz-adv-x="1618" 
d="M407 1472c38.667 0 75 -7.33301 109 -22s63.833 -34.834 89.5 -60.501s45.834 -55.667 60.501 -90s22 -71.5 22 -111.5c0 -39.333 -7.33301 -76 -22 -110s-34.834 -63.833 -60.501 -89.5s-55.5 -45.834 -89.5 -60.501s-70.333 -22 -109 -22
c-39.333 0 -76.166 7.33301 -110.499 22s-64.333 34.834 -90 60.501s-46 55.5 -61 89.5s-22.5 70.667 -22.5 110c0 40 7.5 77.167 22.5 111.5s35.333 64.333 61 90s55.667 45.834 90 60.501s71.166 22 110.499 22zM407 1022c24 0 46.333 4.16699 67 12.5
s38.334 19.833 53.001 34.5s26.167 32.167 34.5 52.5s12.5 42.5 12.5 66.5c0 24.667 -4.16699 47.334 -12.5 68.001s-19.833 38.5 -34.5 53.5s-32.334 26.5 -53.001 34.5s-43 12 -67 12c-24.667 0 -47.167 -4 -67.5 -12s-38 -19.5 -53 -34.5s-26.667 -32.833 -35 -53.5
s-12.5 -43.334 -12.5 -68.001c0 -24 4.16699 -46.167 12.5 -66.5s20 -37.833 35 -52.5s32.667 -26.167 53 -34.5s42.833 -12.5 67.5 -12.5zM1207 550c38.667 0 75.167 -7.5 109.5 -22.5s64.166 -35.5 89.499 -61.5s45.333 -56.333 60 -91s22 -72 22 -112
c0 -39.333 -7.33301 -75.833 -22 -109.5s-34.667 -63 -60 -88s-55.166 -44.667 -89.499 -59s-70.833 -21.5 -109.5 -21.5c-39.333 0 -76.166 7.16699 -110.499 21.5s-64.333 34 -90 59s-46 54.333 -61 88s-22.5 70.167 -22.5 109.5c0 40 7.5 77.333 22.5 112
s35.333 65 61 91s55.667 46.5 90 61.5s71.166 22.5 110.499 22.5zM1207 101c24 0 46.333 3.83301 67 11.5s38.5 18.5 53.5 32.5s26.667 31 35 51s12.5 42.333 12.5 67c0 25.333 -4.16699 48.5 -12.5 69.5s-20 39 -35 54s-32.833 26.667 -53.5 35s-43 12.5 -67 12.5
c-24.667 0 -47.334 -4.16699 -68.001 -12.5s-38.5 -20 -53.5 -35s-26.667 -33 -35 -54s-12.5 -44.167 -12.5 -69.5c0 -24.667 4.16699 -47 12.5 -67s20 -37 35 -51s32.833 -24.833 53.5 -32.5s43.334 -11.5 68.001 -11.5zM1119 1458c10.667 0 19.1689 -4.83301 25.502 -14.5
s7.16602 -19.167 2.49902 -28.5l-530 -1394c-5.33301 -14 -15.666 -21 -30.999 -21h-118c-12.667 0 -21.334 5.16699 -26.001 15.5s-5.33398 20.5 -2.00098 30.5l574 1393c4.66699 12.667 14 19 28 19h77z" />
    <glyph glyph-name="ampersand" unicode="&#x26;" horiz-adv-x="1279" 
d="M1180 51c5.33301 -5.33301 7.8418 -11.001 7.50879 -17.001s-2.16602 -11.5 -5.49902 -16.5s-7.83301 -9.16699 -13.5 -12.5s-11.167 -5 -16.5 -5h-132c-12.667 0 -22.334 5 -29.001 15l-46 58c-3.33301 4.66699 -7.66602 7.5 -12.999 8.5s-10 -0.166992 -14 -3.5
c-26 -19.333 -54.833 -35.333 -86.5 -48s-63.167 -22.834 -94.5 -30.501s-61 -13 -89 -16s-51.333 -4.5 -70 -4.5c-66 0 -128.5 8.33301 -187.5 25s-110.833 41.834 -155.5 75.501s-80.167 75.667 -106.5 126s-40.166 109.5 -41.499 177.5
c-1.33301 44.667 5.33398 87.167 20.001 127.5s34.667 77.5 60 111.5s54.666 64.167 87.999 90.5s68 48.5 104 66.5c7.33301 3.33301 11.666 8 12.999 14s-0.333984 12 -5.00098 18c-8.66699 12.667 -18.834 29 -30.501 49s-22.834 43.167 -33.501 69.5
s-19.834 55.166 -27.501 86.499s-11.834 64.333 -12.501 99c0 50 8.66699 97 26 141s41.333 82.5 72 115.5s66.667 59.167 108 78.5s86 29 134 29s93 -9.16699 135 -27.5s78.833 -43 110.5 -74s56.5 -66.833 74.5 -107.5s26.667 -83.334 26 -128.001
c-0.666992 -51.333 -9.5 -97.333 -26.5 -138s-39.833 -76.667 -68.5 -108s-62.5 -58.5 -101.5 -81.5s-80.833 -42.5 -125.5 -58.5c-8.66699 -2 -13.834 -6.66699 -15.501 -14s0.166016 -13.666 5.49902 -18.999l314 -375c5.33301 -6.66699 11.166 -10 17.499 -10
s11.5 2.66699 15.5 8c2.66699 4.66699 6.83398 13 12.501 25s11.167 29 16.5 51c1.33301 7.33301 4.66602 13.5 9.99902 18.5s13 7.5 23 7.5h85c9.33301 0 17.166 -3.16699 23.499 -9.5s9.5 -15.166 9.5 -26.499c-3.33301 -30.667 -11.833 -63.667 -25.5 -99
s-31.167 -67.666 -52.5 -96.999c-2.66699 -5.33301 -4.33398 -10.5 -5.00098 -15.5s1.33301 -9.16699 6 -12.5zM395.009 1128c1.33301 -56.667 13.335 -108.167 36.002 -154.5s51.667 -90.5 87 -132.5c3.33301 -4.66699 7.16602 -7.16699 11.499 -7.5
s8.83301 0.166992 13.5 1.5c33.333 12 66.5 27 99.5 45s62.5 39 88.5 63s47.167 51.5 63.5 82.5s25.166 65.5 26.499 103.5c0.666992 26 -4.5 51.667 -15.5 77s-26 47.833 -45 67.5s-41.5 35.667 -67.5 48s-53.667 18.5 -83 18.5s-57 -5.66699 -83 -17
s-48.833 -26.666 -68.5 -45.999s-35.167 -41.833 -46.5 -67.5s-17 -52.834 -17 -81.501zM810.011 202.999c6 4 10 9.16504 12 15.498s0.333008 12.166 -5 17.499l-351 446c-8 11.333 -17.667 13.666 -29 6.99902c-38 -17.333 -71.333 -40 -100 -68s-51.167 -59 -67.5 -93
s-25.5 -70 -27.5 -108s5 -76 21 -114c14.667 -36.667 35 -67 61 -91s55.333 -42.667 88 -56s67.167 -21.666 103.5 -24.999s72.333 -2.66602 108 2.00098s69.667 12.834 102 24.501s60.5 25.834 84.5 42.501z" />
    <glyph glyph-name="quotesingle" unicode="'" horiz-adv-x="308" 
d="M221 1056c0 -22.667 -11.333 -34 -34 -34h-64c-10.667 0 -19.167 3 -25.5 9s-9.5 14 -9.5 24v367c0 10 2.83301 18.5 8.5 25.5s14.167 10.5 25.5 10.5h68c10 0 17.667 -3.5 23 -10.5s8 -15.833 8 -26.5v-365z" />
    <glyph glyph-name="parenleft" unicode="(" horiz-adv-x="588" 
d="M485 -368c6.66699 -12 8.49707 -22.834 5.49707 -32.501s-8.5 -17 -16.5 -22s-17.167 -7.16699 -27.5 -6.5s-19.5 5 -27.5 13c-52.667 62.667 -100.167 129.834 -142.5 201.501s-78.5 147 -108.5 226s-53.167 161 -69.5 246s-24.5 172.5 -24.5 262.5
c0 92 8.5 181.333 25.5 268s41.333 170 73 250s69.667 156 114 228s93.5 139 147.5 201c6.66699 8 13.834 12.167 21.501 12.5s14.334 -1.66699 20.001 -6s9.83398 -10 12.501 -17s2 -14.167 -2 -21.5c-76 -134 -135.333 -275.667 -178 -425s-64 -308 -64 -476
c0 -166.667 21.333 -325 64 -475s101.667 -292.333 177 -427z" />
    <glyph glyph-name="parenright" unicode=")" horiz-adv-x="538" 
d="M53.0293 -368c-6.66602 -12 -8.49512 -22.834 -5.49512 -32.501c2.99902 -9.66699 8.49902 -17 16.499 -22c7.99902 -5 17.165 -7.16699 27.498 -6.5s19.499 5 27.498 13c52.6631 62.667 100.16 129.834 142.491 201.501s78.4951 147 108.493 226
c29.999 79 53.1641 161 69.4961 246c16.333 85 24.499 172.5 24.499 262.5c0 92 -8.5 181.333 -25.499 268s-41.3311 170 -72.9961 250s-69.6631 156 -113.994 228s-93.4951 139 -147.492 201c-6.66602 8 -13.832 12.167 -21.499 12.5
c-7.66602 0.333008 -14.332 -1.66699 -19.998 -6c-5.66699 -4.33301 -9.83398 -10 -12.501 -17c-2.66602 -7 -1.99902 -14.167 2 -21.5c75.9951 -134 135.325 -275.667 177.989 -425s63.9961 -308 63.9961 -476c0 -166.667 -21.332 -325 -63.9961 -475
s-101.66 -292.333 -176.989 -427z" />
    <glyph glyph-name="asterisk" unicode="*" horiz-adv-x="714" 
d="M624 1215l-160 -61.9971c-6 -2 -9.66699 -6.16699 -11 -12.5s0 -11.833 4 -16.5l106 -134c4.66699 -4.66699 6.33398 -9.66699 5.00098 -15s-3.66602 -9.33301 -6.99902 -12l-58 -47c-4 -3.33301 -8.66699 -4.33301 -14 -3s-9.33301 3.66602 -12 6.99902l-104 145
c-4.66699 6 -10 9 -16 9s-11 -2.66699 -15 -8l-107 -145c-3.33301 -4 -7.83301 -6.33301 -13.5 -7s-10.5 0.666016 -14.5 3.99902l-55 43c-5.33301 4 -8.16602 8.5 -8.49902 13.5s1.16699 9.83301 4.5 14.5l107 134c5.33301 5.33301 6.83301 11 4.5 17
s-6.16602 10.333 -11.499 13l-158 61c-6 1.33301 -9.83301 3.66602 -11.5 6.99902s-1.83398 7.66602 -0.500977 12.999l28 74c4 10.667 12.667 13.667 26 9l154 -72c5.33301 -2 9.66602 -1.66699 12.999 1s5 6.66699 5 12l-6 179c0 12.667 6.33301 19.667 19 21h75
c6.66699 0 11.5 -2.16699 14.5 -6.5s4.5 -9.16602 4.5 -14.499l-7 -179c0 -5.33301 1.83301 -9.5 5.5 -12.5s7.83398 -3.16699 12.501 -0.5l163 74c5.33301 2 10.166 1.66699 14.499 -1s7.16602 -5.66699 8.49902 -9l27 -70c1.33301 -5.33301 1.16602 -10.333 -0.500977 -15
s-5.16699 -7.66699 -10.5 -9z" />
    <glyph glyph-name="plus" unicode="+" horiz-adv-x="1115" 
d="M1047 479c-1.33301 -17.333 -10.333 -26.667 -27 -28h-376c-5.33301 0 -10 -2 -14 -6s-6 -8.66699 -6 -14v-375c0 -7.33301 -2.83301 -13.833 -8.5 -19.5s-12.167 -8.5 -19.5 -8.5h-77c-7.33301 0 -13.5 2.66699 -18.5 8s-7.83301 11.333 -8.5 18v375
c0 6 -1.83301 11.167 -5.5 15.5s-8.83398 6.5 -15.501 6.5h-374c-7.33301 0 -14 2.66699 -20 8s-9 12 -9 20v75c0 8 2.83301 14.833 8.5 20.5s12.5 8.5 20.5 8.5h374c6 0 11 2 15 6s6 8.66699 6 14v375c0 8 2.33301 14.667 7 20s11.334 8 20.001 8h76
c8.66699 0 15.667 -2.66699 21 -8s8 -12 8 -20v-376c0 -5.33301 2 -9.83301 6 -13.5s8.66699 -5.5 14 -5.5h374c8 0 14.833 -2.5 20.5 -7.5s8.5 -11.5 8.5 -19.5v-77z" />
    <glyph glyph-name="comma" unicode="," horiz-adv-x="360" 
d="M161 -222c-7.33301 -6 -14.665 -8.66992 -21.998 -8.00293s-13.166 3.33398 -17.499 8.00098s-6.83301 10.5 -7.5 17.5s2 13.833 8 20.5c13.333 14.667 22.666 31 27.999 49s7 35.833 5 53.5s-7.83301 33.834 -17.5 48.501s-22.834 26.667 -39.501 36
c-12 8.66699 -18 19.334 -18 32.001l2 136c0 9.33301 3.16699 17.333 9.5 24s14.166 10 23.499 10h129c9.33301 0 17 -3.33301 23 -10s9.33301 -14.667 10 -24l3 -135c-2 -54.667 -13.333 -103.667 -34 -147s-49 -80.333 -85 -111z" />
    <glyph glyph-name="hyphen" unicode="-" horiz-adv-x="773" 
d="M685 533c-1.33301 -17.333 -10.334 -26.668 -27.001 -28.001h-541c-8 0 -14.833 2.66699 -20.5 8s-8.5 12 -8.5 20v73c0 8 2.83301 14.833 8.5 20.5s12.5 8.5 20.5 8.5h539c7.33301 0 13.833 -2.66699 19.5 -8s8.83398 -11.666 9.50098 -18.999v-75z" />
    <glyph glyph-name="period" unicode="." horiz-adv-x="370" 
d="M283 34c0 -9.33301 -2.99902 -17.333 -8.99902 -24s-14 -10 -24 -10h-131c-9.33301 -0 -17 3.33301 -23 10s-9 14.667 -9 24l2 135c0 9.33301 3.16699 17.333 9.5 24s14.166 10 23.499 10h125c9.33301 0 17 -3.33301 23 -10s9.33301 -14.667 10 -24z" />
    <glyph glyph-name="slash" unicode="/" horiz-adv-x="859" 
d="M753 1458c10.667 0 19.1689 -4.83301 25.502 -14.5s7.16602 -19.167 2.49902 -28.5l-530 -1394c-5.33301 -14 -15.666 -21 -30.999 -21h-118c-12.667 0 -21.334 5.16699 -26.001 15.5s-5.33398 20.5 -2.00098 30.5l574 1393c4.66699 12.667 14 19 28 19h77z" />
    <glyph glyph-name="zero" unicode="0" horiz-adv-x="1199" 
d="M593 1458c64 0 121.5 -10.001 172.5 -30.001s95.833 -47.5 134.5 -82.5s71.667 -76.833 99 -125.5s49.666 -101.667 66.999 -159s30 -118 38 -182s12 -129 12 -195c0 -56.667 -4.33301 -113.334 -13 -170.001s-22.167 -111 -40.5 -163s-41.333 -100.667 -69 -146
s-60.667 -84.666 -99 -117.999s-82 -59.666 -131 -78.999s-103.5 -29 -163.5 -29c-60.667 0 -115.5 9.5 -164.5 28.5s-92.667 45.333 -131 79s-71.333 73.167 -99 118.5s-50.667 94 -69 146s-31.833 106.5 -40.5 163.5s-13 113.5 -13 169.5c0 66 3.83301 131 11.5 195
s19.834 124.667 36.501 182s38.167 110.333 64.5 159s58.5 90.5 96.5 125.5s81.833 62.5 131.5 82.5s106.167 30 169.5 30zM600 131.999c50 0 93.8311 8.99902 131.498 26.999s70 42.167 97 72.5s49.167 65.333 66.5 105s31 81.5 41 125.5s17 88.667 21 134s6 88.333 6 129
c0 50.667 -2.83301 101 -8.5 151s-14.667 97.5 -27 142.5s-28.166 86.667 -47.499 125s-42.333 71.5 -69 99.5s-57.334 49.833 -92.001 65.5s-73.667 23.5 -117 23.5s-82.166 -7.83301 -116.499 -23.5s-65 -37.5 -92 -65.5s-50.167 -61.167 -69.5 -99.5
s-35.333 -80 -48 -125s-22 -92.5 -28 -142.5s-9 -100.333 -9 -151c0 -41.333 2.66699 -84.666 8 -129.999s13.666 -89.833 24.999 -133.5s26.333 -85.5 45 -125.5s41.334 -75 68.001 -105s57.834 -54 93.501 -72s76.167 -27 121.5 -27z" />
    <glyph glyph-name="one" unicode="1" horiz-adv-x="644" 
d="M557 34c0 -8.66699 -2.83301 -16.166 -8.5 -22.499s-13.167 -10.166 -22.5 -11.499h-114c-10 0 -18.333 3.16699 -25 9.5s-10.334 14.166 -11.001 23.499l17 991c0 8.66699 -3 16 -9 22s-13.333 9 -22 9h-271c-9.33301 0 -17.166 3 -23.499 9s-9.5 13.667 -9.5 23l2 66
c0 9.33301 3 17 9 23s14 9 24 9h66c34 0 65.667 5.5 95 16.5s54.666 26.667 75.999 47s38.333 45.333 51 75s19.334 63.5 20.001 101.5c0 9.33301 3 17.166 9 23.499s13.667 9.5 23 9.5h67c9.33301 0 17 -3.16699 23 -9.5s9 -13.833 9 -22.5z" />
    <glyph glyph-name="two" unicode="2" horiz-adv-x="1216" 
d="M1073 34c0 -9.33301 -2.99512 -17.333 -8.99512 -24s-13.667 -10 -23 -10h-907c-8 0 -14.667 2 -20 6s-9 9 -11 15s-2.5 12.333 -1.5 19s3.83301 12.667 8.5 18l660 799c30.667 38 52.5 76.667 65.5 116s18.667 77.333 17 114s-10 70.667 -25 102
s-34.833 58.333 -59.5 81s-53.5 40 -86.5 52s-68.5 16.667 -106.5 14c-155.333 -11.333 -259.333 -91.333 -312 -240c-3.33301 -8.66699 -7.5 -15.667 -12.5 -21s-13.167 -8 -24.5 -8l-85 -1c-11.333 0.666992 -20.666 4.5 -27.999 11.5s-9.33301 15.833 -6 26.5
c16.667 56.667 41.167 107 73.5 151s69.666 81 111.999 111s88.666 52.833 138.999 68.5s102.166 23.5 155.499 23.5c56 0 108.167 -9.5 156.5 -28.5s90.666 -44.833 126.999 -77.5s65.666 -71 87.999 -115s35.5 -91 39.5 -141s-2.33301 -101.5 -19 -154.5
s-45.667 -105.167 -87 -156.5l-476 -593c-4.66699 -5.33301 -6.16699 -11.833 -4.5 -19.5s7.16699 -11.5 16.5 -11.5h604c11.333 0 20.666 -2.66699 27.999 -8s11 -14 11 -26z" />
    <glyph glyph-name="three" unicode="3" horiz-adv-x="1154" 
d="M798 756c36 -12.667 70.335 -30.0029 103.002 -52.0029s61.5 -48.333 86.5 -79s45 -65.167 60 -103.5s22.833 -80.166 23.5 -125.499c0 -68 -13.167 -127.833 -39.5 -179.5s-62.333 -94.834 -108 -129.501s-98.667 -61 -159 -79s-124.5 -27.667 -192.5 -29
c-58 -1.33301 -113.833 5.5 -167.5 20.5s-102.167 37.667 -145.5 68s-80.666 68.333 -111.999 114s-53.333 99.167 -66 160.5c-0.666992 10.667 2.5 18.834 9.5 24.501s15.167 8.5 24.5 8.5h100c14.667 0 24.667 -6 30 -18c7.33301 -21.333 18 -44.833 32 -70.5
s34 -49.667 60 -72s59.167 -41.5 99.5 -57.5s90.166 -24.333 149.499 -25c49.333 1.33301 93.666 10 132.999 26s72.666 37.333 99.999 64s48.333 57.167 63 91.5s22 70.833 22 109.5c0 50 -11.833 92.667 -35.5 128s-53.5 64.333 -89.5 87s-75.667 39.167 -119 49.5
s-84.666 15.5 -123.999 15.5h-86c-9.33301 0 -17.166 2.83301 -23.499 8.5s-9.5 13.834 -9.5 24.501l1 80c0.666992 9.33301 4.16699 16.833 10.5 22.5s13.5 8.83398 21.5 9.50098h95c39.333 0 78.833 5.33301 118.5 16s75.334 26.667 107.001 48s57.5 48.5 77.5 81.5
s30 71.5 30 115.5c0 35.333 -7.33301 66.833 -22 94.5s-35 51 -61 70s-56.833 33.5 -92.5 43.5s-74.5 15 -116.5 15c-32 0 -64.5 -5 -97.5 -15s-63.667 -24.833 -92 -44.5s-52.833 -44.167 -73.5 -73.5s-34.334 -63.333 -41.001 -102c-4 -20 -15.667 -30 -35 -30h-88
c-9.33301 0 -17.333 3.16699 -24 9.5s-9.33398 15.166 -8.00098 26.499c13.333 58 34.5 109.167 63.5 153.5s63.833 81.5 104.5 111.5s86 52.5 136 67.5s103 22.5 159 22.5c62.667 -0.666992 120.167 -10 172.5 -28s97.333 -43 135 -75s67 -70.167 88 -114.5
s31.5 -93.166 31.5 -146.499c0 -30 -4.83301 -60.167 -14.5 -90.5s-24 -59 -43 -86s-42.167 -51.667 -69.5 -74s-58.666 -40.5 -93.999 -54.5c-8.66699 -3.33301 -12.334 -9 -11.001 -17s5.66602 -13.333 12.999 -16z" />
    <glyph glyph-name="four" unicode="4" horiz-adv-x="1147" 
d="M1070 424c-0.666992 -9.33301 -3.99805 -17.168 -9.99805 -23.501s-13.667 -9.5 -23 -9.5h-147c-15.333 0 -23 -7.33301 -23 -22l5 -333c0 -10 -3.5 -18.5 -10.5 -25.5s-15.5 -10.5 -25.5 -10.5h-108c-10.667 0 -19.334 3.5 -26.001 10.5s-10 15.5 -10 25.5l6 336
c0 5.33301 -2.16699 9.83301 -6.5 13.5s-9.16602 5.5 -14.499 5.5h-576c-9.33301 0 -17.333 2.83301 -24 8.5s-10 14.167 -10 25.5l2 80c0 7.33301 2.33301 14.333 7 21l643 916c8 10.667 18 16 30 16h67c9.33301 0 17.166 -3.16699 23.499 -9.5s9.5 -14.166 9.5 -23.499
l15 -870c0 -6 1.66699 -11 5 -15s8.33301 -6 15 -6h153c7.33301 0 14.166 -3 20.499 -9s9.83301 -13.333 10.5 -22zM716.002 1207c0 5.33301 -1.33203 9.83301 -3.99902 13.5s-6 6 -10 7s-8 0.833008 -12 -0.5s-7.33301 -4 -10 -8l-408 -657
c-2.66699 -7.33301 -2.83398 -13.833 -0.500977 -19.5s7.5 -8.5 15.5 -8.5h395c5.33301 0 9.83301 2 13.5 6s5.5 8.66699 5.5 14z" />
    <glyph glyph-name="five" unicode="5" horiz-adv-x="1165" 
d="M612 919c64.667 0 125.663 -11.498 182.996 -34.498s107.5 -55.167 150.5 -96.5s77 -91.333 102 -150s37.5 -123.334 37.5 -194.001c0 -60 -11.667 -118 -35 -174s-56.333 -105.5 -99 -148.5s-94.167 -77.5 -154.5 -103.5s-127.5 -39 -201.5 -39
c-65.333 0 -125.833 8.16699 -181.5 24.5s-105.167 39.833 -148.5 70.5s-80.166 68.334 -110.499 113.001s-52.833 96 -67.5 154c-2.66699 10 -0.166992 18.167 7.5 24.5s16.5 9.5 26.5 9.5h100c7.33301 0 14.166 -2.33301 20.499 -7s10.5 -11 12.5 -19
c14 -40.667 31.667 -74.834 53 -102.501s46.333 -50 75 -67s60.834 -29.167 96.501 -36.5s74.5 -11 116.5 -11c50 0 95 8.66699 135 26s74 40.666 102 69.999s49.667 63 65 101s23 78 23 120c0 52.667 -8.83301 99.667 -26.5 141s-41.167 76.333 -70.5 105
s-63.666 50.334 -102.999 65.001s-80.333 22 -123 22c-40 0 -74.667 -3.33301 -104 -10s-55.333 -15.5 -78 -26.5s-42.834 -23.667 -60.501 -38s-34.5 -29.5 -50.5 -45.5c-4 -4.66699 -8.33301 -8.5 -13 -11.5s-10 -4.83301 -16 -5.5h-89
c-9.33301 0 -17.333 2.83301 -24 8.5s-9.66699 14.167 -9 25.5l76 748c3.33301 20.667 15 31 35 31h712c9.33301 0 17.5 -2.83301 24.5 -8.5s10.5 -13.834 10.5 -24.501v-78c-2 -20 -13 -31 -33 -33h-607c-12 0 -18.667 -6.33301 -20 -19l-34 -429
c0.666992 -8.66699 3.83398 -14.667 9.50098 -18s11.834 -3.33301 18.501 0c42.667 23.333 85.334 41 128.001 53s89 18 139 18z" />
    <glyph glyph-name="six" unicode="6" horiz-adv-x="1228" 
d="M673 917c72 -1.33301 137.172 -14.6699 195.505 -40.0029s108 -59 149 -101s72.667 -90.333 95 -145s33.5 -112.334 33.5 -173.001c0 -66 -12.167 -128 -36.5 -186s-57.833 -108.5 -100.5 -151.5s-93.167 -77.167 -151.5 -102.5s-121.833 -38.333 -190.5 -39
c-75.333 0 -142 9 -200 27s-108.5 43 -151.5 75s-79.333 69.833 -109 113.5s-53.667 91.5 -72 143.5s-31.5 107 -39.5 165s-12 117 -12 177c0 51.333 4.16699 106.333 12.5 165s21.333 116.834 39 174.501s40.834 113 69.501 166s63.167 99.667 103.5 140
s87.166 72.5 140.499 96.5s113.666 36 180.999 36c62 0 118 -9.16699 168 -27.5s93.5 -43.666 130.5 -75.999s67.167 -70.333 90.5 -114s39.666 -90.5 48.999 -140.5c1.33301 -8 1.33301 -14.167 0 -18.5s-3.5 -7.66602 -6.5 -9.99902s-6.83301 -3.66602 -11.5 -3.99902
s-9.33398 -0.5 -14.001 -0.5h-90c-9.33301 0 -16.666 1.33301 -21.999 4s-9.33301 11 -12 25c-6.66699 38.667 -18.5 72.667 -35.5 102s-37.833 54 -62.5 74s-52.334 35 -83.001 45s-63.334 15 -98.001 15c-44.667 0 -85.334 -8 -122.001 -24s-69.334 -37.667 -98.001 -65
s-53.5 -59 -74.5 -95s-38.5 -74.167 -52.5 -114.5s-24.333 -81.5 -31 -123.5s-10 -82.333 -10 -121c0 -6 2 -11.667 6 -17s8.66699 -6.33301 14 -3c16 10.667 35.667 24.5 59 41.5s51.5 33.333 84.5 49s71.333 29.167 115 40.5s93.834 17 150.501 17zM647.005 131.996
c50 0 96.335 8.00098 139.002 24.001s79.667 38.667 111 68s55.833 64.666 73.5 105.999s26.5 87.333 26.5 138c0 44.667 -8.66699 86.167 -26 124.5s-41 71.333 -71 99s-65.5 49.334 -106.5 65.001s-85.167 23.5 -132.5 23.5c-51.333 0 -100.833 -8.33301 -148.5 -25
s-89.834 -38.667 -126.501 -66s-65.167 -58.833 -85.5 -94.5s-28.5 -72.834 -24.5 -111.501c5.33301 -59.333 18.666 -110.833 39.999 -154.5s48.5 -80 81.5 -109s70.833 -50.667 113.5 -65s88 -21.833 136 -22.5z" />
    <glyph glyph-name="seven" unicode="7" horiz-adv-x="1058" 
d="M984 1299c0 -8.66699 -1.33203 -15.335 -3.99902 -20.002c-28.667 -54.667 -58.5 -115.167 -89.5 -181.5l-94.5 -209l-94.5 -224.5l-88.5 -227.5c-28 -75 -53.667 -147.667 -77 -218s-43.333 -135.5 -60 -195.5c-4.66699 -15.333 -15.334 -23 -32.001 -23h-113
c-16.667 0 -27.167 4.83301 -31.5 14.5s-4.16602 19.834 0.500977 30.501c32.667 96 68 193.167 106 291.5l122 302l139.5 317l159.5 336.5c3.33301 6 3.66602 11.167 0.999023 15.5s-6.66699 6.5 -12 6.5h-713c-7.33301 0 -14.166 2.83301 -20.499 8.5s-9.5 13.5 -9.5 23.5
l2 77c0 9.33301 2.66699 17.5 8 24.5s13.333 10.5 24 10.5h840c9.33301 0 17.166 -3.16699 23.499 -9.5s9.83301 -14.166 10.5 -23.499z" />
    <glyph glyph-name="eight" unicode="8" horiz-adv-x="1178" 
d="M800 762c42.667 -17.333 82.0039 -38.667 118.004 -64s67.167 -53.666 93.5 -84.999s47 -65.333 62 -102s22.5 -75 22.5 -115c0 -62 -13.333 -118.5 -40 -169.5s-63 -94.833 -109 -131.5s-99.5 -65.167 -160.5 -85.5s-125.833 -30.5 -194.5 -30.5
c-63.333 0 -125.5 8.66699 -186.5 26s-115.5 43.333 -163.5 78s-86.667 78.167 -116 130.5s-44 113.833 -44 184.5c0 40 7.66699 78.333 23 115s36.166 70.667 62.499 102s56.833 59.333 91.5 84s71.334 45 110.001 61c12.667 5.33301 20.167 11.166 22.5 17.499
s-2.83398 12.5 -15.501 18.5c-64 31.333 -115.5 72 -154.5 122s-58.5 109 -58.5 177c0 58 12.333 109.667 37 155s57 83.333 97 114s85.667 54 137 70s103.666 24 156.999 24c32.667 0 66.167 -3.33301 100.5 -10s67.666 -16.5 99.999 -29.5s62.833 -29.5 91.5 -49.5
s53.667 -43.5 75 -70.5s38.166 -57.5 50.499 -91.5s18.5 -71.333 18.5 -112c0 -33.333 -6 -64.833 -18 -94.5s-28.333 -57 -49 -82s-45 -47.833 -73 -68.5s-58 -38.667 -90 -54c-10.667 -5.33301 -15.167 -11.5 -13.5 -18.5s7.16699 -12.167 16.5 -15.5zM307.004 1092
c0 -36 7.50098 -68.501 22.501 -97.501s35.5 -53.833 61.5 -74.5s56.167 -36.667 90.5 -48s71.166 -17 110.499 -17c38 0 74.667 5.5 110 16.5s66.5 26.833 93.5 47.5s48.667 45.5 65 74.5s24.5 61.167 24.5 96.5c0 38.667 -7.66699 73 -23 103s-36.166 55.333 -62.499 76
s-57.333 36.334 -93 47.001s-74.167 16 -115.5 16c-37.333 0 -73 -5.66699 -107 -17s-64 -27.5 -90 -48.5s-46.833 -46.333 -62.5 -76s-23.834 -62.5 -24.501 -98.5zM592.005 131.998c42.667 0 84.1641 5.99805 124.497 17.998s76 29.833 107 53.5s56 52.5 75 86.5
s28.5 73 28.5 117c0 40.667 -9.83301 78.5 -29.5 113.5s-45.5 65.5 -77.5 91.5s-68 46.333 -108 61s-80 22 -120 22c-41.333 0 -82.166 -7.33301 -122.499 -22s-76.666 -34.834 -108.999 -60.501s-58.5 -56 -78.5 -91s-30 -73.167 -30 -114.5
c0 -43.333 9.33301 -82.166 28 -116.499s43.834 -63.166 75.501 -86.499s68 -41.166 109 -53.499s83.5 -18.5 127.5 -18.5z" />
    <glyph glyph-name="nine" unicode="9" horiz-adv-x="1189" 
d="M563 1458c72.667 0 136.497 -10.1689 191.497 -30.502s102.667 -48.833 143 -85.5s73.833 -80.5 100.5 -131.5s47.834 -107.167 63.501 -168.5s26.667 -127.166 33 -197.499s9.5 -143.166 9.5 -218.499c0 -87.333 -10.833 -170.166 -32.5 -248.499
s-54.334 -147 -98.001 -206s-98.667 -105.833 -165 -140.5s-144.166 -52 -233.499 -52c-53.333 0 -105.166 8.33301 -155.499 25s-96.666 40.5 -138.999 71.5s-79.5 68.833 -111.5 113.5s-56.333 94.667 -73 150c-3.33301 10 -2.16602 18.5 3.50098 25.5
s14.167 10.5 25.5 10.5h103c9.33301 -1.33301 16.5 -3.83301 21.5 -7.5s9.5 -10.834 13.5 -21.501c15.333 -41.333 35.166 -75.5 59.499 -102.5s50.5 -48.833 78.5 -65.5s56.833 -28.5 86.5 -35.5s57.5 -10.5 83.5 -10.5c46 -0.666992 88.167 6.16602 126.5 20.499
s72.166 34.166 101.499 59.499s54.333 55.166 75 89.499s36.834 71.166 48.501 110.499s18.667 80.333 21 123s0.166016 85 -6.50098 127c-1.33301 7.33301 -3.66602 12.5 -6.99902 15.5s-7.16602 4.33301 -11.499 4s-8.66602 -1.83301 -12.999 -4.5
s-8.16602 -5.66699 -11.499 -9c-21.333 -21.333 -44.5 -41.166 -69.5 -59.499s-52 -34.166 -81 -47.499s-59.5 -24 -91.5 -32s-65.667 -12 -101 -12c-64 0 -124.333 12 -181 36s-106.334 56.833 -149.001 98.5s-76.334 91 -101.001 148s-37 118.5 -37 184.5
c0 66.667 12.5 128.834 37.5 186.501s59.167 107.834 102.5 150.501s94.166 76.167 152.499 100.5s120.833 36.5 187.5 36.5zM917.997 975.998c-5.33301 49.333 -17 95.665 -35 138.998s-42 81 -72 113s-65.833 57.333 -107.5 76s-88.834 28 -141.501 28
c-47.333 0 -91.333 -9.83301 -132 -29.5s-76.167 -45.667 -106.5 -78s-54.166 -69.666 -71.499 -111.999s-26 -85.833 -26 -130.5c0 -42.667 8.33301 -83.167 25 -121.5s39.667 -71.833 69 -100.5s64 -51.334 104 -68.001s83 -25 129 -25c50 0 98 7.83301 144 23.5
s86.167 37.334 120.5 65.001s60.833 60.334 79.5 98.001s25.667 78.5 21 122.5z" />
    <glyph glyph-name="colon" unicode=":" horiz-adv-x="373" 
d="M286 34c0 -9.33301 -3.16699 -17.333 -9.5 -24s-14.166 -10 -23.499 -10h-134c-9.33301 -0 -17 3.33301 -23 10s-9 14.667 -9 24l2 137c0 9.33301 3.16699 17.333 9.5 24s14.166 10 23.499 10h128c9.33301 0 17 -3.33301 23 -10s9.33301 -14.667 10 -24zM286 882
c0 -9.33301 -3.16699 -17.333 -9.5 -24s-14.166 -10 -23.499 -10h-134c-9.33301 0 -17 3.33301 -23 10s-9 14.667 -9 24l2 137c0 9.33301 3.16699 17.333 9.5 24s14.166 10 23.499 10h128c9.33301 0 17 -3.33301 23 -10s9.33301 -14.667 10 -24z" />
    <glyph glyph-name="semicolon" unicode=";" horiz-adv-x="463" 
d="M160 -222c-7.33301 -6 -14.665 -8.66992 -21.998 -8.00293s-13.166 3.33398 -17.499 8.00098s-6.83301 10.5 -7.5 17.5s2 13.833 8 20.5c13.333 14.667 22.666 31 27.999 49s7 35.833 5 53.5s-7.83301 33.834 -17.5 48.501s-22.834 26.667 -39.501 36
c-12 8.66699 -18 19.334 -18 32.001l2 136c0 9.33301 3.16699 17.333 9.5 24s14.166 10 23.499 10h129c9.33301 0 17 -3.33301 23 -10s9.33301 -14.667 10 -24l3 -135c-2 -54.667 -13.333 -103.667 -34 -147s-49 -80.333 -85 -111zM286.001 881.997
c0 -9.33301 -2.99902 -17.333 -8.99902 -24s-14 -10 -24 -10h-131c-9.33301 0 -17 3.33301 -23 10s-9 14.667 -9 24l2 135c0 9.33301 3.16699 17.333 9.5 24s14.166 10 23.499 10h125c9.33301 0 17 -3.33301 23 -10s9.33301 -14.667 10 -24z" />
    <glyph glyph-name="less" unicode="&#x3c;" horiz-adv-x="1122" 
d="M252 582c-6.66699 -2.66699 -9.83398 -8.16602 -9.50098 -16.499s3.5 -13.833 9.5 -16.5l766 -374c12 -7.33301 18 -17.666 18 -30.999v-75c0 -12 -5.5 -21.333 -16.5 -28s-21.833 -6.66699 -32.5 0l-906 464c-10.667 4.66699 -16 13.667 -16 27v71
c0 13.333 6 22.666 18 27.999l904 393c11.333 5.33301 22 4.66602 32 -2.00098s15 -15.667 15 -27v-76c0 -5.33301 -2.16699 -11.5 -6.5 -18.5s-10.166 -11.833 -17.499 -14.5z" />
    <glyph glyph-name="equal" unicode="=" horiz-adv-x="1147" 
d="M1059 683c-0.666992 -7.33301 -3.49902 -13.5 -8.49902 -18.5s-11.167 -7.83301 -18.5 -8.5h-916c-7.33301 0 -13.833 2.66699 -19.5 8s-8.5 11.666 -8.5 18.999v77c0 7.33301 2.83301 13.833 8.5 19.5s12.167 8.5 19.5 8.5h915c7.33301 0 13.666 -2.66699 18.999 -8
s8.33301 -11.666 9 -18.999v-78zM1059 273c-0.666992 -7.33301 -3.49902 -13.667 -8.49902 -19s-11.167 -8 -18.5 -8h-916c-7.33301 0 -13.833 2.66699 -19.5 8s-8.5 11.666 -8.5 18.999v76c0 8 2.83301 14.833 8.5 20.5s12.167 8.5 19.5 8.5h915
c7.33301 0 13.666 -2.66699 18.999 -8s8.33301 -11.666 9 -18.999v-78z" />
    <glyph glyph-name="greater" unicode="&#x3e;" horiz-adv-x="1122" 
d="M112 886c-7.33301 2.66699 -13.166 7.49902 -17.499 14.499s-6.5 13.167 -6.5 18.5v76c0 11.333 5 20.333 15 27s20.667 7.33398 32 2.00098l904 -393c12 -5.33301 18 -14.666 18 -27.999v-71c0 -13.333 -5.33301 -22.333 -16 -27l-906 -464
c-10.667 -6.66699 -21.5 -6.66699 -32.5 0s-16.5 16 -16.5 28v75c0 13.333 6 23.666 18 30.999l766 374c6 2.66699 9.16699 8.16699 9.5 16.5s-2.83398 13.833 -9.50098 16.5z" />
    <glyph glyph-name="question" unicode="?" horiz-adv-x="1108" 
d="M888 1061c0 44 -8.66602 83.001 -25.999 117.001s-40.5 62.333 -69.5 85s-62.833 39.834 -101.5 51.501s-79.334 17.5 -122.001 17.5c-37.333 0 -73.666 -5.16699 -108.999 -15.5s-67.833 -25.333 -97.5 -45s-55.167 -44 -76.5 -73s-37 -62.5 -47 -100.5
c-2.66699 -10 -6.83398 -18.333 -12.501 -25s-13.167 -10 -22.5 -10h-90c-5.33301 0 -10.5 0.5 -15.5 1.5s-9.16699 3 -12.5 6s-5.5 7.16699 -6.5 12.5s-0.5 12.666 1.5 21.999c16 64.667 41 120.5 75 167.5s73.667 85.833 119 116.5s94.5 53.334 147.5 68.001
s106.833 22 161.5 22c62.667 0 121.334 -10.167 176.001 -30.5s102.167 -49 142.5 -86s72.166 -81.333 95.499 -133s35 -108.834 35 -171.501c0 -43.333 -5.66699 -83 -17 -119s-26.833 -69 -46.5 -99s-42.5 -57.5 -68.5 -82.5s-53.833 -48.333 -83.5 -70
s-60.334 -42.334 -92.001 -62.001l-92.5 -57.5c-6.66699 -4 -10 -9.66699 -10 -17l2 -122c0 -10 -3 -18 -9 -24s-13.667 -9.33301 -23 -10h-97c-11.333 0 -20.166 3.16699 -26.499 9.5s-9.5 14.5 -9.5 24.5l2 179c0 13.333 6 23.666 18 30.999l157.5 96.5
c49.667 31.667 93 64.334 130 98.001s66.333 69 88 106s32.5 77.5 32.5 121.5zM641.001 34.001c0 -9.33301 -2.99902 -17.333 -8.99902 -24s-14 -10 -24 -10h-131c-9.33301 0 -17 3.33301 -23 10s-9 14.667 -9 24l2 135c0 9.33301 3.16699 17.333 9.5 24
s14.166 10 23.499 10h125c9.33301 0 17 -3.33301 23 -10s9.33301 -14.667 10 -24z" />
    <glyph glyph-name="at" unicode="@" horiz-adv-x="1537" 
d="M1456 787c0 -44 -4.6748 -89.498 -14.0078 -136.498s-24 -90 -44 -129s-46.167 -71 -78.5 -96s-71.5 -37.5 -117.5 -37.5c-35.333 0 -68.333 10 -99 30s-55.667 47.333 -75 82c-4 6.66699 -9.33301 10.5 -16 11.5s-12 -1.16699 -16 -6.5
c-31.333 -38 -64.666 -67.333 -99.999 -88s-78 -31 -128 -31c-48 0 -91.5 9.5 -130.5 28.5s-72.333 44.333 -100 76s-49 67.667 -64 108s-22.5 82.166 -22.5 125.499c0 42.667 7.33301 84.334 22 125.001s35.334 76.667 62.001 108s58.834 56.666 96.501 75.999
s79.834 29 126.501 29c38 0 74 -8 108 -24s66.667 -39 98 -69c6 -5.33301 12.667 -7.33301 20 -6s11 6.66602 11 15.999v37c0 8.66699 2.5 15.834 7.5 21.501s11.833 8.5 20.5 8.5h37c7.33301 0 13.5 -2.66699 18.5 -8s7.83301 -12 8.5 -20l16 -407
c1.33301 -23.333 7.83301 -43.5 19.5 -60.5s25.667 -29.167 42 -36.5s34.166 -9 53.499 -5s37.333 15.667 54 35c25.333 23.333 43 56.666 53 99.999s15.667 94.333 17 153c-1.33301 78 -15.833 150.833 -43.5 218.5s-66.167 126.834 -115.5 177.501
s-108.166 91 -176.499 121s-143.833 46.333 -226.5 49c-84 -0.666992 -161.667 -17.834 -233 -51.501s-132.833 -79.167 -184.5 -136.5s-92 -124.166 -121 -200.499s-43.5 -157.166 -43.5 -242.499c0 -54 6.5 -106.833 19.5 -158.5s31.5 -100.834 55.5 -147.501
s53.167 -89.834 87.5 -129.501s73 -73.834 116 -102.501s90 -51.167 141 -67.5s104.833 -24.5 161.5 -24.5c58 0 114.5 8.16699 169.5 24.5s106.167 42.5 153.5 78.5c7.33301 6 16.333 7.83301 27 5.5s17.667 -7.5 21 -15.5l28 -60c4.66699 -14 2.66699 -25.5 -6 -34.5
s-18 -16.167 -28 -21.5c-48.667 -28.667 -102.5 -51.667 -161.5 -69s-126.833 -26 -203.5 -26c-68.667 0 -133.5 8.83301 -194.5 26.5s-117.167 42.667 -168.5 75s-97.666 71 -138.999 116s-76.333 95.167 -105 150.5s-50.667 114.666 -66 177.999s-23 129.333 -23 198
s8 134.834 24 198.501s38.667 123.334 68 179.001s64.833 106.167 106.5 151.5s88.334 84.333 140.001 117s107.834 58 168.501 76s124.334 27 191.001 27c64 0 125.333 -8.5 184 -25.5s113 -40.667 163 -71s95.167 -66.833 135.5 -109.5s74.833 -89.5 103.5 -140.5
s50.667 -105.5 66 -163.5s23 -118 23 -180zM972.992 726.002c0 33.333 -5.16504 64.166 -15.498 92.499s-24.833 52.666 -43.5 72.999s-40.667 36.333 -66 48s-53 17.5 -83 17.5c-33.333 0 -62.666 -6.33301 -87.999 -19s-46.5 -29.667 -63.5 -51s-30 -45.666 -39 -72.999
s-13.5 -55.666 -13.5 -84.999c0 -32.667 5 -63 15 -91s24.167 -52.5 42.5 -73.5s40.166 -37.5 65.499 -49.5s53.333 -18 84 -18c33.333 0 62.666 6.83301 87.999 20.5s46.666 31.5 63.999 53.5s30.5 46.667 39.5 74s13.5 54.333 13.5 81z" />
    <glyph glyph-name="A" unicode="A" horiz-adv-x="1435" 
d="M1350 42c4.66699 -11.333 3.50195 -20.998 -3.49805 -28.998s-15.167 -12.333 -24.5 -13h-109c-16.667 0 -27.334 8.33301 -32.001 25l-147 402c-6 16.667 -18 25 -36 25h-559c-16.667 0 -28.334 -7.66699 -35.001 -23l-151 -406
c-5.33301 -14.667 -15.333 -22.334 -30 -23.001h-108c-13.333 0 -22.666 4.33301 -27.999 13s-5.33301 19.667 0 33l564 1394c2 5.33301 5.16699 9.66602 9.5 12.999s10.166 5 17.499 5h80c14.667 0 24.667 -7 30 -21zM956.002 639.002l-210.999 573.002
c-2.66699 7.33301 -6.5 12.666 -11.5 15.999s-10.167 5 -15.5 5s-10.333 -1.83301 -15 -5.5s-8 -8.83398 -10 -15.501l-211 -573c-4 -11.333 -3.33301 -20.166 2 -26.499s13.666 -9.5 24.999 -9.5h420c11.333 0 19.5 3.66699 24.5 11s5.83301 15.666 2.5 24.999z" />
    <glyph glyph-name="B" unicode="B" horiz-adv-x="1351" 
d="M1212 509c9.33301 -48 11.1641 -93.8359 5.49707 -137.503s-17.5 -84.5 -35.5 -122.5s-41.167 -72.167 -69.5 -102.5s-60.166 -56.5 -95.499 -78.5s-73.166 -38.833 -113.499 -50.5s-81.5 -17.5 -123.5 -17.5h-658c-10 0 -18.333 3.33301 -25 10s-9.66699 14.667 -9 24
l26 1390c0 9.33301 3 17.333 9 24s14 10 24 10h606c58.667 0 111.834 -10.667 159.501 -32s88.5 -49.666 122.5 -84.999s60.333 -75.666 79 -120.999s28 -92.333 28 -141c0.666992 -55.333 -11.666 -108.166 -36.999 -158.499s-61 -92.833 -107 -127.5
c60.667 -32.667 108.167 -73.5 142.5 -122.5s58.166 -102.833 71.499 -161.5zM254.998 877.997c0 -8.66699 2.66895 -15.667 8.00195 -21s12 -8 20 -8h479c31.333 0 61.166 6.33301 89.499 19s53.166 29.5 74.499 50.5s38.166 45.5 50.499 73.5s18.5 57.667 18.5 89
c0 34.667 -7 66.167 -21 94.5s-32.333 52.5 -55 72.5s-48.5 35.5 -77.5 46.5s-58.5 16.5 -88.5 16.5h-474c-9.33301 0 -16.666 -2.5 -21.999 -7.5s-8 -12.167 -8 -21.5zM1051 441.997c-2 34 -9.66504 66.665 -22.998 97.998s-31.5 59 -54.5 83s-50.167 43.167 -81.5 57.5
s-66 21.833 -104 22.5l-501 1c-9.33301 0 -16.333 -3 -21 -9s-7 -13 -7 -21l7 -486c0 -8 2.5 -14.5 7.5 -19.5s11.5 -7.83301 19.5 -8.5h485c40 0 76.833 8.16699 110.5 24.5s62.667 37.833 87 64.5s43.166 56.834 56.499 90.501s19.666 67.834 18.999 102.501z" />
    <glyph glyph-name="C" unicode="C" horiz-adv-x="1522" 
d="M1434 467c-22.667 -70.667 -54.6709 -135.829 -96.0039 -195.496s-90.166 -111.167 -146.499 -154.5s-119.5 -77.166 -189.5 -101.499s-145 -36.5 -225 -36.5c-72 0 -139 9.5 -201 28.5s-118.833 45.333 -170.5 79s-97.5 73.667 -137.5 120s-73.667 97.166 -101 152.499
s-48.166 113.833 -62.499 175.5s-21.5 124.834 -21.5 189.501c0 105.333 16.333 203.833 49 295.5s79.334 171.5 140.001 239.5s133.667 121.667 219 161s180.666 59 285.999 59c76 0 147.167 -10.5 213.5 -31.5s126.5 -49.833 180.5 -86.5s100.833 -79.834 140.5 -129.501
s71.167 -103.5 94.5 -161.5c6 -13.333 5.66699 -25 -1 -35s-16.667 -15 -30 -15h-88c-9.33301 0 -16.666 2 -21.999 6s-10.333 10.333 -15 19c-24 44 -51.5 84 -82.5 120s-66 67 -105 93s-82.167 46.167 -129.5 60.5s-99.333 21.5 -156 21.5
c-76.667 0 -147.667 -15.167 -213 -45.5s-121.833 -72 -169.5 -125s-85 -115.833 -112 -188.5s-40.5 -151.334 -40.5 -236.001c0 -86.667 13.833 -167.334 41.5 -242.001s65.5 -139.5 113.5 -194.5s104.5 -98.167 169.5 -129.5s135.167 -47 210.5 -47
c58.667 0 113.334 9.33301 164.001 28s96.834 44.167 138.501 76.5s78.667 70.666 111 114.999s59.166 92.166 80.499 143.499c3.33301 7.33301 7.5 13.666 12.5 18.999s12.5 8 22.5 8h99c8 0 14.333 -1.83301 19 -5.5s8.16699 -8.16699 10.5 -13.5
s3.33301 -11.166 3 -17.499s-1.5 -12.5 -3.5 -18.5z" />
    <glyph glyph-name="D" unicode="D" horiz-adv-x="1369" 
d="M634 1458c106 0 199.501 -19.833 280.501 -59.5s149 -93.167 204 -160.5s96.667 -145.666 125 -234.999s42.5 -184 42.5 -284c0 -61.333 -5.5 -121.666 -16.5 -180.999s-27.667 -115.5 -50 -168.5s-50.333 -102.167 -84 -147.5s-73 -84.333 -118 -117
s-95.833 -58.334 -152.5 -77.001s-119.334 -28 -188.001 -28h-556c-10 0 -18.167 3.33301 -24.5 10s-9.5 14.667 -9.5 24l24 1391c0 9.33301 3 17.166 9 23.499s13.667 9.5 23 9.5h491zM666.001 160c70 0 133.168 15.833 189.501 47.5s104.333 73.5 144 125.5
s70 111.667 91 179s31.5 136.666 31.5 207.999c0 75.333 -10.333 148.5 -31 219.5s-50.834 134 -90.501 189s-88.5 99.167 -146.5 132.5s-124 50 -198 50h-382c-18.667 -1.33301 -28 -11.666 -28 -30.999l19 -1092c0 -9.33301 2.83301 -16.333 8.5 -21s12.5 -7 20.5 -7h372z
" />
    <glyph glyph-name="E" unicode="E" horiz-adv-x="1134" 
d="M1059 34c0 -10 -3.33496 -18.166 -10.002 -24.499s-14.667 -9.5 -24 -9.5h-904c-10 0 -18.167 3.33301 -24.5 10s-9.5 14.667 -9.5 24l24 1390c0 9.33301 2.83301 17.333 8.5 24s13.167 10 22.5 10h861c8.66699 0 15.667 -2.83301 21 -8.5s8 -12.5 8 -20.5l1 -85
c0 -8 -2.16699 -15 -6.5 -21s-11.166 -9 -20.499 -9h-732c-9.33301 -0.666992 -16.333 -3.83398 -21 -9.50098s-7 -12.5 -7 -20.5l7 -406c0 -8.66699 2.66699 -15.667 8 -21s12 -8 20 -8h661c8 0 14.833 -2.66699 20.5 -8s8.5 -12.333 8.5 -21l1 -86
c0 -8.66699 -2.83301 -15.834 -8.5 -21.501s-12.5 -8.5 -20.5 -8.5h-657c-9.33301 0 -16.5 -2.66699 -21.5 -8s-7.5 -12.333 -7.5 -21l8 -488c0 -7.33301 2.66699 -13.666 8 -18.999s12 -8 20 -8h728c10 0 18.333 -2.5 25 -7.5s10.334 -12.167 11.001 -21.5z" />
    <glyph glyph-name="F" unicode="F" horiz-adv-x="1095" 
d="M1033 1343c0 -8 -2.50195 -14.666 -7.50195 -19.999s-11.833 -8.33301 -20.5 -9h-731c-9.33301 -0.666992 -16.333 -3.83398 -21 -9.50098s-7 -12.5 -7 -20.5l7 -406c0 -8.66699 2.66699 -15.667 8 -21s12 -8 20 -8h661c8 0 14.667 -2.66699 20 -8s8.33301 -12 9 -20
l1 -88c0 -8 -2.66699 -14.833 -8 -20.5s-12 -8.5 -20 -8.5h-657c-9.33301 0 -16.666 -2.66699 -21.999 -8s-8 -12.333 -8 -21l11 -641c0 -9.33301 -3.16699 -17.333 -9.5 -24s-14.5 -10 -24.5 -10h-113c-10.667 -0 -19 3.33301 -25 10s-9 14.667 -9 24l24 1390
c0 9.33301 2.83301 17.333 8.5 24s13.167 10 22.5 10h860c8.66699 0 15.834 -2.83301 21.501 -8.5s8.5 -12.5 8.5 -20.5z" />
    <glyph glyph-name="G" unicode="G" horiz-adv-x="1554" 
d="M1474 649c-6 -91.333 -27.502 -177.499 -64.502 -258.499s-86.167 -152 -147.5 -213s-133 -109.333 -215 -145s-171.333 -53.5 -268 -53.5c-102 0 -195.667 19.5 -281 58.5s-158.666 92.833 -219.999 161.5s-109.166 149.667 -143.499 243s-51.5 194.333 -51.5 303
c0 102.667 17.167 198.667 51.5 288s82.166 167 143.499 233s134.666 118 219.999 156s179 57 281 57c72.667 0 142 -10.667 208 -32s126.5 -50.5 181.5 -87.5s103.333 -81 145 -132s74.834 -105.833 99.501 -164.5c3.33301 -7.33301 4.5 -13.833 3.5 -19.5
s-3.16699 -10.5 -6.5 -14.5s-7.66602 -7.16699 -12.999 -9.5s-10.333 -3.5 -15 -3.5h-94c-14 0 -24.333 7.66699 -31 23c-24 46.667 -53 88.667 -87 126s-71.5 69 -112.5 95s-85 45.833 -132 59.5s-95.833 20.5 -146.5 20.5c-76 0 -146.833 -15 -212.5 -45
s-122.5 -71.5 -170.5 -124.5s-85.667 -115.667 -113 -188s-41 -150.833 -41 -235.5c0 -87.333 13.5 -168.5 40.5 -243.5s64.5 -140 112.5 -195s104.667 -98.167 170 -129.5s136.666 -47 213.999 -47c58 0 113 9.83301 165 29.5s99.333 45.834 142 78.501
s79.834 70.334 111.501 113.001s56.5 87 74.5 133c4.66699 11.333 5.66699 22.666 3 33.999s-12 17 -28 17h-335c-10 0 -18.167 3.16699 -24.5 9.5s-9.5 14.166 -9.5 23.499v80c0 9.33301 3.16699 17.166 9.5 23.499s14.5 9.5 24.5 9.5h528
c9.33301 0 17.333 -3.16699 24 -9.5s10 -14.5 10 -24.5z" />
    <glyph glyph-name="H" unicode="H" horiz-adv-x="1338" 
d="M1251 36c0 -9.33301 -2.83203 -17.6699 -8.49902 -25.0029s-14.167 -11 -25.5 -11h-112c-10 0 -18.167 3.33301 -24.5 10s-9.5 14.667 -9.5 24l11 641c0 19.333 -10 29 -30 29h-765c-19.333 0 -29 -9.66699 -29 -29l10 -641c0 -9.33301 -3.16699 -17.333 -9.5 -24
s-14.5 -10 -24.5 -10h-113c-9.33301 0 -17.333 3.33301 -24 10s-10 14.667 -10 24l24 1395c0 8 3 14.667 9 20s13.667 8.33301 23 9h68c9.33301 0 17 -3.16699 23 -9.5s9 -14.166 9 -23.499l11 -549c0 -7.33301 2.5 -13.666 7.5 -18.999s12.167 -8 21.5 -8h774
c7.33301 0 13.833 2.5 19.5 7.5s8.5 11.833 8.5 20.5l10 543c0 11.333 2.66699 20.5 8 27.5s14 10.5 26 10.5h66c9.33301 0 17.166 -3.16699 23.499 -9.5s9.5 -14.166 9.5 -23.499z" />
    <glyph glyph-name="I" unicode="I" horiz-adv-x="470" 
d="M140 34l24.001 1391c0 9.33301 3.16699 17.166 9.5 23.499s14.166 9.5 23.499 9.5h67c9.33301 0 17 -3.16699 23 -9.5s9 -14.166 9 -23.499l24 -1391c0 -9.33301 -3.16699 -17.333 -9.5 -24s-14.5 -10 -24.5 -10h-112c-10 -0 -18.167 3.33301 -24.5 10
s-9.5 14.667 -9.5 24z" />
    <glyph glyph-name="J" unicode="J" horiz-adv-x="993" 
d="M907 406c-2 -62.667 -13.832 -120.166 -35.499 -172.499s-51 -97.333 -88 -135s-80.5 -67 -130.5 -88s-104.667 -31.5 -164 -31.5c-58.667 0 -113.834 10.667 -165.501 32s-96.667 51.333 -135 90s-68.5 85 -90.5 139s-33 113.667 -33 179c0 12 3.83301 21 11.5 27
s17.5 9 29.5 9h87c9.33301 0 17.5 -3.16699 24.5 -9.5s10.5 -15.166 10.5 -26.499c0 -44 6.33301 -83.833 19 -119.5s30.5 -65.834 53.5 -90.501s50.5 -43.667 82.5 -57s67.333 -20 106 -20c36 0 69.167 7.16699 99.5 21.5s56.5 33.666 78.5 57.999s39.167 52.333 51.5 84
s18.833 65.167 19.5 100.5l18 1036c0 7.33301 3 13.5 9 18.5s12.667 7.5 20 7.5h75c8 0 14.667 -2.5 20 -7.5s8 -11.167 8 -18.5z" />
    <glyph glyph-name="K" unicode="K" horiz-adv-x="1371" 
d="M1266 52c5.33301 -5.33301 8 -11.167 8 -17.5s-1.66699 -12 -5 -17s-7.83301 -9.16699 -13.5 -12.5s-11.5 -5 -17.5 -5h-132c-7.33301 0 -13.5 1.66699 -18.5 5s-9.5 7.66602 -13.5 12.999l-541 682c-6.66699 7.33301 -14 11.166 -22 11.499s-15.333 -3.16699 -22 -10.5
l-220 -212c-5.33301 -5.33301 -8 -12.333 -8 -21l7 -434c0 -9.33301 -3.16699 -17.333 -9.5 -24s-14.5 -10 -24.5 -10h-111c-10 0 -18.5 3.16699 -25.5 9.5s-10.5 14.5 -10.5 24.5l24 1389c0 10 2.83301 18.333 8.5 25s13.167 10 22.5 10h69c9.33301 0 17 -3.16699 23 -9.5
s9 -14.166 9 -23.499l12 -647c0 -12.667 5 -21.5 15 -26.5s20 -3.5 30 4.5l784 694c7.33301 5.33301 15 8 23 8h83c6.66699 0 12.667 -2 18 -6s9 -8.83301 11 -14.5s2.5 -11.667 1.5 -18s-4.16699 -12.166 -9.5 -17.499l-576 -559c-6 -6 -9 -12.667 -9 -20
s2.66699 -14.333 8 -21z" />
    <glyph glyph-name="L" unicode="L" horiz-adv-x="1126" 
d="M1066 33c0 -9.33301 -3.16699 -17.165 -9.5 -23.498s-14.5 -9.5 -24.5 -9.5h-911c-9.33301 0 -17.333 3.33301 -24 10s-10 14.667 -10 24l24 1392c0 21.333 11 32 33 32h67c9.33301 0 17 -3 23 -9s9 -13.667 9 -23l22 -1236c0 -8.66699 2.5 -15.834 7.5 -21.501
s11.833 -8.5 20.5 -8.5h741c8 0 15 -2.33301 21 -7s9 -11.334 9 -20.001z" />
    <glyph glyph-name="M" unicode="M" horiz-adv-x="1624" 
d="M1536 35c0 -9.33301 -3.16602 -17.499 -9.49902 -24.499s-14.5 -10.5 -24.5 -10.5h-109c-10 0 -18.667 3 -26 9s-11 14.333 -11 25l19 1152c0 5.33301 -1.5 9.66602 -4.5 12.999s-6.33301 5.33301 -10 6s-7.5 0 -11.5 -2s-7 -5.33301 -9 -10l-437 -1170
c-3.33301 -6.66699 -7.83301 -12.167 -13.5 -16.5s-12.167 -6.5 -19.5 -6.5h-115c-16.667 0 -27.667 7.66699 -33 23l-436 1171c-2.66699 4 -6 6.83301 -10 8.5s-8 2.16699 -12 1.5s-7.33301 -2.66699 -10 -6s-4 -7.33301 -4 -12l19 -1150c0 -9.33301 -3 -17.666 -9 -24.999
s-14 -11 -24 -11h-114c-9.33301 0 -17.333 3.33301 -24 10s-10 14.667 -10 24l24 1389c0 10.667 3 19.167 9 25.5s14.333 9.5 25 9.5h143c8 0 14.833 -2.33301 20.5 -7s9.83398 -10.334 12.501 -17.001l462 -1140c4.66699 -12 13.167 -18.167 25.5 -18.5
s21.166 5.5 26.499 17.5l469 1144c2.66699 6 6.66699 11 12 15s11.666 6 18.999 6h143c10 0 18.167 -3.33301 24.5 -10s9.5 -14.667 9.5 -24z" />
    <glyph glyph-name="N" unicode="N" horiz-adv-x="1337" 
d="M1250 34c0 -10 -3.33398 -18.168 -10.001 -24.501s-14.667 -9.5 -24 -9.5h-147c-8.66699 0 -15.167 1.83301 -19.5 5.5s-8.5 8.83398 -12.5 15.501l-754 1173c-4.66699 7.33301 -11.5 10.5 -20.5 9.5s-13.5 -6.83301 -13.5 -17.5l19 -1150
c0 -9.33301 -3 -17.666 -9 -24.999s-14 -11 -24 -11h-114c-9.33301 0 -17.333 3.33301 -24 10s-10 14.667 -10 24l24 1389c0 10 2.66699 18.333 8 25s13.333 10 24 10h112c10.667 0 19.334 -4.33301 26.001 -13l760 -1157c4.66699 -8.66699 11.5 -11.834 20.5 -9.50098
s13.5 8.5 13.5 18.5l18 1128c0 9.33301 3.16699 17.166 9.5 23.499s14.166 9.5 23.499 9.5h69c9.33301 0 16.833 -3.16699 22.5 -9.5s8.83398 -14.166 9.50098 -23.499z" />
    <glyph glyph-name="O" unicode="O" horiz-adv-x="1564" 
d="M785 1479c100.667 0 193.664 -18.833 278.997 -56.5s158.833 -89.334 220.5 -155.001s109.834 -143.167 144.501 -232.5s52 -185.333 52 -288c0 -72 -7.5 -140.833 -22.5 -206.5s-36.833 -127 -65.5 -184s-63.5 -108.667 -104.5 -155s-87.5 -86 -139.5 -119
s-109 -58.5 -171 -76.5s-128 -27 -198 -27c-103.333 0 -197.666 19.833 -282.999 59.5s-158.666 94 -219.999 163s-109 150 -143 243s-51 193.167 -51 300.5c0 104 17.333 200.833 52 290.5s83.167 167.334 145.5 233.001s136.5 117.167 222.5 154.5s180 56 282 56z
M782.997 132c52.667 1.33301 102.667 9.83105 150 25.498s91 37.167 131 64.5s76 59.5 108 96.5s59 78 81 123s39 93.167 51 144.5s18 104.333 18 159c0 80 -13.333 156 -40 228s-63.667 135.167 -111 189.5s-104.166 97.5 -170.499 129.5s-138.833 48 -217.5 48
s-151 -15.833 -217 -47.5s-123 -74.667 -171 -129s-85.333 -117.5 -112 -189.5s-40 -148.333 -40 -229c0 -82.667 13 -160.667 39 -234s62.667 -137.666 110 -192.999s104.166 -99.666 170.499 -132.999s139.833 -51 220.5 -53z" />
    <glyph glyph-name="P" unicode="P" horiz-adv-x="1209" 
d="M719 1458c59.333 0 114.5 -10.998 165.5 -32.998s95.333 -52 133 -90s67.334 -82.833 89.001 -134.5s32.5 -107.167 32.5 -166.5c0 -57.333 -9.83301 -110.666 -29.5 -159.999s-47.5 -92.833 -83.5 -130.5s-79 -67.834 -129 -90.501s-105.333 -35.334 -166 -38.001h-445
c-7.33301 0 -13.666 -2.66699 -18.999 -8s-8 -12 -8 -20l9 -553c0 -9.33301 -3.33301 -17.333 -10 -24s-15.334 -10 -26.001 -10h-111c-10 0 -18.167 3.33301 -24.5 10s-9.5 14.667 -9.5 24l24 1391c0 9.33301 3.16699 17.166 9.5 23.499s14.166 9.5 23.499 9.5h575z
M714 760.002c43.333 0 82.332 7.33203 116.999 21.999s64 34.5 88 59.5s42.5 54.167 55.5 87.5s19.5 68.333 19.5 105s-6.66699 71.834 -20 105.501s-32 63.5 -56 89.5s-52.833 46.667 -86.5 62s-70.834 23 -111.501 23h-447c-7.33301 0 -13.666 -2.66699 -18.999 -8
s-8 -12 -8 -20l9 -500c0.666992 -7.33301 3.33398 -13.5 8.00098 -18.5s10.667 -7.5 18 -7.5h433z" />
    <glyph glyph-name="Q" unicode="Q" horiz-adv-x="1562" 
d="M1219 140c-7.33301 -3.33301 -10.332 -9.50098 -8.99902 -18.501s4 -15.5 8 -19.5l81 -90c6 -6 9.16699 -13 9.5 -21s-2.83398 -14.333 -9.50098 -19l-79 -70c-7.33301 -7.33301 -15.333 -10 -24 -8s-15.667 6.66699 -21 14l-99 122
c-3.33301 4.66699 -7 7.33398 -11 8.00098s-8.66699 0.333984 -14 -0.999023c-40 -16 -82.667 -29.667 -128 -41s-92 -17 -140 -17c-74 0 -142.833 9.5 -206.5 28.5s-121.5 45.333 -173.5 79s-98 74.167 -138 121.5s-73.667 99.333 -101 156s-48 117.334 -62 182.001
s-21 131 -21 199c0 101.333 17 196.666 51 285.999s81.833 167.166 143.5 233.499s135.167 118.666 220.5 156.999s179.333 57.5 282 57.5c70 0 135.833 -8.83301 197.5 -26.5s118.5 -42.334 170.5 -74.001s98.5 -70 139.5 -115s75.833 -94.667 104.5 -149
s50.667 -112.666 66 -174.999s23 -127.166 23 -194.499c0 -126 -21.667 -240.167 -65 -342.5s-108.333 -189.833 -195 -262.5zM1120 270.999c64.667 56.667 114.168 125.997 148.501 207.997s51.5 170.667 51.5 266c0 86.667 -14.333 166.334 -43 239.001
s-67.667 135.334 -117 188.001s-106.666 93.834 -171.999 123.501s-134.333 44.5 -207 44.5c-74 0 -143.833 -14.833 -209.5 -44.5s-123 -71 -172 -124s-87.667 -115.833 -116 -188.5s-42.5 -152 -42.5 -238c0 -87.333 14.167 -168.333 42.5 -243s67 -139.5 116 -194.5
s106.167 -98 171.5 -129s135 -46.5 209 -46.5c6.66699 0 18.5 0.5 35.5 1.5s34.833 3 53.5 6s35.667 7.33301 51 13s24.666 13.167 27.999 22.5c2.66699 6.66699 1.66699 13 -3 19l-73 92c-6 6.66699 -8.83301 14 -8.5 22s3.5 15 9.5 21l60 50
c6.66699 6.66699 14 9.5 22 8.5s14.667 -4.5 20 -10.5l101 -115c2.66699 -5.33301 6.16699 -8 10.5 -8s8.66602 1 12.999 3s8.5 4.5 12.5 7.5s6.66699 5.16699 8 6.5z" />
    <glyph glyph-name="R" unicode="R" horiz-adv-x="1368" 
d="M1267 53c5.33301 -5.33301 7.99902 -11.168 7.99902 -17.501s-1.5 -12.166 -4.5 -17.499s-7.33301 -9.66602 -13 -12.999s-11.5 -5 -17.5 -5h-131c-13.333 0 -24 5.66699 -32 17l-466 586c-7.33301 8 -15.333 12 -24 12h-300c-8 0 -14.5 -2.83301 -19.5 -8.5
s-7.5 -12.834 -7.5 -21.501l8 -551c0 -11.333 -3.66699 -19.833 -11 -25.5s-15.333 -8.5 -24 -8.5h-112c-9.33301 0 -17.333 3.16699 -24 9.5s-10 14.5 -10 24.5l26 1390c0 9.33301 3.16699 17.333 9.5 24s14.166 10 23.499 10h563c58 0 113 -10.667 165 -32
s97.833 -50.833 137.5 -88.5s71.167 -82.334 94.5 -134.001s35 -108.167 35 -169.5c0 -49.333 -8.16699 -96.166 -24.5 -140.499s-38.833 -84.333 -67.5 -120s-62.5 -65.667 -101.5 -90s-80.833 -41.5 -125.5 -51.5c-7.33301 -2 -12.166 -6.33301 -14.499 -13
s-1.16602 -12.667 3.50098 -18zM714.999 759.998c39.333 0 75.998 7.16602 109.998 21.499s63.667 34 89 59s45.333 54 60 87s22 68.5 22 106.5s-7.16699 73.833 -21.5 107.5s-34.166 63.334 -59.499 89.001s-55.166 46 -89.499 61s-71.5 22.5 -111.5 22.5h-438
c-7.33301 0 -13.833 -2.66699 -19.5 -8s-8.5 -12 -8.5 -20l7 -497c0.666992 -8 3.5 -14.833 8.5 -20.5s11.5 -8.5 19.5 -8.5h432z" />
    <glyph glyph-name="S" unicode="S" horiz-adv-x="1312" 
d="M1230 415c-0.666992 -78.667 -16.3301 -145.493 -46.9971 -200.493s-71.667 -100 -123 -135s-110.666 -60.5 -177.999 -76.5s-138.333 -24 -213 -24c-37.333 0 -76.833 3.5 -118.5 10.5s-83 17.667 -124 32s-80.833 33 -119.5 56s-73.5 50.333 -104.5 82
s-57.167 68.167 -78.5 109.5s-35.333 87.666 -42 138.999c-0.666992 12 1.5 21.833 6.5 29.5s14.167 11.5 27.5 11.5h100c7.33301 0 14.166 -2.5 20.499 -7.5s10.5 -11.167 12.5 -18.5c10.667 -45.333 29.5 -85.833 56.5 -121.5s59.167 -66 96.5 -91
s78.666 -44.167 123.999 -57.5s91.666 -20.333 138.999 -21c44 0 88.667 5.16699 134 15.5s86.5 26.166 123.5 47.499s67.333 48.5 91 81.5s35.5 72.833 35.5 119.5c0 32 -5 60.333 -15 85s-24.167 46.334 -42.5 65.001s-39.833 35 -64.5 49s-51.667 26.167 -81 36.5
s-60.166 19.666 -92.499 27.999s-64.833 16.166 -97.5 23.499c-43.333 9.33301 -85.833 19.333 -127.5 30s-81.167 23.5 -118.5 38.5s-71.666 32.5 -102.999 52.5s-58.5 43.833 -81.5 71.5s-41 59.5 -54 95.5s-19.5 77.333 -19.5 124c0 62 13.167 116.833 39.5 164.5
s61.5 87.667 105.5 120s94.667 57 152 74s117.333 25.5 180 25.5c61.333 0 121.833 -7.33301 181.5 -22s114.334 -37.334 164.001 -68.001s92.334 -69.834 128.001 -117.501s60.5 -104.167 74.5 -169.5c0 -10.667 -2.83301 -19.167 -8.5 -25.5s-14.167 -9.5 -25.5 -9.5h-93
c-9.33301 0 -16.833 3.16699 -22.5 9.5s-10.167 14.5 -13.5 24.5c-15.333 42 -36.833 78 -64.5 108s-58.5 54.833 -92.5 74.5s-69.667 34 -107 43s-73 13.5 -107 13.5c-34.667 0 -71.834 -4.33301 -111.501 -13s-76.334 -22.334 -110.001 -41.001
s-61.834 -42.834 -84.501 -72.501s-34 -65.5 -34 -107.5c-0.666992 -34 6.16602 -63.833 20.499 -89.5s33 -48.167 56 -67.5s49.5 -36 79.5 -50s60.833 -25.667 92.5 -35s62.667 -17.166 93 -23.499s57.5 -11.5 81.5 -15.5c63.333 -11.333 125.166 -26.333 185.499 -45
s114 -43.834 161 -75.501s85 -71 114 -118s43.5 -104.167 43.5 -171.5z" />
    <glyph glyph-name="T" unicode="T" horiz-adv-x="1238" 
d="M1166 1344c0 -8 -2.16895 -14.999 -6.50195 -20.999s-11.166 -9 -20.499 -9h-426c-7.33301 0 -13.833 -2.33301 -19.5 -7s-8.5 -11.667 -8.5 -21l21 -1252c0 -9.33301 -3.16699 -17.333 -9.5 -24s-14.5 -10 -24.5 -10h-113c-9.33301 0 -17.166 3.33301 -23.499 10
s-9.5 14.667 -9.5 24l20 1251c0 8 -2.83301 14.833 -8.5 20.5s-12.167 8.5 -19.5 8.5h-417c-8.66699 0 -15.5 2.66699 -20.5 8s-7.5 12.666 -7.5 21.999l2 87c0 8 2.83301 14.5 8.5 19.5s12.5 7.5 20.5 7.5h1032c8.66699 0 15.667 -2.5 21 -7.5s8 -11.5 8 -19.5z" />
    <glyph glyph-name="U" unicode="U" horiz-adv-x="1319" 
d="M248 574c0.666992 -63.333 12.001 -122.001 34.001 -176.001s51.833 -100.667 89.5 -140s81.167 -70.166 130.5 -92.499s102 -33.5 158 -33.5c55.333 0 107.833 11.333 157.5 34s93.167 53.834 130.5 93.501s67 86.5 89 140.5s33.333 112.333 34 175l15 850
c0 9.33301 3.16699 17.166 9.5 23.499s14.166 9.5 23.499 9.5h68c9.33301 0 17 -3.16699 23 -9.5s9 -14.166 9 -23.499l14 -853c-2.66699 -82.667 -18.667 -160 -48 -232s-69.166 -134.833 -119.499 -188.5s-110 -95.834 -179 -126.501s-144.5 -46 -226.5 -46
c-81.333 0 -156.333 15 -225 45s-128.5 71.333 -179.5 124s-91.333 114.5 -121 185.5s-45.834 147.5 -48.501 229.5l13 862c0 9.33301 3.16699 17.166 9.5 23.499s14.166 9.5 23.499 9.5h68c9.33301 0 16.833 -3.16699 22.5 -9.5s8.83398 -14.166 9.50098 -23.499z" />
    <glyph glyph-name="V" unicode="V" horiz-adv-x="1416" 
d="M826 25c-5.33301 -16.667 -16.333 -25 -33 -25h-150c-18 0 -29.333 7 -34 21l-524 1401c-4.66699 11.333 -3.66699 20.166 3 26.499s16.334 9.5 29.001 9.5h83c15.333 0 25.666 -7 30.999 -21l467 -1186c3.33301 -9.33301 9.5 -13.666 18.5 -12.999s15.167 5 18.5 13
l452 1185c5.33301 14.667 16.333 22 33 22h82c9.33301 0 17.5 -3.5 24.5 -10.5s8.83301 -15.5 5.5 -25.5z" />
    <glyph glyph-name="W" unicode="W" horiz-adv-x="2034" 
d="M1534 26c-2.66699 -7.33301 -6.99707 -13.498 -12.9971 -18.498s-13 -7.5 -21 -7.5h-149c-8 0 -15.167 2.33301 -21.5 7s-10.5 10.667 -12.5 18l-287 1077c-0.666992 5.33301 -2.83398 9.16602 -6.50098 11.499s-7.5 3.33301 -11.5 3s-7.83301 -1.66602 -11.5 -3.99902
s-6.16699 -5.83301 -7.5 -10.5l-315 -1076c-2 -7.33301 -6.16699 -13.5 -12.5 -18.5s-13.833 -7.5 -22.5 -7.5h-147c-18.667 0 -30.334 8.33301 -35.001 25l-373 1390c-3.33301 10.667 -2 20.5 4 29.5s15 13.5 27 13.5h82c16 0 26.333 -7.33301 31 -22l317 -1183
c2 -5.33301 4.66699 -9.33301 8 -12s7 -4.16699 11 -4.5s7.83301 0.666992 11.5 3s6.16699 6.16602 7.5 11.499l353 1180c2 7.33301 6 13.666 12 18.999s13.333 8 22 8h84c8 0 15 -2.66699 21 -8s10 -11.666 12 -18.999l315 -1178c2 -5.33301 4.66699 -9.33301 8 -12
s7 -4.16699 11 -4.5s7.83301 0.666992 11.5 3s6.16699 6.16602 7.5 11.499l355 1184c2.66699 6.66699 6.66699 12.167 12 16.5s11.666 6.5 18.999 6.5h82c12.667 0 22.167 -5 28.5 -15s6.83301 -20.333 1.5 -31z" />
    <glyph glyph-name="X" unicode="X" horiz-adv-x="1345" 
d="M772 757c-8 -12.667 -7.66699 -24.3301 1 -34.9971l473 -671c7.33301 -10 8.33301 -21 3 -33s-14.666 -18 -27.999 -18h-119c-12.667 0 -22.334 5 -29.001 15l-377 558c-7.33301 9.33301 -15.833 13.666 -25.5 12.999s-17.167 -5 -22.5 -13l-375 -557
c-3.33301 -4.66699 -7.5 -8.5 -12.5 -11.5s-10.167 -4.5 -15.5 -4.5h-120c-12.667 0 -22.167 5.66699 -28.5 17s-5.83301 22.666 1.5 33.999l475 671c3.33301 5.33301 5.16602 11.166 5.49902 17.499s-1.16699 12.166 -4.5 17.499l-423 653c-7.33301 10 -7.5 20.5 -0.5 31.5
s16.833 16.5 29.5 16.5h81c12 0 21.667 -5.33301 29 -16l358 -543c5.33301 -8 13.333 -11.833 24 -11.5s18.334 4.83301 23.001 13.5l359 540c7.33301 10.667 17.333 16.334 30 17.001h82c14.667 0 24.667 -5.83301 30 -17.5s4.33301 -23.167 -3 -34.5z" />
    <glyph glyph-name="Y" unicode="Y" horiz-adv-x="1222" 
d="M1106 1458c14 0 23.667 -5.83203 29 -17.499s4.33301 -23.167 -3 -34.5l-436 -672c-1.33301 -3.33301 -2.66602 -6.5 -3.99902 -9.5s-2 -6.16699 -2 -9.5l12 -681c0 -9.33301 -3.16699 -17.333 -9.5 -24s-14.5 -10 -24.5 -10h-112c-10 0 -18.167 3.33301 -24.5 10
s-9.5 14.667 -9.5 24l11 681c0 7.33301 -1.66699 13.666 -5 18.999l-438 676c-4 4.66699 -5.83301 9.83398 -5.5 15.501s2 11 5 16s7 9.16699 12 12.5s10.833 4.66602 17.5 3.99902h81c11.333 0 20.666 -5.33301 27.999 -16l359 -542c6 -8.66699 13.667 -13 23 -13
c12 0 20 4.66699 24 14l360 539c7.33301 11.333 17.333 17.333 30 18h82z" />
    <glyph glyph-name="Z" unicode="Z" horiz-adv-x="1328" 
d="M1247 33c0 -9.33301 -3.16699 -17.167 -9.5 -23.5s-14.5 -9.5 -24.5 -9.5h-1097c-10 0 -18.5 3.5 -25.5 10.5s-10.5 16.167 -10.5 27.5l3 110c0 8 2.66699 15.667 8 23l906 1111c5.33301 7.33301 6.16602 14.5 2.49902 21.5s-10.167 10.5 -19.5 10.5h-840
c-10 0 -18 3.16699 -24 9.5s-9 15.166 -9 26.499l1 76c0 8.66699 3.33301 16.167 10 22.5s15 9.5 25 9.5h1044c10 0 18 -3.16699 24 -9.5s9.33301 -14.166 10 -23.499l2 -78c0 -12 -3.33301 -21.333 -10 -28l-872 -1127c-5.33301 -6.66699 -6.16602 -13.5 -2.49902 -20.5
s9.16699 -10.5 16.5 -10.5h856c10 0 18.333 -2.5 25 -7.5s10 -12.5 10 -22.5z" />
    <glyph glyph-name="bracketleft" unicode="[" horiz-adv-x="551" 
d="M238 1329c-11.333 0 -17 -6.66699 -17 -20v-1600c0 -13.333 5.66699 -20 17 -20h213c8.66699 0 16 -2.66699 22 -8s9 -12.333 9 -21v-71c0 -8.66699 -2.83301 -15.667 -8.5 -21s-13.167 -8 -22.5 -8h-331c-9.33301 0 -17 2.5 -23 7.5s-9 12.167 -9 21.5v1840
c0 9.33301 3 16.5 9 21.5s13.667 7.5 23 7.5h331c8.66699 0 16 -2.5 22 -7.5s9 -11.833 9 -20.5v-72c0 -8.66699 -3 -15.667 -9 -21s-13.333 -8 -22 -8h-213z" />
    <glyph glyph-name="backslash" unicode="\" horiz-adv-x="856" 
d="M180 1458c14 0 23.332 -6.33301 27.999 -19l575 -1393c3.33301 -10 2.66602 -20.167 -2.00098 -30.5s-13.667 -15.5 -27 -15.5h-115c-16.667 0 -27 7 -31 21l-530 1394c-2.66699 4.66699 -3.66699 9.5 -3 14.5s2.33398 9.66699 5.00098 14s6.33398 7.83301 11.001 10.5
s9.66699 4 15 4h74z" />
    <glyph glyph-name="bracketright" unicode="]" horiz-adv-x="552" 
d="M101 1329c-8.66699 0 -16 2.66699 -22 8s-9 12.333 -9 21v72c0 8.66699 3 15.5 9 20.5s13.333 7.5 22 7.5h331c9.33301 0 17 -2.5 23 -7.5s9 -12.167 9 -21.5v-1840c0 -9.33301 -3 -16.5 -9 -21.5s-13.667 -7.5 -23 -7.5h-331c-9.33301 0 -16.833 2.66699 -22.5 8
s-8.5 12.333 -8.5 21v71c0 8.66699 3 15.667 9 21s13.333 8 22 8h213c11.333 0 17 6.66699 17 20v1600c0 13.333 -5.66699 20 -17 20h-213z" />
    <glyph glyph-name="asciicircum" unicode="^" horiz-adv-x="1191" 
d="M227 513c-2.66699 -7.33301 -7.49902 -13.166 -14.499 -17.499s-13.167 -6.83301 -18.5 -7.5h-76c-11.333 0 -20.5 5 -27.5 15s-7.5 20.667 -1.5 32l422 905c4.66699 12 13.667 18 27 18h71c13.333 0 22.666 -5.33301 27.999 -16l465 -906
c6.66699 -10.667 6.5 -21.5 -0.5 -32.5s-16.5 -16.5 -28.5 -16.5h-75c-14 0 -24.333 6 -31 18l-374 766c-3.33301 6 -9 9.16699 -17 9.5s-13.333 -2.83398 -16 -9.50098z" />
    <glyph glyph-name="underscore" unicode="_" horiz-adv-x="1146" 
d="M1058 -262c-1.33301 -16.667 -10.333 -25.667 -27 -27h-915c-7.33301 0 -13.833 2.66699 -19.5 8s-8.5 11.666 -8.5 18.999v76c0 7.33301 2.66699 14 8 20s12 9 20 9h913c8.66699 0 15.5 -2.66699 20.5 -8s7.83301 -11.666 8.5 -18.999v-78z" />
    <glyph glyph-name="grave" unicode="`" horiz-adv-x="430" 
d="M85 1407c-4.66699 4.66699 -7.16699 9.83301 -7.5 15.5s0.666992 11.167 3 16.5s6 9.83301 11 13.5s10.5 5.5 16.5 5.5h75c14.667 -2 24.667 -7.66699 30 -17l124 -208c4.66699 -8.66699 6 -16.667 4 -24s-5.83301 -13 -11.5 -17s-12.167 -6 -19.5 -6s-14 3.33301 -20 10
z" />
    <glyph glyph-name="a" unicode="a" 
d="M800 781c-1.33301 30 -9.33203 55.5 -23.999 76.5s-33.667 38 -57 51s-49.833 22.333 -79.5 28s-60.167 8.5 -91.5 8.5c-26.667 0 -53.5 -2.83301 -80.5 -8.5s-52.333 -15 -76 -28s-45 -30.167 -64 -51.5s-33.833 -47.333 -44.5 -78c-4.66699 -13.333 -9 -23 -13 -29
s-11.667 -9.66699 -23 -11h-85c-12.667 0 -21.334 5.83301 -26.001 17.5s-5.66699 22.834 -3 33.501c8.66699 48.667 27.667 91 57 127s64 65.667 104 89s83.333 40.666 130 51.999s91.667 17 135 17c50 0 97.833 -5.83301 143.5 -17.5s86 -30.167 121 -55.5
s63.167 -57.833 84.5 -97.5s32.666 -87.167 33.999 -142.5l12 -728c0 -10 -3.16699 -18.167 -9.5 -24.5s-14.5 -9.5 -24.5 -9.5h-102c-10 0 -18 3.16699 -24 9.5s-9 14.5 -9 24.5l1 82c0 9.33301 -4 15 -12 17s-15.333 -0.666992 -22 -8
c-51.333 -52.667 -108 -90.167 -170 -112.5s-125.667 -33.5 -191 -33.5c-46 0 -87.833 8.33301 -125.5 25s-70.167 38.834 -97.5 66.501s-48.5 59.5 -63.5 95.5s-22.833 73.667 -23.5 113c0 32.667 5 64 15 94s24 57.5 42 82.5s39.667 46.667 65 65s53.333 32.166 84 41.499
c48.667 12 94.334 21.5 137.001 28.5s82.667 14.167 120 21.5s72 15.5 104 24.5s62 21.5 90 37.5c41.333 23.333 62 59 62 107zM232.001 300c0 -42 9.99902 -75.666 29.999 -100.999s45.5 -43.666 76.5 -54.999s65.833 -16.333 104.5 -15s76.667 7.5 114 18.5
s71.833 26 103.5 45s56.834 40.833 75.501 65.5c12 16 21.667 36.167 29 60.5s13 50 17 77s6.83301 53.667 8.5 80s2.5 49.5 2.5 69.5c0 9.33301 -4.66699 13.666 -14 12.999c-32.667 -12 -64.5 -22.5 -95.5 -31.5s-62.667 -17.333 -95 -25s-66.333 -15.334 -102 -23.001
l-115.5 -24.5c-42.667 -9.33301 -76.5 -27.833 -101.5 -55.5s-37.5 -60.5 -37.5 -98.5z" />
    <glyph glyph-name="b" unicode="b" horiz-adv-x="1191" 
d="M625 1075c70.667 1.33301 135.995 -11.834 195.995 -39.501s112 -66.167 156 -115.5s78.5 -107.5 103.5 -174.5s37.5 -139.5 37.5 -217.5c0 -74.667 -12.167 -145.334 -36.5 -212.001s-58.5 -125 -102.5 -175s-96.833 -89.5 -158.5 -118.5s-129.5 -43.5 -203.5 -43.5
c-29.333 0 -58.833 3.5 -88.5 10.5s-58.5 17.333 -86.5 31s-54.667 30.167 -80 49.5s-47.666 41 -66.999 65c-7.33301 9.33301 -14.833 12.833 -22.5 10.5s-11.5 -9.16602 -11.5 -20.499l1 -91c0 -9.33301 -3 -17.333 -9 -24s-13.667 -10 -23 -10h-110
c-9.33301 0 -17.166 3.16699 -23.499 9.5s-9.5 14.5 -9.5 24.5l23 1392c0 8.66699 3 16.167 9 22.5s13.667 9.5 23 9.5h65c8.66699 -0.666992 16 -4 22 -10s9 -13.333 9 -22l9 -516c0 -10 4.16699 -16.333 12.5 -19s15.833 -1 22.5 5
c16.667 16.667 36.334 35.334 59.001 56.001s48.334 40 77.001 58s60.334 33.167 95.001 45.5s72 18.833 112 19.5zM619.995 129c50.667 0 96.833 11.167 138.5 33.5s77.5 52.333 107.5 90s53.167 80.834 69.5 129.501s24.5 99 24.5 151
c0 53.333 -7.66699 104.833 -23 154.5s-37.5 93.5 -66.5 131.5s-64 68.5 -105 91.5s-87.5 34.5 -139.5 34.5c-53.333 0 -102.666 -10.833 -147.999 -32.5s-84.833 -51.334 -118.5 -89.001s-60 -81.834 -79 -132.501s-28.5 -105 -28.5 -163
c0 -67.333 10.333 -125.833 31 -175.5s48.167 -91.167 82.5 -124.5s73.666 -58.166 117.999 -74.499s89.833 -24.5 136.5 -24.5z" />
    <glyph glyph-name="c" unicode="c" horiz-adv-x="1150" 
d="M1065 330c-15.333 -49.333 -37.5 -95.333 -66.5 -138s-63.833 -79.834 -104.5 -111.501s-86.5 -56.5 -137.5 -74.5s-105.833 -27 -164.5 -27c-76.667 0 -146.334 14.167 -209.001 42.5s-116.167 67.333 -160.5 117s-78.666 107.834 -102.999 174.501
s-36.5 138.334 -36.5 215.001c0 81.333 12.667 155.666 38 222.999s60.666 125 105.999 173s98.833 85.167 160.5 111.5s129.167 39.5 202.5 39.5c50 0 97.667 -6.66699 143 -20s87.166 -32.166 125.499 -56.499s72.833 -54 103.5 -89s56 -74.167 76 -117.5
c6 -11.333 5.66699 -22 -1 -32s-16 -15 -28 -15h-94c-14 0 -24.333 6 -31 18c-30.667 55.333 -70.5 99.5 -119.5 132.5s-107.167 49.5 -174.5 49.5c-53.333 0 -102 -11.333 -146 -34s-81.667 -52.834 -113 -90.501s-55.666 -81 -72.999 -130s-26 -100.167 -26 -153.5
c0 -60.667 8.66699 -116 26 -166s41.666 -93 72.999 -129s69 -63.833 113 -83.5s92.667 -29.5 146 -29.5c37.333 0 72.333 5.33301 105 16s62.834 25.834 90.501 45.501s52.334 43.167 74.001 70.5s39.834 57.666 54.501 90.999c5.33301 13.333 15.666 20.333 30.999 21h89
c14 -1.33301 23.333 -6.5 28 -15.5s5.66699 -18.167 3 -27.5z" />
    <glyph glyph-name="d" unicode="d" horiz-adv-x="1181" 
d="M73 528c0 78.667 12.501 151.33 37.501 217.997s59.5 124.334 103.5 173.001s96.167 86.834 156.5 114.501s125.833 41.5 196.5 41.5c34.667 0 68.167 -4.83301 100.5 -14.5s62.833 -22.667 91.5 -39s54.834 -35 78.501 -56s44.5 -42.833 62.5 -65.5
c6.66699 -7.33301 14 -9.5 22 -6.5s12 9.5 12 19.5l9 512c0 9.33301 3 17 9 23s13.667 9.33301 23 10h63c9.33301 0 17 -3.16699 23 -9.5s9 -14.166 9 -23.499l24 -1391c0 -9.33301 -3 -17.333 -9 -24s-13.667 -10 -23 -10h-111c-8.66699 0 -16.167 3.16699 -22.5 9.5
s-9.5 14.5 -9.5 24.5l1 92c0 11.333 -4.33301 17.5 -13 18.5s-16 -2.16699 -22 -9.5c-16.667 -19.333 -36.334 -38 -59.001 -56s-47.334 -34 -74.001 -48s-55 -25.333 -85 -34s-60.333 -13 -91 -13c-74.667 0 -142.834 14.333 -204.501 43s-114.667 67.667 -159 117
s-78.666 107 -102.999 173s-36.5 136.333 -36.5 211zM231.001 534.996c0 -50 7.83203 -99.334 23.499 -148.001s38.334 -92.167 68.001 -130.5s65.834 -69.166 108.501 -92.499s91 -35 145 -35s103 11.333 147 34s81.667 53 113 91s55.5 81.833 72.5 131.5
s25.5 101.167 25.5 154.5c0 56 -9.5 108.667 -28.5 158s-45 92.333 -78 129s-71.833 65.5 -116.5 86.5s-92.334 31.5 -143.001 31.5c-52 0 -98.833 -11.5 -140.5 -34.5s-77 -53.5 -106 -91.5s-51.333 -81.667 -67 -131s-23.5 -100.333 -23.5 -153z" />
    <glyph glyph-name="e" unicode="e" horiz-adv-x="1173" 
d="M1093 558c0 -11.333 -3.33594 -20.167 -10.0029 -26.5s-14.334 -9.5 -23.001 -9.5h-808c-12.667 -0.666992 -19 -8 -19 -22c2.66699 -53.333 13 -102.666 31 -147.999s42.333 -84.5 73 -117.5s67.334 -58.833 110.001 -77.5s90.334 -28 143.001 -28
c66 0 124 15.5 174 46.5s91 71.5 123 121.5c8 11.333 17.667 17 29 17h94c13.333 0 22.666 -5.66699 27.999 -17s5.33301 -22 0 -32c-21.333 -43.333 -47 -82.5 -77 -117.5s-64 -65 -102 -90s-79.5 -44.333 -124.5 -58s-92.833 -20.5 -143.5 -20.5
c-76.667 0 -146.167 14.167 -208.5 42.5s-115.666 67.166 -159.999 116.499s-78.666 107.5 -102.999 174.5s-36.5 139.5 -36.5 217.5c0 80 12.667 153.333 38 220s60.5 124.167 105.5 172.5s98.5 85.833 160.5 112.5s129.667 40 203 40
c74.667 0 142.334 -14.333 203.001 -43s112.667 -66.834 156 -114.501s77.333 -102.667 102 -165s38.667 -127.166 42 -194.499zM903.997 644.999c7.33301 0 12.8301 2.5 16.4971 7.5s4.16699 11.167 1.5 18.5c-12 36 -28.333 70.5 -49 103.5s-45.167 62.167 -73.5 87.5
s-60.166 45.5 -95.499 60.5s-73.333 22.5 -114 22.5s-79.167 -7.16699 -115.5 -21.5s-69.166 -34 -98.499 -59s-54.666 -54.167 -75.999 -87.5s-37.333 -69 -48 -107c-2.66699 -7.33301 -2.16699 -13.333 1.5 -18s9.5 -7 17.5 -7h633z" />
    <glyph glyph-name="f" unicode="f" horiz-adv-x="641" 
d="M566 963c0 -8.66699 -3.00098 -16.165 -9.00098 -22.498s-13.333 -9.5 -22 -9.5h-133c-5.33301 0 -10 -2 -14 -6s-6 -8.66699 -6 -14l14 -877c0 -10 -3.16699 -18.167 -9.5 -24.5s-14.5 -9.5 -24.5 -9.5h-108c-9.33301 0 -17.166 3.16699 -23.499 9.5
s-9.5 14.5 -9.5 24.5l15 877c0 5.33301 -2 10 -6 14s-8.66699 6 -14 6h-112c-9.33301 0 -17.166 3.16699 -23.499 9.5s-9.5 14.166 -9.5 23.499l2 56c0 9.33301 3 17 9 23s13.333 9 22 9h114c5.33301 0 10 2.16699 14 6.5s6 9.5 6 15.5l4 142
c0.666992 34 7.33398 65.667 20.001 95s29.5 55 50.5 77s45.5 39.167 73.5 51.5s57.667 18.5 89 18.5h47c10 0 18.167 -3.16699 24.5 -9.5s9.5 -14.166 9.5 -23.499l1 -53c0 -10.667 -2.83301 -19.334 -8.5 -26.001s-13.834 -10 -24.501 -10h-52
c-12.667 0 -24.667 -2.83301 -36 -8.5s-21.333 -13.334 -30 -23.001s-15.667 -21 -21 -34s-8.33301 -27.167 -9 -42.5l2 -154c0 -6 2 -11.167 6 -15.5s9 -6.5 15 -6.5h133c9.33301 0 17.166 -3 23.499 -9s9.5 -13.333 9.5 -22z" />
    <glyph glyph-name="g" unicode="g" horiz-adv-x="1181" 
d="M1095 19c0 -67.333 -13.168 -130.003 -39.501 -188.003s-61.666 -108.333 -105.999 -151s-96 -76.167 -155 -100.5s-121.167 -36.5 -186.5 -36.5c-44.667 0 -87.5 5.83301 -128.5 17.5s-79.167 27.834 -114.5 48.501s-67.5 45 -96.5 73s-53.5 58.333 -73.5 91
c-3.33301 6 -4.83301 11.833 -4.5 17.5s1.83301 10.834 4.5 15.501s6.5 8.5 11.5 11.5s10.167 4.5 15.5 4.5h106c12.667 0 22.334 -5.33301 29.001 -16c30 -37.333 66.667 -67 110 -89s90 -33 140 -33c44.667 0 86.5 8.33301 125.5 25s73 39.834 102 69.501
s51.833 64.5 68.5 104.5s25.667 83.333 27 130l2 103c0 12 -4.33301 19 -13 21s-16.334 -1.33301 -23.001 -10c-16.667 -19.333 -36.334 -37.833 -59.001 -55.5s-47.5 -33.334 -74.5 -47.001s-55.667 -24.667 -86 -33s-61.166 -12.5 -92.499 -12.5
c-74.667 0 -142.834 14.5 -204.501 43.5s-114.667 68.5 -159 118.5s-78.666 108.333 -102.999 175s-36.5 137.334 -36.5 212.001c0 78 12.333 150.333 37 217s59.334 124.5 104.001 173.5s97.667 87.333 159 115s129 41.5 203 41.5c33.333 0 65.666 -5 96.999 -15
s61 -23 89 -39s53.5 -34.167 76.5 -54.5s43.167 -40.833 60.5 -61.5c7.33301 -7.33301 15 -9.5 23 -6.5s12 9.16699 12 18.5l1 97c0 10 3.33301 18 10 24s14.667 9 24 9h73c10.667 0 19 -3 25 -9s9 -14 9 -24zM584.999 128.997c56 0 106.166 11.1641 150.499 33.4971
s81.833 52.5 112.5 90.5s54.167 81.833 70.5 131.5s24.5 101.834 24.5 156.501s-9.66699 106.5 -29 155.5s-45.5 92 -78.5 129s-72 66.167 -117 87.5s-92.833 32 -143.5 32c-52 0 -98.667 -11.333 -140 -34s-76.666 -53 -105.999 -91s-51.833 -81.667 -67.5 -131
s-23.5 -100.666 -23.5 -153.999c0 -50 8 -99.333 24 -148s39 -92.167 69 -130.5s66.333 -69.166 109 -92.499s91 -35 145 -35z" />
    <glyph glyph-name="h" unicode="h" horiz-adv-x="1030" 
d="M954 34c0 -9.33301 -3.16699 -17.3359 -9.5 -24.0029s-14.166 -10 -23.499 -10h-107c-9.33301 0 -17.666 2.83301 -24.999 8.5s-11 14.167 -11 25.5l13 693c-1.33301 30 -6.83301 58.333 -16.5 85s-23.334 49.834 -41.001 69.501s-39 35.167 -64 46.5
s-52.833 17 -83.5 17c-26.667 0 -53.334 -4.33301 -80.001 -13s-52.167 -20.667 -76.5 -36s-47.166 -33 -68.499 -53s-39.833 -41.5 -55.5 -64.5s-28.167 -46.5 -37.5 -70.5s-14.666 -47.333 -15.999 -70l10 -604c0 -9.33301 -2.83301 -17.333 -8.5 -24
s-13.167 -10 -22.5 -10h-109c-9.33301 0 -17.333 2.83301 -24 8.5s-10.334 14.167 -11.001 25.5l24 1392c0 9.33301 3.16699 17 9.5 23s14.166 9 23.499 9h62c9.33301 -0.666992 17 -4.16699 23 -10.5s9 -13.833 9 -22.5l8 -510c0 -8 4 -13.5 12 -16.5
s14.667 -1.83301 20 3.5c43.333 52 95.166 93.833 155.499 125.5s128.833 47.5 205.5 47.5c40 0 78.333 -7.16699 115 -21.5s68.834 -34.666 96.501 -60.999s49.667 -57.666 66 -93.999s24.5 -76.5 24.5 -120.5z" />
    <glyph glyph-name="i" unicode="i" horiz-adv-x="366" 
d="M266 33c0 -9.33301 -2.99902 -16.833 -8.99902 -22.5s-13.667 -9.16699 -23 -10.5h-111c-8.66699 0 -16.334 3.16699 -23.001 9.5s-10 14.5 -10 24.5l18 989c0 9.33301 3 17 9 23s13.667 9 23 9h76c9.33301 0 17 -3 23 -9s9.33301 -14 10 -24zM146.001 1259
c-9.33301 0 -17.168 3 -23.501 9s-9.5 13.667 -9.5 23l2 136c0 9.33301 3 16.833 9 22.5s13.333 8.5 22 8.5h65c8.66699 0 16 -3 22 -9s9 -13.667 9 -23l3 -135c0 -9.33301 -3.16699 -17 -9.5 -23s-14.166 -9 -23.499 -9h-66z" />
    <glyph glyph-name="j" unicode="j" horiz-adv-x="474" 
d="M391 -248c0 -29.333 -4.83301 -55.668 -14.5 -79.001s-23 -43.5 -40 -60.5s-37 -30 -60 -39s-47.833 -13.5 -74.5 -13.5h-103c-10 0 -18.167 3.16699 -24.5 9.5s-9.5 14.5 -9.5 24.5v77c0 10 3.16699 18.167 9.5 24.5s14.5 9.5 24.5 9.5c38 0 65.333 6.5 82 19.5
s25.334 30.833 26.001 53.5l22 1245c0 8.66699 3 16.167 9 22.5s13.667 9.5 23 9.5h75c9.33301 0 17.166 -3.16699 23.499 -9.5s9.5 -14.166 9.5 -23.499zM267 1259c-9.33301 0 -17.168 3 -23.501 9s-9.5 13.667 -9.5 23l2 136c0 9.33301 3 16.833 9 22.5s13.333 8.5 22 8.5
h65c8.66699 0 16 -3 22 -9s9 -13.667 9 -23l3 -135c0 -9.33301 -3.16699 -17 -9.5 -23s-14.166 -9 -23.499 -9h-66z" />
    <glyph glyph-name="k" unicode="k" horiz-adv-x="1048" 
d="M962 53c8.66699 -12 10.1699 -23.833 4.50293 -35.5s-15.5 -17.5 -29.5 -17.5h-109c-12 0 -21.333 5 -28 15l-378 491c-4 5.33301 -8.83301 8 -14.5 8s-10.834 -2.33301 -15.501 -7l-129 -126c-4 -4 -6 -9 -6 -15l5 -332c0 -9.33301 -2.83301 -17.333 -8.5 -24
s-13.167 -10 -22.5 -10h-109c-9.33301 -0 -17.333 2.83301 -24 8.5s-10.334 14.167 -11.001 25.5l24 1392c0 9.33301 3.16699 17 9.5 23s14.166 9 23.499 9h63c8.66699 -0.666992 16 -4.16699 22 -10.5s9 -13.833 9 -22.5l14 -801c0 -10 4 -15.833 12 -17.5
s15 -0.166992 21 4.5l491 435c6 6 13.667 9 23 9h82c8 0 14.5 -2 19.5 -6s8.5 -8.83301 10.5 -14.5s2.33301 -11.667 1 -18s-4.33301 -11.833 -9 -16.5l-387 -373c-6.66699 -8.66699 -7 -18 -1 -28z" />
    <glyph glyph-name="l" unicode="l" horiz-adv-x="425" 
d="M295 34c0 -9.33301 -2.99902 -17.333 -8.99902 -24s-13.333 -10 -22 -10h-109c-9.33301 -0 -17.5 2.83301 -24.5 8.5s-10.5 14.167 -10.5 25.5l24 1392c0 9.33301 3.16699 17 9.5 23s14.166 9 23.499 9h62c9.33301 -0.666992 17 -4.16699 23 -10.5s9 -13.833 9 -22.5z
" />
    <glyph glyph-name="m" unicode="m" horiz-adv-x="1697" 
d="M955 34c0 -9.33301 -3.16211 -17.3369 -9.49512 -24.0039s-14.166 -10 -23.499 -10h-107c-9.33301 0 -17.5 2.83301 -24.5 8.5s-10.833 13.5 -11.5 23.5l13 690c-1.33301 30.667 -6.83301 59.5 -16.5 86.5s-23.334 50.667 -41.001 71s-39.167 36.333 -64.5 48
s-53.666 17.5 -84.999 17.5c-39.333 0 -78.666 -9.66699 -117.999 -29s-74.833 -43.833 -106.5 -73.5s-57.334 -62.667 -77.001 -99s-29.834 -71.5 -30.501 -105.5l10 -604c0 -9.33301 -2.83301 -17.333 -8.5 -24s-13.167 -10 -22.5 -10h-109
c-9.33301 0 -17.333 2.83301 -24 8.5s-10.334 14.167 -11.001 25.5l17 988c0 10 3.16699 18 9.5 24s14.166 9 23.499 9h75c9.33301 0 17.166 -3.16699 23.499 -9.5s9.5 -14.166 9.5 -23.499l1 -107c0 -8 4 -13.5 12 -16.5s14.667 -1.83301 20 3.5
c43.333 52 95 93.833 155 125.5s127.333 47.5 202 47.5c30.667 0 59.834 -4.16699 87.501 -12.5s53.167 -19.833 76.5 -34.5s44.166 -32.167 62.499 -52.5s33.166 -42.5 44.499 -66.5c3.33301 -6 8 -9.66699 14 -11s12.667 1 20 7c40.667 51.333 90.667 92.5 150 123.5
s127.333 46.5 204 46.5c40 0 78 -7.16699 114 -21.5s67.833 -34.666 95.5 -60.999s49.667 -57.666 66 -93.999s24.833 -76.5 25.5 -120.5l14 -744c0 -9.33301 -3.16699 -17.333 -9.5 -24s-14.166 -10 -23.499 -10h-107c-9.33301 0 -17.666 2.83301 -24.999 8.5
s-11 14.167 -11 25.5l12 693c-1.33301 30 -6.83301 58.333 -16.5 85s-23.334 49.834 -41.001 69.501s-38.834 35.167 -63.501 46.5s-52.334 17 -83.001 17c-27.333 0 -58.333 -6.5 -93 -19.5s-67.167 -32 -97.5 -57s-55.833 -55.833 -76.5 -92.5s-31 -79 -31 -127z" />
    <glyph glyph-name="n" unicode="n" horiz-adv-x="1041" 
d="M954 34c0 -9.33301 -3.16504 -17.3369 -9.49805 -24.0039s-14.166 -10 -23.499 -10h-107c-9.33301 0 -17.666 2.83301 -24.999 8.5s-11 14.167 -11 25.5l13 693c-1.33301 30 -6.83301 58.333 -16.5 85s-23.334 49.834 -41.001 69.501s-39 35.167 -64 46.5
s-52.833 17 -83.5 17c-38.667 0 -77.667 -9.5 -117 -28.5s-75 -43.5 -107 -73.5s-58.167 -63.167 -78.5 -99.5s-30.833 -71.5 -31.5 -105.5l10 -604c0 -9.33301 -2.83301 -17.333 -8.5 -24s-13.167 -10 -22.5 -10h-109c-9.33301 0 -17.333 2.83301 -24 8.5
s-10.334 14.167 -11.001 25.5l17 988c0 10 3.16699 18 9.5 24s14.166 9 23.499 9h75c9.33301 0 17.166 -3.16699 23.499 -9.5s9.5 -14.166 9.5 -23.499l1 -107c0 -8 4 -13.5 12 -16.5s14.667 -1.83301 20 3.5c43.333 52 95.166 93.833 155.499 125.5
s128.833 47.5 205.5 47.5c40 0 78.333 -7.16699 115 -21.5s68.834 -34.666 96.501 -60.999s49.667 -57.666 66 -93.999s24.5 -76.5 24.5 -120.5z" />
    <glyph glyph-name="o" unicode="o" horiz-adv-x="1180" 
d="M591 -21c-75.333 0 -144.167 14.5 -206.5 43.5s-115.833 68.5 -160.5 118.5s-79.334 108.333 -104.001 175s-37 137.334 -37 212.001c0 73.333 12.333 143 37 209s59.334 124 104.001 174s98.167 89.833 160.5 119.5s131.166 44.5 206.499 44.5
c74.667 0 143 -14.833 205 -44.5s115.333 -69.5 160 -119.5s79.334 -108 104.001 -174s37 -135.667 37 -209c0 -74.667 -12.5 -145.334 -37.5 -212.001s-59.833 -125 -104.5 -175s-98 -89.5 -160 -118.5s-130 -43.5 -204 -43.5zM948.999 528
c0 51.333 -8.67188 101.835 -26.0049 151.502s-41.666 94.167 -72.999 133.5s-69 71.166 -113 95.499s-92.667 36.5 -146 36.5c-55.333 0 -105.166 -11.667 -149.499 -35s-82.166 -54 -113.499 -92s-55.333 -81.5 -72 -130.5s-25 -99.167 -25 -150.5
c0 -61.333 9.33301 -117.166 28 -167.499s44.334 -93.333 77.001 -129s70.834 -63.167 114.501 -82.5s90.5 -29 140.5 -29c48 0 93.333 9.33301 136 28s80.334 45.167 113.001 79.5s58.667 76.166 78 125.499s29.666 104.666 30.999 165.999z" />
    <glyph glyph-name="p" unicode="p" horiz-adv-x="1192" 
d="M105 1022c0 9.33301 3.16602 17.166 9.49902 23.499s14.833 9.5 25.5 9.5h73c10 0 18.167 -3.16699 24.5 -9.5s9.5 -14.166 9.5 -23.499l1 -105c0 -10 4.5 -16.333 13.5 -19s16.167 -0.666992 21.5 6c18.667 23.333 40.667 45.333 66 66s52.666 38.834 81.999 54.501
s60.5 28 93.5 37s66.833 13.5 101.5 13.5c72 0 138.167 -13.833 198.5 -41.5s112.333 -66 156 -115s77.667 -106.833 102 -173.5s36.5 -139 36.5 -217c0 -74.667 -12.333 -145.334 -37 -212.001s-59.167 -125 -103.5 -175s-97.333 -89.5 -159 -118.5
s-129.5 -43.5 -203.5 -43.5c-31.333 0 -62.666 4.16699 -93.999 12.5s-61.166 19.333 -89.499 33s-54.333 29.334 -78 47.001s-43.834 36.167 -60.501 55.5c-7.33301 9.33301 -15.166 12.666 -23.499 9.99902s-12.5 -9.66699 -12.5 -21l6 -521
c0 -10 -3.16699 -18.333 -9.5 -25s-14.5 -10 -24.5 -10h-110c-9.33301 0 -17 3.33301 -23 10s-9 15 -9 25zM247.999 541c0 -58 8.16797 -111.998 24.501 -161.998s40.166 -93.5 71.499 -130.5s69.666 -66.167 114.999 -87.5s97.333 -32 156 -32c52 0 99.333 11.667 142 35
s79.167 54.166 109.5 92.499s53.833 81.833 70.5 130.5s25 98 25 148c0 53.333 -7.66699 104.666 -23 153.999s-37.5 93 -66.5 131s-64.167 68.333 -105.5 91s-88 34 -140 34c-53.333 0 -103.166 -10 -149.499 -30s-86.5 -48 -120.5 -84s-60.667 -78.667 -80 -128
s-29 -103.333 -29 -162z" />
    <glyph glyph-name="q" unicode="q" horiz-adv-x="1181" 
d="M1094 -405c0 -10 -3.00195 -18.333 -9.00195 -25s-13.667 -10 -23 -10h-110c-10 0 -18.167 3.33301 -24.5 10s-9.5 15 -9.5 25l6 521c0 11.333 -4.16699 18.333 -12.5 21s-16.166 -0.666016 -23.499 -9.99902c-16.667 -19.333 -36.334 -37.833 -59.001 -55.5
s-47.5 -33.334 -74.5 -47.001s-55.667 -24.667 -86 -33s-61.166 -12.5 -92.499 -12.5c-74.667 0 -142.834 14.5 -204.501 43.5s-114.667 68.5 -159 118.5s-78.666 108.333 -102.999 175s-36.5 137.334 -36.5 212.001c0 78 12.333 150.333 37 217s59 124.5 103 173.5
s96.167 87.333 156.5 115s126.5 41.5 198.5 41.5c34.667 0 67.834 -4.5 99.501 -13.5s61.5 -21.333 89.5 -37s53.833 -33.834 77.5 -54.501s45.167 -42.667 64.5 -66c5.33301 -6.66699 12.5 -8.66699 21.5 -6s13.5 9 13.5 19l1 105c0 9.33301 3.16699 17.166 9.5 23.499
s14.5 9.5 24.5 9.5h72c10.667 0 19.167 -3.16699 25.5 -9.5s9.5 -14.166 9.5 -23.499zM932.998 541c0 58.667 -9.33398 112.665 -28.001 161.998s-44.5 92 -77.5 128s-71.833 64 -116.5 84s-92.667 30 -144 30c-52 0 -98.667 -11.333 -140 -34s-76.666 -53 -105.999 -91
s-51.833 -81.667 -67.5 -131s-23.5 -100.666 -23.5 -153.999c0 -50 8.33301 -99.333 25 -148s40.167 -92.167 70.5 -130.5s66.833 -69.166 109.5 -92.499s90 -35 142 -35c56 0 106 10.667 150 32s81.333 50.5 112 87.5s54 80.5 70 130.5s24 104 24 162z" />
    <glyph glyph-name="r" unicode="r" horiz-adv-x="697" 
d="M628 948c0 -8.66699 -2.99707 -16.335 -8.99707 -23.002s-13.667 -10 -23 -10c-44.667 0 -87.334 -6.83301 -128.001 -20.5s-76.5 -32.834 -107.5 -57.501s-56.167 -54.167 -75.5 -88.5s-30 -72.166 -32 -113.499l10 -601c0 -9.33301 -3 -17.333 -9 -24
s-13.667 -10 -23 -10h-108c-9.33301 0 -17.5 2.83301 -24.5 8.5s-10.833 14.167 -11.5 25.5l18 988c0 10 3 18 9 24s13.667 9 23 9h76c9.33301 0 17 -3.16699 23 -9.5s9.33301 -14.166 10 -23.499l2 -107c0 -8.66699 3.66699 -14.5 11 -17.5s13.666 -1.83301 18.999 3.5
c19.333 24 40.666 46.5 63.999 67.5s48.166 39.333 74.499 55s54.333 28.167 84 37.5s60.167 14 91.5 14c10.667 0 19.334 -2.66699 26.001 -8s10 -13.666 10 -24.999v-94z" />
    <glyph glyph-name="s" unicode="s" horiz-adv-x="1035" 
d="M153 785c0 47.333 9.66602 89.0059 28.999 125.006s45.166 66.167 77.499 90.5s70 42.666 113 54.999s88.167 18.833 135.5 19.5c44.667 0 87.5 -4.83301 128.5 -14.5s78.833 -24.834 113.5 -45.501s65.167 -47.334 91.5 -80.001s47.166 -72 62.499 -118
c2 -6.66699 2.33301 -12.167 1 -16.5s-3.83301 -7.83301 -7.5 -10.5s-7.83398 -4.66699 -12.501 -6s-9 -2 -13 -2h-84c-13.333 0 -23.333 6 -30 18c-21.333 50 -54.166 86.667 -98.499 110s-95.5 35 -153.5 35c-25.333 0 -51 -2.83301 -77 -8.5s-49.5 -14.834 -70.5 -27.501
s-38.333 -28.667 -52 -48s-20.5 -43 -20.5 -71c0 -30.667 9.5 -55.667 28.5 -75s44.167 -35.666 75.5 -48.999s67 -24.666 107 -33.999s80.833 -19.5 122.5 -30.5s82.5 -23.667 122.5 -38s75.667 -33 107 -56s56.5 -51.5 75.5 -85.5s28.5 -76 28.5 -126
c0 -53.333 -10.5 -99.833 -31.5 -139.5s-50 -72.667 -87 -99s-80.5 -46 -130.5 -59s-104.333 -19.5 -163 -19.5c-47.333 0 -93.833 5.83301 -139.5 17.5s-88.167 29.5 -127.5 53.5s-74.666 54.833 -105.999 92.5s-56.333 82.5 -75 134.5
c-3.33301 9.33301 -4.66602 16.5 -3.99902 21.5s2.33398 8.66699 5.00098 11s6.16699 3.66602 10.5 3.99902s8.5 0.5 12.5 0.5h98c12.667 0 23 -7.33301 31 -22c11.333 -22.667 25.833 -43.834 43.5 -63.501s38.334 -36.834 62.001 -51.501s50.5 -26.334 80.5 -35.001
s63 -13 99 -13c34.667 0 67.667 3.83301 99 11.5s58.666 18.667 81.999 33s41.833 32 55.5 53s20.5 45.167 20.5 72.5c0 29.333 -9.16699 53.666 -27.5 72.999s-42.333 35.833 -72 49.5s-63.5 25.5 -101.5 35.5l-116.5 31.5c-39.667 11 -78.5 23.667 -116.5 38
s-71.833 32.833 -101.5 55.5s-53.667 50.334 -72 83.001s-27.5 72.667 -27.5 120z" />
    <glyph glyph-name="t" unicode="t" horiz-adv-x="635" 
d="M566 963c0 -8.66699 -3.00098 -16.167 -9.00098 -22.5s-13.333 -9.5 -22 -9.5h-133c-5.33301 0 -10 -2 -14 -6s-6 -8.66699 -6 -14l14 -877c0 -10 -3.16699 -18.167 -9.5 -24.5s-14.5 -9.5 -24.5 -9.5h-108c-9.33301 0 -17.166 3.16699 -23.499 9.5s-9.5 14.5 -9.5 24.5
l15 877c0 5.33301 -2 10 -6 14s-8.66699 6 -14 6h-112c-9.33301 0 -17.166 3.16699 -23.499 9.5s-9.5 14.166 -9.5 23.499l1 57c0 9.33301 3.16699 16.833 9.5 22.5s13.833 8.5 22.5 8.5h115c5.33301 0 10 2.16699 14 6.5s6 9.5 6 15.5l6 349c0 10.667 3 19.167 9 25.5
s14.667 9.5 26 9.5h60c9.33301 0 17 -3.16699 23 -9.5s9 -14.166 9 -23.499l6 -351c0 -6 2 -11.167 6 -15.5s9 -6.5 15 -6.5h133c9.33301 0 17.166 -3 23.499 -9s9.5 -13.333 9.5 -22z" />
    <glyph glyph-name="u" unicode="u" horiz-adv-x="1040" 
d="M953 33c0 -9.33301 -2.99414 -17.166 -8.99414 -23.499s-13.667 -9.5 -23 -9.5h-111c-8.66699 0 -16.334 3.16699 -23.001 9.5s-10 14.5 -10 24.5l1 81c0 11.333 -4 18 -12 20s-14.667 -0.666992 -20 -8c-34.667 -42.667 -76.834 -78 -126.501 -106
s-104.834 -42 -165.501 -42c-59.333 0 -111.833 10.667 -157.5 32s-84 50 -115 86s-54.333 77.667 -70 125s-22.834 97 -21.501 149l13 652c0 9.33301 3 17 9 23s13.333 9 22 9h77c9.33301 0 17.166 -3 23.499 -9s9.5 -14 9.5 -24l11 -648
c3.33301 -78.667 24.166 -139.167 62.499 -181.5s89.833 -63.5 154.5 -63.5c35.333 0 71.333 6.33301 108 19s70 31.5 100 56.5s54.667 56.167 74 93.5s29.333 80.333 30 129l11 595c0 9.33301 3 17.166 9 23.499s13.667 9.5 23 9.5h77c9.33301 0 17 -3.16699 23 -9.5
s9 -14.5 9 -24.5z" />
    <glyph glyph-name="v" unicode="v" horiz-adv-x="1081" 
d="M968 1055c11.333 0 20.002 -4.5 26.002 -13.5s7.33301 -18.5 4 -28.5l-366 -992c-5.33301 -14 -15.333 -21 -30 -21h-133c-16.667 0 -27.334 7 -32.001 21l-354 991c-3.33301 11.333 -2 21.333 4 30s14.667 13 26 13h76c7.33301 0 14 -2.16699 20 -6.5s10 -9.5 12 -15.5
l296 -818c4 -9.33301 10.167 -13.5 18.5 -12.5s14.166 5.16699 17.499 12.5l307 818c4.66699 14.667 15 22 31 22h77z" />
    <glyph glyph-name="w" unicode="w" horiz-adv-x="1593" 
d="M1476 1055c12 0 20.6689 -4.50098 26.002 -13.501s7 -18.5 5 -28.5l-287 -990c-4 -15.333 -14.333 -23 -31 -23h-130c-16.667 0 -28 7.66699 -34 23l-208 753c-3.33301 10.667 -9.66602 15.667 -18.999 15s-15.333 -5.66699 -18 -15l-201 -753
c-5.33301 -15.333 -15.666 -23 -30.999 -23h-130c-16.667 0 -28 7.66699 -34 23l-297 989c-2.66699 11.333 -1.33398 21.333 3.99902 30s14 13 26 13h76c16.667 0 27.334 -7.33301 32.001 -22l237 -818c3.33301 -7.33301 9.16602 -11.166 17.499 -11.499
s14.166 3.5 17.499 11.5l228 813c2 8 6.33301 14.5 13 19.5s14 7.5 22 7.5h74c17.333 0 28.666 -8.66699 33.999 -26l235 -814c4 -7.33301 10.167 -11.333 18.5 -12s14.166 3.33301 17.499 12l230 818c4.66699 14.667 15 22 31 22h76z" />
    <glyph glyph-name="x" unicode="x" horiz-adv-x="1134" 
d="M1035 52c4 -5.33301 6.16699 -10.999 6.5 -16.999s-0.666992 -11.667 -3 -17s-5.83301 -9.66602 -10.5 -12.999s-10.334 -5 -17.001 -5h-112c-11.333 0 -20.333 5 -27 15l-289 375c-5.33301 6 -10.833 8.83301 -16.5 8.5s-10.5 -3.16602 -14.5 -8.49902l-289 -376
c-7.33301 -9.33301 -16.666 -14 -27.999 -14h-111c-7.33301 0 -13.5 1.83301 -18.5 5.5s-8.5 8.16699 -10.5 13.5s-2.5 11.166 -1.5 17.499s3.5 12.166 7.5 17.499l368 465c3.33301 3.33301 4.83301 7.16602 4.5 11.499s-1.5 8.16602 -3.5 11.499l-310 463
c-3.33301 4.66699 -5.16602 10 -5.49902 16s0.666992 11.5 3 16.5s6 9.16699 11 12.5s10.833 5 17.5 5h77c11.333 0 20.666 -5 27.999 -15l261 -392c10.667 -12 21 -12 31 0l263 393c8 9.33301 17.333 14 28 14h78c6.66699 0 12.334 -1.66699 17.001 -5
s8.16699 -7.66602 10.5 -12.999s3.33301 -11 3 -17s-2.5 -11.333 -6.5 -16l-310 -461c-3.33301 -3.33301 -4.83301 -7.33301 -4.5 -12s2.16602 -8.66699 5.49902 -12z" />
    <glyph glyph-name="y" unicode="y" horiz-adv-x="1079" 
d="M970 1055c11.333 0 20 -4.49902 26 -13.499s7.33301 -18.5 4 -28.5l-514 -1430c-2.66699 -7.33301 -6.83398 -13 -12.501 -17s-12.167 -6 -19.5 -6h-112c-12 0 -20.667 5 -26 15s-5.66602 20.333 -0.999023 31l142 348c2 5.33301 2.33301 10.666 1 15.999l-373 1042
c-3.33301 11.333 -2 21.333 4 30s14.667 13 26 13h76c16.667 0 27.334 -7.33301 32.001 -22l296 -818c4 -9.33301 10.167 -13.5 18.5 -12.5s14.166 5.16699 17.499 12.5l307 818c4.66699 14.667 15 22 31 22h77z" />
    <glyph glyph-name="z" unicode="z" horiz-adv-x="1000" 
d="M917 31c0 -8.66699 -2.99707 -16.001 -8.99707 -22.001s-13.667 -9 -23 -9h-768c-9.33301 0 -17.333 3.33301 -24 10s-10 14.667 -10 24l2 83c0 8.66699 3 16.667 9 24l606 760c5.33301 7.33301 6 14.333 2 21s-9.66699 10 -17 10h-551
c-9.33301 0 -17.166 3.16699 -23.499 9.5s-9.5 14.166 -9.5 23.499l1 58c0 9.33301 3.16699 17 9.5 23s14.166 9 23.499 9h731c9.33301 0 17 -3.16699 23 -9.5s9 -14.166 9 -23.499l2 -60c0 -7.33301 -2.66699 -14.666 -8 -21.999l-570 -777
c-4.66699 -7.33301 -4.83398 -14.333 -0.500977 -21s10.166 -10 17.499 -10h544c9.33301 0 17.166 -3 23.499 -9s9.5 -13.667 9.5 -23z" />
    <glyph glyph-name="braceleft" unicode="{" horiz-adv-x="685" 
d="M610 -410c0 -20 -11.0029 -30 -33.0029 -30h-110c-39.333 0 -75 7.16699 -107 21.5s-59.167 34 -81.5 59s-39.666 54 -51.999 87s-18.5 68.5 -18.5 106.5l-2 524c0 20.667 -3.33301 38.834 -10 54.501s-15.5 29.167 -26.5 40.5s-23.333 20.5 -37 27.5
s-27.167 12.5 -40.5 16.5c-4.66699 1.33301 -8.66699 3.83301 -12 7.5s-5 8.16699 -5 13.5v83c0 12 7 19.667 21 23c14.667 2.66699 28.667 8.16699 42 16.5s25 18.333 35 30s18 25 24 40s9 30.833 9 47.5v438c0 37.333 7 72 21 104s32.833 59.667 56.5 83
s51.334 41.666 83.001 54.999s65.167 20 100.5 20h110c9.33301 0 17.166 -2.66699 23.499 -8s9.5 -12.666 9.5 -21.999v-68c-2 -20 -13 -30.333 -33 -31h-98c-22 -2 -41.667 -7.5 -59 -16.5s-32.166 -20.833 -44.499 -35.5s-21.666 -31.167 -27.999 -49.5
s-9.5 -37.833 -9.5 -58.5v-449c0 -32.667 -8.16699 -61.334 -24.5 -86.001s-37.166 -43.667 -62.499 -57c-9.33301 -4 -13.5 -9.83301 -12.5 -17.5s5.16699 -13.5 12.5 -17.5c26.667 -12.667 47.834 -32.167 63.501 -58.5s23.5 -55.166 23.5 -86.499v-548
c0 -20 3.16699 -39.333 9.5 -58s15.666 -35.334 27.999 -50.001s27.166 -26.5 44.499 -35.5s37 -14.5 59 -16.5h100c8.66699 0 16 -2.66699 22 -8s9 -13 9 -23v-68z" />
    <glyph glyph-name="bar" unicode="|" horiz-adv-x="305" 
d="M218 -409c0 -8.66699 -3 -16 -9 -22s-13.667 -9 -23 -9h-66c-8.66699 0 -16.167 2.83301 -22.5 8.5s-9.5 13.167 -9.5 22.5v1968c0 9.33301 3 17 9 23s13.667 9 23 9h66c9.33301 0 17 -3 23 -9s9 -13.667 9 -23v-1968z" />
    <glyph glyph-name="braceright" unicode="}" horiz-adv-x="695" 
d="M85.0371 -410c0 -20 11.001 -30 33 -30h109.993c39.3311 0 74.9951 7.16699 106.992 21.5c31.999 14.333 59.1641 34 81.4951 59c22.332 25 39.6641 54 51.9971 87s18.499 68.5 18.499 106.5l2 524c0 20.667 3.33301 38.834 9.99902 54.501
c6.66699 15.667 15.5 29.167 26.499 40.5s23.3311 20.5 36.9961 27.5c13.666 7 27.165 12.5 40.498 16.5c4.66602 1.33301 8.66602 3.83301 11.999 7.5s5 8.16699 5 13.5v83c0 12 -7 19.667 -20.999 23c-14.666 2.66699 -28.665 8.16699 -41.9971 16.5
c-13.333 8.33301 -24.999 18.333 -34.998 30s-17.999 25 -23.999 40c-5.99902 15 -8.99902 30.833 -8.99902 47.5v438c0 37.333 -7 72 -20.999 104s-32.8311 59.667 -56.4961 83s-51.3301 41.666 -82.9951 54.999s-65.1631 20 -100.494 20h-109.993
c-9.33301 0 -17.166 -2.66699 -23.499 -8s-9.5 -12.666 -9.5 -21.999v-68c2 -20 12.999 -30.333 32.998 -31h97.9941c21.999 -2 41.6641 -7.5 58.9961 -16.5c17.333 -9 32.165 -20.833 44.4971 -35.5c12.333 -14.667 21.666 -31.167 27.999 -49.5
s9.49902 -37.833 9.49902 -58.5v-449c0 -32.667 8.16602 -61.334 24.499 -86.001c16.332 -24.667 37.1641 -43.667 62.4961 -57c9.33301 -4 13.499 -9.83301 12.499 -17.5s-5.16602 -13.5 -12.499 -17.5c-26.665 -12.667 -47.8301 -32.167 -63.4951 -58.5
c-15.666 -26.333 -23.499 -55.166 -23.499 -86.499v-548c0 -20 -3.16602 -39.333 -9.49902 -58s-15.666 -35.334 -27.999 -50.001c-12.332 -14.667 -27.1641 -26.5 -44.4971 -35.5c-17.332 -9 -36.9971 -14.5 -58.9961 -16.5h-99.9941
c-8.66602 0 -15.999 -2.66699 -21.998 -8c-6 -5.33301 -9 -13 -9 -23v-68z" />
    <glyph glyph-name="exclamdown" unicode="&#xa1;" horiz-adv-x="406" 
d="M261 -407c0 -9.33301 -3.16797 -17.167 -9.50098 -23.5s-14.166 -9.5 -23.499 -9.5h-64c-10.667 0 -19 3.16699 -25 9.5s-9 14.833 -9 25.5l-17 1028c0 10 3.16699 18 9.5 24s14.5 9 24.5 9h99c9.33301 0 17 -3 23 -9s9 -14 9 -24zM292.999 885.999
c-0.666992 -9.33301 -4.00098 -17.333 -10.001 -24s-13.667 -10 -23 -10h-125c-9.33301 0 -17.166 3.33301 -23.499 10s-9.5 14.667 -9.5 24l-2 135c0 9.33301 3 17.333 9 24s13.667 10 23 10h131c10 0 18 -3.33301 24 -10s9 -14.667 9 -24z" />
    <glyph glyph-name="sterling" unicode="&#xa3;" horiz-adv-x="1127" 
d="M1049 34c0 -9.33301 -3.00586 -17.3311 -9.00586 -23.998s-14.333 -10 -25 -10h-897c-8.66699 0.666992 -16.334 3.66699 -23.001 9s-10 12.666 -10 21.999l4 158c0 10.667 2.5 18.834 7.5 24.501s10.167 10.167 15.5 13.5c30.667 18 58.834 41.5 84.501 70.5
s46.834 61 63.501 96s27.667 72 33 111s3 77.5 -7 115.5c-2 10 -8.66699 15 -20 15h-140c-8.66699 0 -15.667 2.83301 -21 8.5s-8 13.167 -8 22.5v73c0 8 2.66699 14.5 8 19.5s12.666 7.5 21.999 7.5h56c8 0 13.833 3.83301 17.5 11.5s2.83398 14.167 -2.49902 19.5
c-11.333 16.667 -22.333 35.334 -33 56.001s-20 42.834 -28 66.501s-14.333 49 -19 76s-6.33398 55.5 -5.00098 85.5c2 64 16.5 119.667 43.5 167s61.833 86.666 104.5 117.999s90.834 54.666 144.501 69.999s107.834 23 162.501 23c54 0 105.833 -7.5 155.5 -22.5
s94.5 -37.5 134.5 -67.5s74.333 -67.5 103 -112.5s49.334 -97.5 62.001 -157.5c2.66699 -9.33301 0.166992 -17 -7.5 -23s-16.5 -9 -26.5 -9h-89c-11.333 0 -19.5 3.5 -24.5 10.5s-8.16699 13.833 -9.5 20.5c-7.33301 35.333 -19.333 67.666 -36 96.999
s-38.334 54.5 -65.001 75.5s-58.5 37.167 -95.5 48.5s-79.5 17 -127.5 17c-31.333 0 -63.666 -5.66699 -96.999 -17s-63.666 -28 -90.999 -50s-49.666 -49.333 -66.999 -82s-26 -70.334 -26 -113.001c0 -28.667 3.16699 -56.167 9.5 -82.5s14.833 -51.833 25.5 -76.5
s22.834 -48.667 36.501 -72l41.5 -68c4 -4.66699 9.66699 -7.66699 17 -9h270c7.33301 0 14 -2.16699 20 -6.5s9 -11.166 9 -20.499l1 -77c0 -8 -2.5 -14.333 -7.5 -19s-11.167 -7.33398 -18.5 -8.00098h-197c-13.333 0 -20 -8.66699 -20 -26
c5.33301 -42 5.33301 -83.667 0 -125s-14.833 -80.166 -28.5 -116.499s-31 -69.5 -52 -99.5s-44.5 -55 -70.5 -75c-6 -7.33301 -7.5 -14.333 -4.5 -21s8.83301 -10.334 17.5 -11.001h703c9.33301 0 17.333 -2.83301 24 -8.5s10 -13.5 10 -23.5z" />
    <glyph glyph-name="yen" unicode="&#xa5;" horiz-adv-x="1222" 
d="M909 617c-1.33301 -17.333 -10.332 -26.6689 -26.999 -28.002h-190l1 -98h187c8 0 14.667 -2.66699 20 -8s8.33301 -11.666 9 -18.999v-60c-0.666992 -7.33301 -3.33398 -13.666 -8.00098 -18.999s-11 -8.33301 -19 -9h-186l6 -342c0 -9.33301 -3.16699 -17.333 -9.5 -24
s-14.5 -10 -24.5 -10h-112c-10 -0 -18.167 3.33301 -24.5 10s-9.5 14.667 -9.5 24l5 342h-186c-8 0 -14.833 2.83301 -20.5 8.5s-8.5 12.167 -8.5 19.5v58c0 8 2.83301 14.833 8.5 20.5s12.5 8.5 20.5 8.5h189l1 98h-190c-8 0 -14.833 2.66699 -20.5 8s-8.5 12 -8.5 20v57
c0 8 2.83301 14.833 8.5 20.5s12.5 8.5 20.5 8.5h192v12c0 7.33301 -1.66699 13.666 -5 18.999l-438 676c-4 4.66699 -5.83301 9.83398 -5.5 15.501s2 11 5 16s7 9.16699 12 12.5s10.833 4.66602 17.5 3.99902h81c11.333 0 20.666 -5.33301 27.999 -16l359 -542
c6 -8.66699 13.667 -13 23 -13c12 0 20 4.66699 24 14l360 539c7.33301 11.333 17.333 17.333 30 18h82c14 0 23.667 -5.83301 29 -17.5s4.33301 -23.167 -3 -34.5l-436 -672c-1.33301 -3.33301 -2.66602 -6.5 -3.99902 -9.5s-2 -6.16699 -2 -9.5v-12h190
c8 0 14.667 -2.66699 20 -8s8.33301 -11.666 9 -18.999v-59z" />
    <glyph glyph-name="dieresis" unicode="&#xa8;" horiz-adv-x="520" 
d="M113 1259c-9.33301 0 -17.168 3 -23.501 9s-9.5 13.667 -9.5 23l2 136c0 9.33301 3 16.833 9 22.5s13.333 8.5 22 8.5h65c8.66699 0 16 -3 22 -9s9 -13.667 9 -23l3 -135c0 -9.33301 -3.16699 -17 -9.5 -23s-14.166 -9 -23.499 -9h-66zM394.998 1259
c-9.33301 0 -17.168 3 -23.501 9s-9.5 13.667 -9.5 23l2 136c0 9.33301 3 16.833 9 22.5s13.333 8.5 22 8.5h65c8.66699 0 16 -3 22 -9s9 -13.667 9 -23l3 -135c0 -9.33301 -3.16699 -17 -9.5 -23s-14.166 -9 -23.499 -9h-66z" />
    <glyph glyph-name="copyright" unicode="&#xa9;" horiz-adv-x="1661" 
d="M831 1480c68.667 0 134.834 -8.83301 198.501 -26.5s123.334 -42.834 179.001 -75.501s106.167 -71.667 151.5 -117s84.333 -95.833 117 -151.5s57.834 -115.334 75.501 -179.001s26.5 -129.834 26.5 -198.501c0 -69.333 -8.83301 -135.833 -26.5 -199.5
s-42.834 -123.167 -75.501 -178.5s-71.667 -105.666 -117 -150.999s-95.833 -84.333 -151.5 -117s-115.334 -57.834 -179.001 -75.501s-129.834 -26.5 -198.501 -26.5c-69.333 0 -135.833 8.83301 -199.5 26.5s-123.167 42.834 -178.5 75.501s-105.666 71.667 -150.999 117
s-84.333 95.666 -117 150.999s-57.834 114.833 -75.501 178.5s-26.5 130.167 -26.5 199.5c0 68.667 8.83301 134.834 26.5 198.501s42.834 123.334 75.501 179.001s71.667 106.167 117 151.5s95.666 84.333 150.999 117s114.833 57.834 178.5 75.501
s130.167 26.5 199.5 26.5zM831 107c57.333 0 112.665 7.5 165.998 22.5s103.166 36 149.499 63s88.5 59.5 126.5 97.5s70.5 80.167 97.5 126.5s48 96.166 63 149.499s22.5 108.666 22.5 165.999s-7.5 112.666 -22.5 165.999s-36 103.166 -63 149.499s-59.5 88.5 -97.5 126.5
s-80.167 70.5 -126.5 97.5s-96.166 48 -149.499 63s-108.666 22.5 -165.999 22.5c-58 0 -113.667 -7.5 -167 -22.5s-103.166 -36 -149.499 -63s-88.5 -59.5 -126.5 -97.5s-70.5 -80.167 -97.5 -126.5s-48 -96.166 -63 -149.499s-22.5 -108.666 -22.5 -165.999
s7.5 -112.666 22.5 -165.999s36 -103.166 63 -149.499s59.5 -88.5 97.5 -126.5s80.167 -70.5 126.5 -97.5s96.333 -48 150 -63s109.167 -22.5 166.5 -22.5zM1224 568c-12 -38 -29.8311 -73.832 -53.498 -107.499s-51.834 -62.834 -84.501 -87.501
s-69.5 -44.167 -110.5 -58.5s-85.167 -21.5 -132.5 -21.5c-60 0 -115.167 11 -165.5 33s-93.5 52.5 -129.5 91.5s-64.167 85.167 -84.5 138.5s-30.5 111.666 -30.5 174.999s10.167 121.833 30.5 175.5s48.833 100 85.5 139s80 69.5 130 91.5s104.667 33 164 33
c38 0 74.667 -5 110 -15s68.5 -24.667 99.5 -44s59.333 -43 85 -71s47.167 -59.667 64.5 -95c5.33301 -10 4.83301 -19 -1.5 -27s-14.166 -12 -23.499 -12h-76c-10.667 0 -19 5 -25 15c-22.667 44 -54.667 78.667 -96 104s-87 38 -137 38c-44 0 -83.833 -9 -119.5 -27
s-66 -42 -91 -72s-44.333 -64.5 -58 -103.5s-20.5 -79.833 -20.5 -122.5c0 -49.333 7.16699 -94 21.5 -134s34.333 -74.167 60 -102.5s56.167 -50.166 91.5 -65.499s74 -23 116 -23c56 0 106.5 15.167 151.5 45.5s79.833 73.5 104.5 129.5c5.33301 12 14.333 18 27 18h72
c11.333 0 19.166 -4 23.499 -12s5.16602 -16.667 2.49902 -26z" />
    <glyph glyph-name="guillemotleft" unicode="&#xab;" horiz-adv-x="863" 
d="M225 582c-6 -4.66699 -9.16797 -10.332 -9.50098 -16.999s2.83398 -12 9.50098 -16l184 -124c12.667 -8 19 -19 19 -33v-55c0 -11.333 -5 -19.833 -15 -25.5s-19.667 -5.83398 -29 -0.500977l-285 191c-6 3.33301 -11 7 -15 11s-6 10.667 -6 20v69
c0 6.66699 2 12.667 6 18s9 9.66602 15 12.999l285 167c10.667 6.66699 20.667 6.33398 30 -0.999023s14 -16.333 14 -27v-50c0 -13.333 -6.33301 -23.333 -19 -30zM574.999 582.002c-6 -4.66699 -9.16797 -10.333 -9.50098 -17s2.83398 -12 9.50098 -16l183 -124
c12.667 -8 19 -19 19 -33v-55c0 -11.333 -4.83301 -19.833 -14.5 -25.5s-19.167 -5.83398 -28.5 -0.500977l-286 191c-6 3.33301 -10.833 7 -14.5 11s-5.5 10.667 -5.5 20v69c0 12.667 6.66699 23 20 31l286 167c10.667 6.66699 20.5 6.33398 29.5 -0.999023
s13.5 -16.333 13.5 -27v-50c0 -13.333 -6.33301 -23.333 -19 -30z" />
    <glyph glyph-name="registered" unicode="&#xae;" horiz-adv-x="724" 
d="M363 1458c38.667 0 74.834 -7.16699 108.501 -21.5s63 -34.166 88 -59.499s44.833 -55 59.5 -89s22 -70.667 22 -110c0 -38.667 -7.33301 -74.834 -22 -108.501s-34.5 -63 -59.5 -88s-54.333 -44.667 -88 -59s-69.834 -21.5 -108.501 -21.5s-75 7.16699 -109 21.5
s-63.667 34 -89 59s-45.333 54.333 -60 88s-22 69.834 -22 108.501c0 39.333 7.33301 76 22 110s34.667 63.667 60 89s55 45.166 89 59.499s70.333 21.5 109 21.5zM363 981c26.667 0 52 5.16699 76 15.5s45 24.5 63 42.5s32.333 38.833 43 62.5s16 49.167 16 76.5
c0 28 -5.33301 54 -16 78s-25 45 -43 63s-39 32.167 -63 42.5s-49.333 15.5 -76 15.5c-27.333 0 -53 -5.16699 -77 -15.5s-45 -24.5 -63 -42.5s-32.167 -39 -42.5 -63s-15.5 -50 -15.5 -78c0 -27.333 5.16699 -52.833 15.5 -76.5s24.5 -44.5 42.5 -62.5s39 -32.167 63 -42.5
s49.667 -15.5 77 -15.5zM479 1067c2 -1.33301 2.33398 -3.1709 1.00098 -5.50391s-3.33301 -3.5 -6 -3.5h-39c-2.66699 0 -4.33398 0.333008 -5.00098 1l-76 93c-0.666992 1.33301 -2.33398 2 -5.00098 2h-35c-2.66699 0 -4 -1.66699 -4 -5l1 -85c0 -4 -2 -6 -6 -6h-36
c-0.666992 0 -1.66699 0.333008 -3 1s-2 2.33398 -2 5.00098l4 240c0 4.66699 2.33301 7 7 7h107c10 0 19.667 -2.16699 29 -6.5s17.833 -10.166 25.5 -17.499s13.667 -15.666 18 -24.999s6.5 -19.333 6.5 -30c0 -16 -5.66699 -30.667 -17 -44s-24.333 -21.666 -39 -24.999
c-1.33301 0 -2.16602 -0.5 -2.49902 -1.5s0.166992 -2.16699 1.5 -3.5zM371.001 1193c13.333 0 24.333 3.33105 33 9.99805s13 16.334 13 29.001s-4.5 22.834 -13.5 30.501s-20.167 11.5 -33.5 11.5h-58c-3.33301 0 -5 -1.66699 -5 -5l1 -71c0 -3.33301 1.66699 -5 5 -5h58z
" />
    <glyph glyph-name="degree" unicode="&#xb0;" horiz-adv-x="724" 
d="M363 1458c38.667 0 74.834 -7.16699 108.501 -21.5s63 -34.166 88 -59.499s44.833 -55 59.5 -89s22 -70.667 22 -110c0 -38.667 -7.33301 -74.834 -22 -108.501s-34.5 -63 -59.5 -88s-54.333 -44.667 -88 -59s-69.834 -21.5 -108.501 -21.5s-75 7.16699 -109 21.5
s-63.667 34 -89 59s-45.333 54.333 -60 88s-22 69.834 -22 108.501c0 39.333 7.33301 76 22 110s34.667 63.667 60 89s55 45.166 89 59.499s70.333 21.5 109 21.5zM363 1006c24 0 46.5 4.5 67.5 13.5s39.333 21.333 55 37s28 33.834 37 54.501s13.5 43 13.5 67
c0 24.667 -4.5 47.5 -13.5 68.5s-21.333 39.333 -37 55s-34 28 -55 37s-43.5 13.5 -67.5 13.5s-46.5 -4.5 -67.5 -13.5s-39.333 -21.333 -55 -37s-28 -34 -37 -55s-13.5 -43.833 -13.5 -68.5c0 -24 4.5 -46.333 13.5 -67s21.333 -38.834 37 -54.501s34 -28 55 -37
s43.5 -13.5 67.5 -13.5z" />
    <glyph glyph-name="acute" unicode="&#xb4;" horiz-adv-x="428" 
d="M139 1196c-6 -7.33301 -12.667 -11.001 -20 -11.001s-13.833 2 -19.5 6s-9.5 9.83301 -11.5 17.5s-0.666992 15.834 4 24.501l124 208c5.33301 9.33301 15.333 15 30 17h76c7.33301 0 13.333 -1.83301 18 -5.5s8 -8.16699 10 -13.5s2.5 -11 1.5 -17s-3.5 -11 -7.5 -15z
" />
    <glyph glyph-name="paragraph" unicode="&#xb6;" horiz-adv-x="1094" 
d="M568 -440l0.000976562 898c-58 0 -116.333 10.833 -175 32.5s-111.834 52.167 -159.501 91.5s-86.334 86.833 -116.001 142.5s-44.5 117.5 -44.5 185.5c0 44.667 4 89 12 133s21.333 86.333 40 127s43.834 78.5 75.501 113.5s71.167 65.5 118.5 91.5
s103.5 46.333 168.5 61s140.167 22 225.5 22h293v-1898h-137v1740h-170v-1740h-131z" />
    <glyph glyph-name="cedilla" unicode="&#xb8;" horiz-adv-x="479" 
d="M310 -13c-7.33301 -0.666992 -13.668 -2.5 -19.001 -5.5s-8 -8.5 -8 -16.5l1 -54c0 -8.66699 4.66699 -15 14 -19c28 -11.333 51.833 -30.666 71.5 -57.999s29.5 -59.666 29.5 -96.999c0 -26 -3.83301 -49.833 -11.5 -71.5s-18.667 -40.334 -33 -56.001
s-31.666 -27.834 -51.999 -36.501s-42.833 -13 -67.5 -13c-19.333 0 -37.833 3.16699 -55.5 9.5s-33.667 15.333 -48 27s-26.333 25.667 -36 42s-15.834 34.5 -18.501 54.5c0 14.667 6.66699 22 20 22h46c10.667 0 17.667 -4.66699 21 -14
c4.66699 -17.333 13.5 -31 26.5 -41s27.833 -15 44.5 -15c14.667 0 26.834 2.83301 36.501 8.5s17.5 12.834 23.5 21.501s10.167 18.5 12.5 29.5s3.5 21.833 3.5 32.5c0 22.667 -5.83301 42.834 -17.5 60.501s-30.167 26.5 -55.5 26.5c-10 0.666992 -17.667 -1 -23 -5
s-11.333 -6 -18 -6c-5.33301 0 -9.83301 2.16699 -13.5 6.5s-5.5 9.16602 -5.5 14.499l4 137c0.666992 8 -2.33301 13.167 -9 15.5s-12.667 4.16602 -18 5.49902l14 29h127z" />
    <glyph glyph-name="guillemotright" unicode="&#xbb;" horiz-adv-x="924" 
d="M694.014 582c6 -4.66699 9.16699 -10.332 9.5 -16.999s-2.83398 -12 -9.5 -16l-183.988 -124c-12.666 -8 -18.999 -19 -18.999 -33v-55c0 -11.333 5 -19.833 14.999 -25.5s19.665 -5.83398 28.998 -0.500977l284.982 191c6 3.33301 11 7 14.999 11c4 4 6 10.667 6 20v69
c0 6.66699 -2 12.667 -6 18c-3.99902 5.33301 -8.99902 9.66602 -14.999 12.999l-284.982 167c-10.666 6.66699 -20.665 6.33398 -29.998 -0.999023s-13.999 -16.333 -13.999 -27v-50c0 -13.333 6.33301 -23.333 18.999 -30zM344.035 582.002
c5.99902 -4.66699 9.16602 -10.333 9.49902 -17s-2.83301 -12 -9.49902 -16l-182.989 -124c-12.665 -8 -18.998 -19 -18.998 -33v-55c0 -11.333 4.83301 -19.833 14.499 -25.5s19.165 -5.83398 28.498 -0.500977l285.982 191c5.99902 3.33301 10.832 7 14.499 11
s5.5 10.667 5.5 20v69c0 12.667 -6.66602 23 -19.999 31l-285.982 167c-10.666 6.66699 -20.499 6.33398 -29.498 -0.999023s-13.499 -16.333 -13.499 -27v-50c0 -13.333 6.33301 -23.333 18.998 -30z" />
    <glyph glyph-name="questiondown" unicode="&#xbf;" horiz-adv-x="1107" 
d="M220 -6c0 -44 8.49902 -83.333 25.499 -118s40.167 -64 69.5 -88s63.166 -42.167 101.499 -54.5s79.166 -18.5 122.499 -18.5c36.667 0 72.667 5.5 108 16.5s67.833 27 97.5 48s55.334 46.333 77.001 76s37.167 63.5 46.5 101.5c2.66699 10 6.83398 18.333 12.501 25
s13.167 10 22.5 10h91c4.66699 0 9.5 -0.5 14.5 -1.5s9.16699 -3 12.5 -6s5.5 -7.16699 6.5 -12.5s0.5 -12.666 -1.5 -21.999c-16 -64.667 -41 -120.334 -75 -167.001s-73.5 -85.167 -118.5 -115.5s-94 -52.833 -147 -67.5s-106.833 -22 -161.5 -22
c-63.333 0 -122.166 10.167 -176.499 30.5s-101.833 48.833 -142.5 85.5s-72.5 80.667 -95.5 132s-34.5 108.333 -34.5 171c0 43.333 5.66699 83 17 119s26.833 69 46.5 99s42.5 57.5 68.5 82.5s53.833 48.333 83.5 70s60.334 42.167 92.001 61.5l92.5 58
c6.66699 4 10 9.66699 10 17l-2 120c0 10 3 18 9 24s13.667 9.33301 23 10h97c11.333 0 20.166 -3.16699 26.499 -9.5s9.5 -14.5 9.5 -24.5l-3 -177c0 -14 -6 -24.333 -18 -31l-157 -97c-49.333 -31.333 -92.5 -63.833 -129.5 -97.5s-66.333 -69 -88 -106
s-32.5 -77.5 -32.5 -121.5zM619.999 886c-0.666992 -9.33301 -4.00098 -17.333 -10.001 -24s-13.667 -10 -23 -10h-125c-9.33301 0 -17.166 3.33301 -23.499 10s-9.5 14.667 -9.5 24l-2 135c0 9.33301 3 17.333 9 24s13.667 10 23 10h131c10 0 18 -3.33301 24 -10
s9 -14.667 9 -24z" />
    <glyph glyph-name="Agrave" unicode="&#xc0;" horiz-adv-x="1396" 
d="M1350 42c4.66699 -11.333 3.50195 -20.998 -3.49805 -28.998s-15.167 -12.333 -24.5 -13h-109c-16.667 0 -27.334 8.33301 -32.001 25l-147 402c-6 16.667 -18 25 -36 25h-559c-16.667 0 -28.334 -7.66699 -35.001 -23l-151 -406
c-5.33301 -14.667 -15.333 -22.334 -30 -23.001h-108c-13.333 0 -22.666 4.33301 -27.999 13s-5.33301 19.667 0 33l564 1394c2 5.33301 5.16699 9.66602 9.5 12.999s10.166 5 17.499 5h80c14.667 0 24.667 -7 30 -21zM956.002 639.002l-210.999 573.002
c-2.66699 7.33301 -6.5 12.666 -11.5 15.999s-10.167 5 -15.5 5s-10.333 -1.83301 -15 -5.5s-8 -8.83398 -10 -15.501l-211 -573c-4 -11.333 -3.33301 -20.166 2 -26.499s13.666 -9.5 24.999 -9.5h420c11.333 0 19.5 3.66699 24.5 11s5.83301 15.666 2.5 24.999z
M516.003 1793c-4.66699 4.66699 -7.16699 9.83301 -7.5 15.5s0.666992 11.167 3 16.5s6 9.83301 11 13.5s10.5 5.5 16.5 5.5h75c14.667 -2 24.667 -7.66699 30 -17l124 -208c4.66699 -8.66699 6 -16.667 4 -24s-5.83301 -13 -11.5 -17s-12.167 -6 -19.5 -6
s-14 3.33301 -20 10z" />
    <glyph glyph-name="Aacute" unicode="&#xc1;" horiz-adv-x="1396" 
d="M1350 42c4.66699 -11.333 3.50195 -20.998 -3.49805 -28.998s-15.167 -12.333 -24.5 -13h-109c-16.667 0 -27.334 8.33301 -32.001 25l-147 402c-6 16.667 -18 25 -36 25h-559c-16.667 0 -28.334 -7.66699 -35.001 -23l-151 -406
c-5.33301 -14.667 -15.333 -22.334 -30 -23.001h-108c-13.333 0 -22.666 4.33301 -27.999 13s-5.33301 19.667 0 33l564 1394c2 5.33301 5.16699 9.66602 9.5 12.999s10.166 5 17.499 5h80c14.667 0 24.667 -7 30 -21zM956.002 639.002l-210.999 573.002
c-2.66699 7.33301 -6.5 12.666 -11.5 15.999s-10.167 5 -15.5 5s-10.333 -1.83301 -15 -5.5s-8 -8.83398 -10 -15.501l-211 -573c-4 -11.333 -3.33301 -20.166 2 -26.499s13.666 -9.5 24.999 -9.5h420c11.333 0 19.5 3.66699 24.5 11s5.83301 15.666 2.5 24.999z
M723.003 1583c-6 -7.33301 -12.667 -11.001 -20 -11.001s-13.833 2 -19.5 6s-9.5 9.83301 -11.5 17.5s-0.666992 15.834 4 24.501l124 208c5.33301 9.33301 15.333 15 30 17h76c7.33301 0 13.333 -1.83301 18 -5.5s8 -8.16699 10 -13.5s2.5 -11 1.5 -17s-3.5 -11 -7.5 -15z
" />
    <glyph glyph-name="Acircumflex" unicode="&#xc2;" horiz-adv-x="1396" 
d="M1350 42c4.66699 -11.333 3.50195 -20.998 -3.49805 -28.998s-15.167 -12.333 -24.5 -13h-109c-16.667 0 -27.334 8.33301 -32.001 25l-147 402c-6 16.667 -18 25 -36 25h-559c-16.667 0 -28.334 -7.66699 -35.001 -23l-151 -406
c-5.33301 -14.667 -15.333 -22.334 -30 -23.001h-108c-13.333 0 -22.666 4.33301 -27.999 13s-5.33301 19.667 0 33l564 1394c2 5.33301 5.16699 9.66602 9.5 12.999s10.166 5 17.499 5h80c14.667 0 24.667 -7 30 -21zM956.002 639.002l-210.999 573.002
c-2.66699 7.33301 -6.5 12.666 -11.5 15.999s-10.167 5 -15.5 5s-10.333 -1.83301 -15 -5.5s-8 -8.83398 -10 -15.501l-211 -573c-4 -11.333 -3.33301 -20.166 2 -26.499s13.666 -9.5 24.999 -9.5h420c11.333 0 19.5 3.66699 24.5 11s5.83301 15.666 2.5 24.999z
M949.003 1623c10.667 -10.667 13.5039 -21.833 8.50391 -33.5s-14.5 -17.5 -28.5 -17.5h-75c-12.667 0 -22.334 5.33301 -29.001 16l-120 196c-2.66699 5.33301 -6.5 7.83301 -11.5 7.5s-8.5 -2.83301 -10.5 -7.5l-120 -196c-6.66699 -10.667 -17 -16 -31 -16h-74
c-15.333 0 -24.833 6 -28.5 18s-0.833984 23 8.49902 33l199 208c7.33301 8.66699 16.666 13 27.999 13h58c9.33301 0 17.666 -4.33301 24.999 -13z" />
    <glyph glyph-name="Atilde" unicode="&#xc3;" horiz-adv-x="1396" 
d="M1350 42c4.66699 -11.333 3.50195 -20.998 -3.49805 -28.998s-15.167 -12.333 -24.5 -13h-109c-16.667 0 -27.334 8.33301 -32.001 25l-147 402c-6 16.667 -18 25 -36 25h-559c-16.667 0 -28.334 -7.66699 -35.001 -23l-151 -406
c-5.33301 -14.667 -15.333 -22.334 -30 -23.001h-108c-13.333 0 -22.666 4.33301 -27.999 13s-5.33301 19.667 0 33l564 1394c2 5.33301 5.16699 9.66602 9.5 12.999s10.166 5 17.499 5h80c14.667 0 24.667 -7 30 -21zM956.002 639.002l-210.999 573.002
c-2.66699 7.33301 -6.5 12.666 -11.5 15.999s-10.167 5 -15.5 5s-10.333 -1.83301 -15 -5.5s-8 -8.83398 -10 -15.501l-211 -573c-4 -11.333 -3.33301 -20.166 2 -26.499s13.666 -9.5 24.999 -9.5h420c11.333 0 19.5 3.66699 24.5 11s5.83301 15.666 2.5 24.999z
M946.003 1712c-0.666992 -22 -5 -42.668 -13 -62.001s-18.833 -36.166 -32.5 -50.499s-29.834 -25.5 -48.501 -33.5s-38.334 -12 -59.001 -12c-26 0 -48.333 4.83301 -67 14.5s-36 20.5 -52 32.5s-32.5 22.833 -49.5 32.5s-37.167 14.5 -60.5 14.5
c-27.333 0 -51.666 -7.16699 -72.999 -21.5s-40 -32.166 -56 -53.499c-5.33301 -5.33301 -12.166 -7.16602 -20.499 -5.49902s-12.5 6.5 -12.5 14.5c0 22 3.83301 43 11.5 63s18.5 37.833 32.5 53.5s30.833 28 50.5 37s41.5 13.5 65.5 13.5c26 0 47.167 -4.83301 63.5 -14.5
s32 -20.167 47 -31.5s31.5 -21.833 49.5 -31.5s41.667 -14.5 71 -14.5c27.333 0 50.833 6.83301 70.5 20.5s36.834 28.167 51.501 43.5c2 3.33301 4.83301 5.66602 8.5 6.99902s7.16699 1.5 10.5 0.5s6.16602 -2.83301 8.49902 -5.5s3.5 -6.33398 3.5 -11.001z" />
    <glyph glyph-name="Adieresis" unicode="&#xc4;" horiz-adv-x="1396" 
d="M1350 42c4.66699 -11.333 3.50195 -20.998 -3.49805 -28.998s-15.167 -12.333 -24.5 -13h-109c-16.667 0 -27.334 8.33301 -32.001 25l-147 402c-6 16.667 -18 25 -36 25h-559c-16.667 0 -28.334 -7.66699 -35.001 -23l-151 -406
c-5.33301 -14.667 -15.333 -22.334 -30 -23.001h-108c-13.333 0 -22.666 4.33301 -27.999 13s-5.33301 19.667 0 33l564 1394c2 5.33301 5.16699 9.66602 9.5 12.999s10.166 5 17.499 5h80c14.667 0 24.667 -7 30 -21zM956.002 639.002l-210.999 573.002
c-2.66699 7.33301 -6.5 12.666 -11.5 15.999s-10.167 5 -15.5 5s-10.333 -1.83301 -15 -5.5s-8 -8.83398 -10 -15.501l-211 -573c-4 -11.333 -3.33301 -20.166 2 -26.499s13.666 -9.5 24.999 -9.5h420c11.333 0 19.5 3.66699 24.5 11s5.83301 15.666 2.5 24.999z
M555.003 1573c-9.33301 0 -17.168 3 -23.501 9s-9.5 13.667 -9.5 23l2 136c0 9.33301 3 16.833 9 22.5s13.333 8.5 22 8.5h65c8.66699 0 16 -3 22 -9s9 -13.667 9 -23l3 -135c0 -9.33301 -3.16699 -17 -9.5 -23s-14.166 -9 -23.499 -9h-66zM838.001 1573
c-9.33301 0 -17.168 3 -23.501 9s-9.5 13.667 -9.5 23l2 136c0 9.33301 3 16.833 9 22.5s13.333 8.5 22 8.5h65c8.66699 0 16 -3 22 -9s9 -13.667 9 -23l3 -135c0 -9.33301 -3.16699 -17 -9.5 -23s-14.166 -9 -23.499 -9h-66z" />
    <glyph glyph-name="Aring" unicode="&#xc5;" horiz-adv-x="1396" 
d="M1350 42c4.66699 -11.333 3.50195 -20.998 -3.49805 -28.998s-15.167 -12.333 -24.5 -13h-109c-16.667 0 -27.334 8.33301 -32.001 25l-147 402c-6 16.667 -18 25 -36 25h-559c-16.667 0 -28.334 -7.66699 -35.001 -23l-151 -406
c-5.33301 -14.667 -15.333 -22.334 -30 -23.001h-108c-13.333 0 -22.666 4.33301 -27.999 13s-5.33301 19.667 0 33l564 1394c2 5.33301 5.16699 9.66602 9.5 12.999s10.166 5 17.499 5h80c14.667 0 24.667 -7 30 -21zM956.002 639.002l-210.999 573.002
c-2.66699 7.33301 -6.5 12.666 -11.5 15.999s-10.167 5 -15.5 5s-10.333 -1.83301 -15 -5.5s-8 -8.83398 -10 -15.501l-211 -573c-4 -11.333 -3.33301 -20.166 2 -26.499s13.666 -9.5 24.999 -9.5h420c11.333 0 19.5 3.66699 24.5 11s5.83301 15.666 2.5 24.999z
M731.003 1892c26 0 50 -4.83301 72 -14.5s41.167 -22.667 57.5 -39s29.166 -35.666 38.499 -57.999s14 -45.833 14 -70.5c0 -25.333 -4.66699 -48.833 -14 -70.5s-22.166 -40.667 -38.499 -57s-35.5 -29.166 -57.5 -38.499s-46 -14 -72 -14c-24.667 0 -48 4.66699 -70 14
s-41.167 22.166 -57.5 38.499s-29.333 35.333 -39 57s-14.5 45.167 -14.5 70.5c0 24.667 4.83301 48.167 14.5 70.5s22.667 41.666 39 57.999s35.5 29.333 57.5 39s45.333 14.5 70 14.5zM731.003 1612c31.333 0 55.833 8.83301 73.5 26.5s26.5 41.5 26.5 71.5
c0 31.333 -8.83301 55.666 -26.5 72.999s-42.167 26 -73.5 26c-30 0 -53.833 -8.66699 -71.5 -26s-26.5 -41.666 -26.5 -72.999c0 -30 8.83301 -53.833 26.5 -71.5s41.5 -26.5 71.5 -26.5z" />
    <glyph glyph-name="AE" unicode="&#xc6;" horiz-adv-x="1682" 
d="M1601 33c0 -10 -3.16602 -17.999 -9.49902 -23.999s-14.166 -9 -23.499 -9h-639c-17.333 0 -27.666 8.33301 -30.999 25l-77 405c-2.66699 14.667 -13.334 22 -32.001 22h-350c-7.33301 0 -13.833 -1.83301 -19.5 -5.5s-9.83398 -9.16699 -12.501 -16.5l-153 -408
c-1.33301 -6.66699 -5 -12 -11 -16s-12 -6 -18 -6h-108c-13.333 0 -22.833 4 -28.5 12s-5.83398 18.667 -0.500977 32l568 1396c2 5.33301 5.16699 9.66602 9.5 12.999s10.166 5 17.499 5h842c9.33301 0 16.333 -2.66699 21 -8s7 -12.333 7 -21l2 -85
c0.666992 -20 -8.66602 -30 -27.999 -30h-672c-12 -0.666992 -19.833 -3.5 -23.5 -8.5s-5.16699 -11.167 -4.5 -18.5l80 -416c1.33301 -5.33301 3.83301 -10 7.5 -14s11.167 -6 22.5 -6l529 -2c8 0 14.667 -2.66699 20 -8s8 -12.333 8 -21l1 -87
c0 -8.66699 -2.5 -15.667 -7.5 -21s-11.5 -8 -19.5 -8h-494c-8 0 -15.333 -2 -22 -6s-9 -10.333 -7 -19l95 -495c2.66699 -16 12 -24 28 -24h495c11.333 0 20.333 -2.5 27 -7.5s10 -12.167 10 -21.5zM775.001 599.001c10.667 0 16.333 3.5 17 10.5s0.666992 15.167 0 24.5
l-78 549c-1.33301 6.66699 -3.83301 11.667 -7.5 15s-8 5 -13 5s-9.83301 -1.66699 -14.5 -5s-8 -8.33301 -10 -15l-185 -550c-8 -22.667 -1.66699 -34 19 -34h272z" />
    <glyph glyph-name="Ccedilla" unicode="&#xc7;" horiz-adv-x="1514" 
d="M822 -12c-5.33301 0 -10.5088 -0.995117 -15.5088 -2.99512s-7.83301 -6.33301 -8.5 -13c-0.666992 -6 -1.16699 -13.833 -1.5 -23.5s-0.5 -20.5 -0.5 -32.5c0 -6.66699 1 -11.667 3 -15s6 -6.33301 12 -9c14 -5.33301 27 -12.833 39 -22.5s22.667 -21.334 32 -35.001
s16.666 -28.667 21.999 -45s8 -33.833 8 -52.5c0 -26 -3.83301 -49.833 -11.5 -71.5s-18.667 -40.334 -33 -56.001s-31.666 -27.834 -51.999 -36.501s-42.833 -13 -67.5 -13c-19.333 0 -37.833 3.16699 -55.5 9.5s-33.667 15.333 -48 27s-26.333 25.667 -36 42
s-15.834 34.5 -18.501 54.5c-1.33301 14.667 5.33398 22 20.001 22h46c10.667 0 17.667 -4.66699 21 -14c4 -17.333 12.667 -31 26 -41s28.333 -15 45 -15c14.667 0 26.834 2.83301 36.501 8.5s17.334 12.834 23.001 21.501s9.66699 18.5 12 29.5s3.5 21.833 3.5 32.5
c0 22.667 -5.66699 42.834 -17 60.501s-29.666 26.5 -54.999 26.5c-10.667 0.666992 -18.5 -1 -23.5 -5s-10.833 -6 -17.5 -6c-5.33301 0 -9.83301 2.16699 -13.5 6.5s-5.5 9.16602 -5.5 14.499l4 130c0.666992 10 -1.66602 17 -6.99902 21s-11.666 6.66699 -18.999 8
c-92 12 -174.5 40.333 -247.5 85s-134.833 100 -185.5 166s-89.5 140.333 -116.5 223s-40.5 168.334 -40.5 257.001c0 105.333 16.333 203.833 49 295.5s79.334 171.5 140.001 239.5s133.667 121.667 219 161s180.666 59 285.999 59c76 0 147.167 -10.5 213.5 -31.5
s126.333 -49.833 180 -86.5s100.5 -79.834 140.5 -129.501s71.667 -103.5 95 -161.5c5.33301 -13.333 4.83301 -25 -1.5 -35s-16.166 -15 -29.499 -15h-88c-9.33301 0 -16.666 2 -21.999 6s-10.333 10.333 -15 19c-24 44 -51.5 84 -82.5 120s-66 67 -105 93
s-82.167 46.167 -129.5 60.5s-99.333 21.5 -156 21.5c-76.667 0 -147.667 -15.167 -213 -45.5s-121.833 -72 -169.5 -125s-85 -115.833 -112 -188.5s-40.5 -151.334 -40.5 -236.001c0 -86.667 13.833 -167.334 41.5 -242.001s65.5 -139.5 113.5 -194.5
s104.5 -98.167 169.5 -129.5s135.167 -47 210.5 -47c58.667 0 113.334 9.33301 164.001 28s96.834 44.167 138.501 76.5s78.667 70.666 111 114.999s59.166 92.166 80.499 143.499c3.33301 7.33301 7.5 13.666 12.5 18.999s12.5 8 22.5 8h99c8 0 14.333 -1.83301 19 -5.5
s8.16699 -8.16699 10.5 -13.5s3.33301 -11.166 3 -17.499s-1.5 -12.5 -3.5 -18.5c-31.333 -88.667 -70.666 -163.167 -117.999 -223.5s-98.5 -109.166 -153.5 -146.499s-111.667 -64.5 -170 -81.5s-113.833 -26.167 -166.5 -27.5z" />
    <glyph glyph-name="Egrave" unicode="&#xc8;" horiz-adv-x="1162" 
d="M1059 34c0 -10 -3.33496 -18.166 -10.002 -24.499s-14.667 -9.5 -24 -9.5h-904c-10 0 -18.167 3.33301 -24.5 10s-9.5 14.667 -9.5 24l24 1390c0 9.33301 2.83301 17.333 8.5 24s13.167 10 22.5 10h861c8.66699 0 15.667 -2.83301 21 -8.5s8 -12.5 8 -20.5l1 -85
c0 -8 -2.16699 -15 -6.5 -21s-11.166 -9 -20.499 -9h-732c-9.33301 -0.666992 -16.333 -3.83398 -21 -9.50098s-7 -12.5 -7 -20.5l7 -406c0 -8.66699 2.66699 -15.667 8 -21s12 -8 20 -8h661c8 0 14.833 -2.66699 20.5 -8s8.5 -12.333 8.5 -21l1 -86
c0 -8.66699 -2.83301 -15.834 -8.5 -21.501s-12.5 -8.5 -20.5 -8.5h-657c-9.33301 0 -16.5 -2.66699 -21.5 -8s-7.5 -12.333 -7.5 -21l8 -488c0 -7.33301 2.66699 -13.666 8 -18.999s12 -8 20 -8h728c10 0 18.333 -2.5 25 -7.5s10.334 -12.167 11.001 -21.5zM412.998 1793
c-4.66699 4.66699 -7.16699 9.83301 -7.5 15.5s0.666992 11.167 3 16.5s6 9.83301 11 13.5s10.5 5.5 16.5 5.5h75c14.667 -2 24.667 -7.66699 30 -17l124 -208c4.66699 -8.66699 6 -16.667 4 -24s-5.83301 -13 -11.5 -17s-12.167 -6 -19.5 -6s-14 3.33301 -20 10z" />
    <glyph glyph-name="Eacute" unicode="&#xc9;" horiz-adv-x="1162" 
d="M1059 34c0 -10 -3.33496 -18.166 -10.002 -24.499s-14.667 -9.5 -24 -9.5h-904c-10 0 -18.167 3.33301 -24.5 10s-9.5 14.667 -9.5 24l24 1390c0 9.33301 2.83301 17.333 8.5 24s13.167 10 22.5 10h861c8.66699 0 15.667 -2.83301 21 -8.5s8 -12.5 8 -20.5l1 -85
c0 -8 -2.16699 -15 -6.5 -21s-11.166 -9 -20.499 -9h-732c-9.33301 -0.666992 -16.333 -3.83398 -21 -9.50098s-7 -12.5 -7 -20.5l7 -406c0 -8.66699 2.66699 -15.667 8 -21s12 -8 20 -8h661c8 0 14.833 -2.66699 20.5 -8s8.5 -12.333 8.5 -21l1 -86
c0 -8.66699 -2.83301 -15.834 -8.5 -21.501s-12.5 -8.5 -20.5 -8.5h-657c-9.33301 0 -16.5 -2.66699 -21.5 -8s-7.5 -12.333 -7.5 -21l8 -488c0 -7.33301 2.66699 -13.666 8 -18.999s12 -8 20 -8h728c10 0 18.333 -2.5 25 -7.5s10.334 -12.167 11.001 -21.5zM633.998 1583
c-6 -7.33301 -12.667 -11.001 -20 -11.001s-13.833 2 -19.5 6s-9.5 9.83301 -11.5 17.5s-0.666992 15.834 4 24.501l124 208c5.33301 9.33301 15.333 15 30 17h76c7.33301 0 13.333 -1.83301 18 -5.5s8 -8.16699 10 -13.5s2.5 -11 1.5 -17s-3.5 -11 -7.5 -15z" />
    <glyph glyph-name="Ecircumflex" unicode="&#xca;" horiz-adv-x="1162" 
d="M1059 34c0 -10 -3.33496 -18.166 -10.002 -24.499s-14.667 -9.5 -24 -9.5h-904c-10 0 -18.167 3.33301 -24.5 10s-9.5 14.667 -9.5 24l24 1390c0 9.33301 2.83301 17.333 8.5 24s13.167 10 22.5 10h861c8.66699 0 15.667 -2.83301 21 -8.5s8 -12.5 8 -20.5l1 -85
c0 -8 -2.16699 -15 -6.5 -21s-11.166 -9 -20.499 -9h-732c-9.33301 -0.666992 -16.333 -3.83398 -21 -9.50098s-7 -12.5 -7 -20.5l7 -406c0 -8.66699 2.66699 -15.667 8 -21s12 -8 20 -8h661c8 0 14.833 -2.66699 20.5 -8s8.5 -12.333 8.5 -21l1 -86
c0 -8.66699 -2.83301 -15.834 -8.5 -21.501s-12.5 -8.5 -20.5 -8.5h-657c-9.33301 0 -16.5 -2.66699 -21.5 -8s-7.5 -12.333 -7.5 -21l8 -488c0 -7.33301 2.66699 -13.666 8 -18.999s12 -8 20 -8h728c10 0 18.333 -2.5 25 -7.5s10.334 -12.167 11.001 -21.5zM844.998 1623
c10.667 -10.667 13.5039 -21.833 8.50391 -33.5s-14.5 -17.5 -28.5 -17.5h-75c-12.667 0 -22.334 5.33301 -29.001 16l-120 196c-2.66699 5.33301 -6.5 7.83301 -11.5 7.5s-8.5 -2.83301 -10.5 -7.5l-120 -196c-6.66699 -10.667 -17 -16 -31 -16h-74
c-15.333 0 -24.833 6 -28.5 18s-0.833984 23 8.49902 33l199 208c7.33301 8.66699 16.666 13 27.999 13h58c9.33301 0 17.666 -4.33301 24.999 -13z" />
    <glyph glyph-name="Edieresis" unicode="&#xcb;" horiz-adv-x="1162" 
d="M1059 34c0 -10 -3.33496 -18.166 -10.002 -24.499s-14.667 -9.5 -24 -9.5h-904c-10 0 -18.167 3.33301 -24.5 10s-9.5 14.667 -9.5 24l24 1390c0 9.33301 2.83301 17.333 8.5 24s13.167 10 22.5 10h861c8.66699 0 15.667 -2.83301 21 -8.5s8 -12.5 8 -20.5l1 -85
c0 -8 -2.16699 -15 -6.5 -21s-11.166 -9 -20.499 -9h-732c-9.33301 -0.666992 -16.333 -3.83398 -21 -9.50098s-7 -12.5 -7 -20.5l7 -406c0 -8.66699 2.66699 -15.667 8 -21s12 -8 20 -8h661c8 0 14.833 -2.66699 20.5 -8s8.5 -12.333 8.5 -21l1 -86
c0 -8.66699 -2.83301 -15.834 -8.5 -21.501s-12.5 -8.5 -20.5 -8.5h-657c-9.33301 0 -16.5 -2.66699 -21.5 -8s-7.5 -12.333 -7.5 -21l8 -488c0 -7.33301 2.66699 -13.666 8 -18.999s12 -8 20 -8h728c10 0 18.333 -2.5 25 -7.5s10.334 -12.167 11.001 -21.5zM434.998 1573
c-9.33301 0 -17.168 3 -23.501 9s-9.5 13.667 -9.5 23l2 136c0 9.33301 3 16.833 9 22.5s13.333 8.5 22 8.5h65c8.66699 0 16 -3 22 -9s9 -13.667 9 -23l3 -135c0 -9.33301 -3.16699 -17 -9.5 -23s-14.166 -9 -23.499 -9h-66zM717.996 1573c-9.33301 0 -17.168 3 -23.501 9
s-9.5 13.667 -9.5 23l2 136c0 9.33301 3 16.833 9 22.5s13.333 8.5 22 8.5h65c8.66699 0 16 -3 22 -9s9 -13.667 9 -23l3 -135c0 -9.33301 -3.16699 -17 -9.5 -23s-14.166 -9 -23.499 -9h-66z" />
    <glyph glyph-name="Igrave" unicode="&#xcc;" horiz-adv-x="502" 
d="M172 34l24.001 1391c0 9.33301 3.16699 17.166 9.5 23.499s14.166 9.5 23.499 9.5h67c9.33301 0 17 -3.16699 23 -9.5s9 -14.166 9 -23.499l24 -1391c0 -9.33301 -3.16699 -17.333 -9.5 -24s-14.5 -10 -24.5 -10h-112c-10 -0 -18.167 3.33301 -24.5 10
s-9.5 14.667 -9.5 24zM69.001 1793c-4.66699 4.66699 -7.16699 9.83301 -7.5 15.5s0.666992 11.167 3 16.5s6 9.83301 11 13.5s10.5 5.5 16.5 5.5h75c14.667 -2 24.667 -7.66699 30 -17l124 -208c4.66699 -8.66699 6 -16.667 4 -24s-5.83301 -13 -11.5 -17
s-12.167 -6 -19.5 -6s-14 3.33301 -20 10z" />
    <glyph glyph-name="Iacute" unicode="&#xcd;" horiz-adv-x="498" 
d="M150 34l24.001 1391c0 9.33301 3.16699 17.166 9.5 23.499s14.166 9.5 23.499 9.5h67c9.33301 0 17 -3.16699 23 -9.5s9 -14.166 9 -23.499l24 -1391c0 -9.33301 -3.16699 -17.333 -9.5 -24s-14.5 -10 -24.5 -10h-112c-10 -0 -18.167 3.33301 -24.5 10
s-9.5 14.667 -9.5 24zM224.001 1583c-6 -7.33301 -12.667 -11.001 -20 -11.001s-13.833 2 -19.5 6s-9.5 9.83301 -11.5 17.5s-0.666992 15.834 4 24.501l124 208c5.33301 9.33301 15.333 15 30 17h76c7.33301 0 13.333 -1.83301 18 -5.5s8 -8.16699 10 -13.5
s2.5 -11 1.5 -17s-3.5 -11 -7.5 -15z" />
    <glyph glyph-name="Icircumflex" unicode="&#xce;" horiz-adv-x="662" 
d="M582 1623c10.667 -10.667 13.5039 -21.833 8.50391 -33.5s-14.5 -17.5 -28.5 -17.5h-75c-12.667 0 -22.334 5.33301 -29.001 16l-120 196c-2.66699 5.33301 -6.5 7.83301 -11.5 7.5s-8.5 -2.83301 -10.5 -7.5l-120 -196c-6.66699 -10.667 -17 -16 -31 -16h-74
c-15.333 0 -24.833 6 -28.5 18s-0.833984 23 8.49902 33l199 208c7.33301 8.66699 16.666 13 27.999 13h58c9.33301 0 17.666 -4.33301 24.999 -13zM236.004 34.001l24.001 1391c0 9.33301 3.16699 17.166 9.5 23.499s14.166 9.5 23.499 9.5h67
c9.33301 0 17 -3.16699 23 -9.5s9 -14.166 9 -23.499l24 -1391c0 -9.33301 -3.16699 -17.333 -9.5 -24s-14.5 -10 -24.5 -10h-112c-10 0 -18.167 3.33301 -24.5 10s-9.5 14.667 -9.5 24z" />
    <glyph glyph-name="Idieresis" unicode="&#xcf;" horiz-adv-x="545" 
d="M178 34l24.001 1391c0 9.33301 3.16699 17.166 9.5 23.499s14.166 9.5 23.499 9.5h67c9.33301 0 17 -3.16699 23 -9.5s9 -14.166 9 -23.499l24 -1391c0 -9.33301 -3.16699 -17.333 -9.5 -24s-14.5 -10 -24.5 -10h-112c-10 -0 -18.167 3.33301 -24.5 10
s-9.5 14.667 -9.5 24zM94.001 1573c-9.33301 0 -17.168 3 -23.501 9s-9.5 13.667 -9.5 23l2 136c0 9.33301 3 16.833 9 22.5s13.333 8.5 22 8.5h65c8.66699 0 16 -3 22 -9s9 -13.667 9 -23l3 -135c0 -9.33301 -3.16699 -17 -9.5 -23s-14.166 -9 -23.499 -9h-66z
M375.999 1573c-9.33301 0 -17.168 3 -23.501 9s-9.5 13.667 -9.5 23l2 136c0 9.33301 3 16.833 9 22.5s13.333 8.5 22 8.5h65c8.66699 0 16 -3 22 -9s9 -13.667 9 -23l3 -135c0 -9.33301 -3.16699 -17 -9.5 -23s-14.166 -9 -23.499 -9h-66z" />
    <glyph glyph-name="Ntilde" unicode="&#xd1;" horiz-adv-x="1368" 
d="M1250 34c0 -10 -3.33398 -18.168 -10.001 -24.501s-14.667 -9.5 -24 -9.5h-147c-8.66699 0 -15.167 1.83301 -19.5 5.5s-8.5 8.83398 -12.5 15.501l-754 1173c-4.66699 7.33301 -11.5 10.5 -20.5 9.5s-13.5 -6.83301 -13.5 -17.5l19 -1150
c0 -9.33301 -3 -17.666 -9 -24.999s-14 -11 -24 -11h-114c-9.33301 0 -17.333 3.33301 -24 10s-10 14.667 -10 24l24 1389c0 10 2.66699 18.333 8 25s13.333 10 24 10h112c10.667 0 19.334 -4.33301 26.001 -13l760 -1157c4.66699 -8.66699 11.5 -11.834 20.5 -9.50098
s13.5 8.5 13.5 18.5l18 1128c0 9.33301 3.16699 17.166 9.5 23.499s14.166 9.5 23.499 9.5h69c9.33301 0 16.833 -3.16699 22.5 -9.5s8.83398 -14.166 9.50098 -23.499zM961.999 1711c-0.666992 -22 -5 -42.668 -13 -62.001s-18.833 -36.166 -32.5 -50.499
s-29.834 -25.5 -48.501 -33.5s-38.334 -12 -59.001 -12c-26 0 -48.333 4.83301 -67 14.5s-36 20.5 -52 32.5s-32.5 22.833 -49.5 32.5s-37.167 14.5 -60.5 14.5c-27.333 0 -51.666 -7.16699 -72.999 -21.5s-40 -32.166 -56 -53.499
c-5.33301 -5.33301 -12.166 -7.16602 -20.499 -5.49902s-12.5 6.5 -12.5 14.5c0 22 3.83301 43 11.5 63s18.5 37.833 32.5 53.5s30.833 28 50.5 37s41.5 13.5 65.5 13.5c26 0 47.167 -4.83301 63.5 -14.5s32 -20.167 47 -31.5s31.5 -21.833 49.5 -31.5
s41.667 -14.5 71 -14.5c27.333 0 50.833 6.83301 70.5 20.5s36.834 28.167 51.501 43.5c2 3.33301 4.83301 5.66602 8.5 6.99902s7.16699 1.5 10.5 0.5s6.16602 -2.83301 8.49902 -5.5s3.5 -6.33398 3.5 -11.001z" />
    <glyph glyph-name="Ograve" unicode="&#xd2;" horiz-adv-x="1538" 
d="M785 1479c100.667 0 193.664 -18.833 278.997 -56.5s158.833 -89.334 220.5 -155.001s109.834 -143.167 144.501 -232.5s52 -185.333 52 -288c0 -72 -7.5 -140.833 -22.5 -206.5s-36.833 -127 -65.5 -184s-63.5 -108.667 -104.5 -155s-87.5 -86 -139.5 -119
s-109 -58.5 -171 -76.5s-128 -27 -198 -27c-103.333 0 -197.666 19.833 -282.999 59.5s-158.666 94 -219.999 163s-109 150 -143 243s-51 193.167 -51 300.5c0 104 17.333 200.833 52 290.5s83.167 167.334 145.5 233.001s136.5 117.167 222.5 154.5s180 56 282 56z
M782.997 132c52.667 1.33301 102.667 9.83105 150 25.498s91 37.167 131 64.5s76 59.5 108 96.5s59 78 81 123s39 93.167 51 144.5s18 104.333 18 159c0 80 -13.333 156 -40 228s-63.667 135.167 -111 189.5s-104.166 97.5 -170.499 129.5s-138.833 48 -217.5 48
s-151 -15.833 -217 -47.5s-123 -74.667 -171 -129s-85.333 -117.5 -112 -189.5s-40 -148.333 -40 -229c0 -82.667 13 -160.667 39 -234s62.667 -137.666 110 -192.999s104.166 -99.666 170.499 -132.999s139.833 -51 220.5 -53zM668.997 1793
c-4.66699 4.66699 -7.16699 9.83301 -7.5 15.5s0.666992 11.167 3 16.5s6 9.83301 11 13.5s10.5 5.5 16.5 5.5h75c14.667 -2 24.667 -7.66699 30 -17l124 -208c4.66699 -8.66699 6 -16.667 4 -24s-5.83301 -13 -11.5 -17s-12.167 -6 -19.5 -6s-14 3.33301 -20 10z" />
    <glyph glyph-name="Oacute" unicode="&#xd3;" horiz-adv-x="1538" 
d="M785 1479c100.667 0 193.664 -18.833 278.997 -56.5s158.833 -89.334 220.5 -155.001s109.834 -143.167 144.501 -232.5s52 -185.333 52 -288c0 -72 -7.5 -140.833 -22.5 -206.5s-36.833 -127 -65.5 -184s-63.5 -108.667 -104.5 -155s-87.5 -86 -139.5 -119
s-109 -58.5 -171 -76.5s-128 -27 -198 -27c-103.333 0 -197.666 19.833 -282.999 59.5s-158.666 94 -219.999 163s-109 150 -143 243s-51 193.167 -51 300.5c0 104 17.333 200.833 52 290.5s83.167 167.334 145.5 233.001s136.5 117.167 222.5 154.5s180 56 282 56z
M782.997 132c52.667 1.33301 102.667 9.83105 150 25.498s91 37.167 131 64.5s76 59.5 108 96.5s59 78 81 123s39 93.167 51 144.5s18 104.333 18 159c0 80 -13.333 156 -40 228s-63.667 135.167 -111 189.5s-104.166 97.5 -170.499 129.5s-138.833 48 -217.5 48
s-151 -15.833 -217 -47.5s-123 -74.667 -171 -129s-85.333 -117.5 -112 -189.5s-40 -148.333 -40 -229c0 -82.667 13 -160.667 39 -234s62.667 -137.666 110 -192.999s104.166 -99.666 170.499 -132.999s139.833 -51 220.5 -53zM725.997 1583
c-6 -7.33301 -12.667 -11.001 -20 -11.001s-13.833 2 -19.5 6s-9.5 9.83301 -11.5 17.5s-0.666992 15.834 4 24.501l124 208c5.33301 9.33301 15.333 15 30 17h76c7.33301 0 13.333 -1.83301 18 -5.5s8 -8.16699 10 -13.5s2.5 -11 1.5 -17s-3.5 -11 -7.5 -15z" />
    <glyph glyph-name="Ocircumflex" unicode="&#xd4;" horiz-adv-x="1538" 
d="M785 1479c100.667 0 193.664 -18.833 278.997 -56.5s158.833 -89.334 220.5 -155.001s109.834 -143.167 144.501 -232.5s52 -185.333 52 -288c0 -72 -7.5 -140.833 -22.5 -206.5s-36.833 -127 -65.5 -184s-63.5 -108.667 -104.5 -155s-87.5 -86 -139.5 -119
s-109 -58.5 -171 -76.5s-128 -27 -198 -27c-103.333 0 -197.666 19.833 -282.999 59.5s-158.666 94 -219.999 163s-109 150 -143 243s-51 193.167 -51 300.5c0 104 17.333 200.833 52 290.5s83.167 167.334 145.5 233.001s136.5 117.167 222.5 154.5s180 56 282 56z
M782.997 132c52.667 1.33301 102.667 9.83105 150 25.498s91 37.167 131 64.5s76 59.5 108 96.5s59 78 81 123s39 93.167 51 144.5s18 104.333 18 159c0 80 -13.333 156 -40 228s-63.667 135.167 -111 189.5s-104.166 97.5 -170.499 129.5s-138.833 48 -217.5 48
s-151 -15.833 -217 -47.5s-123 -74.667 -171 -129s-85.333 -117.5 -112 -189.5s-40 -148.333 -40 -229c0 -82.667 13 -160.667 39 -234s62.667 -137.666 110 -192.999s104.166 -99.666 170.499 -132.999s139.833 -51 220.5 -53zM1010 1623
c10.667 -10.667 13.5039 -21.833 8.50391 -33.5s-14.5 -17.5 -28.5 -17.5h-75c-12.667 0 -22.334 5.33301 -29.001 16l-120 196c-2.66699 5.33301 -6.5 7.83301 -11.5 7.5s-8.5 -2.83301 -10.5 -7.5l-120 -196c-6.66699 -10.667 -17 -16 -31 -16h-74
c-15.333 0 -24.833 6 -28.5 18s-0.833984 23 8.49902 33l199 208c7.33301 8.66699 16.666 13 27.999 13h58c9.33301 0 17.666 -4.33301 24.999 -13z" />
    <glyph glyph-name="Otilde" unicode="&#xd5;" horiz-adv-x="1538" 
d="M785 1479c100.667 0 193.664 -18.833 278.997 -56.5s158.833 -89.334 220.5 -155.001s109.834 -143.167 144.501 -232.5s52 -185.333 52 -288c0 -72 -7.5 -140.833 -22.5 -206.5s-36.833 -127 -65.5 -184s-63.5 -108.667 -104.5 -155s-87.5 -86 -139.5 -119
s-109 -58.5 -171 -76.5s-128 -27 -198 -27c-103.333 0 -197.666 19.833 -282.999 59.5s-158.666 94 -219.999 163s-109 150 -143 243s-51 193.167 -51 300.5c0 104 17.333 200.833 52 290.5s83.167 167.334 145.5 233.001s136.5 117.167 222.5 154.5s180 56 282 56z
M782.997 132c52.667 1.33301 102.667 9.83105 150 25.498s91 37.167 131 64.5s76 59.5 108 96.5s59 78 81 123s39 93.167 51 144.5s18 104.333 18 159c0 80 -13.333 156 -40 228s-63.667 135.167 -111 189.5s-104.166 97.5 -170.499 129.5s-138.833 48 -217.5 48
s-151 -15.833 -217 -47.5s-123 -74.667 -171 -129s-85.333 -117.5 -112 -189.5s-40 -148.333 -40 -229c0 -82.667 13 -160.667 39 -234s62.667 -137.666 110 -192.999s104.166 -99.666 170.499 -132.999s139.833 -51 220.5 -53zM1017 1712
c-0.666992 -22 -5 -42.668 -13 -62.001s-18.833 -36.166 -32.5 -50.499s-29.834 -25.5 -48.501 -33.5s-38.334 -12 -59.001 -12c-26 0 -48.333 4.83301 -67 14.5s-36 20.5 -52 32.5s-32.5 22.833 -49.5 32.5s-37.167 14.5 -60.5 14.5
c-27.333 0 -51.666 -7.16699 -72.999 -21.5s-40 -32.166 -56 -53.499c-5.33301 -5.33301 -12.166 -7.16602 -20.499 -5.49902s-12.5 6.5 -12.5 14.5c0 22 3.83301 43 11.5 63s18.5 37.833 32.5 53.5s30.833 28 50.5 37s41.5 13.5 65.5 13.5c26 0 47.167 -4.83301 63.5 -14.5
s32 -20.167 47 -31.5s31.5 -21.833 49.5 -31.5s41.667 -14.5 71 -14.5c27.333 0 50.833 6.83301 70.5 20.5s36.834 28.167 51.501 43.5c2 3.33301 4.83301 5.66602 8.5 6.99902s7.16699 1.5 10.5 0.5s6.16602 -2.83301 8.49902 -5.5s3.5 -6.33398 3.5 -11.001z" />
    <glyph glyph-name="Odieresis" unicode="&#xd6;" horiz-adv-x="1538" 
d="M785 1479c100.667 0 193.664 -18.833 278.997 -56.5s158.833 -89.334 220.5 -155.001s109.834 -143.167 144.501 -232.5s52 -185.333 52 -288c0 -72 -7.5 -140.833 -22.5 -206.5s-36.833 -127 -65.5 -184s-63.5 -108.667 -104.5 -155s-87.5 -86 -139.5 -119
s-109 -58.5 -171 -76.5s-128 -27 -198 -27c-103.333 0 -197.666 19.833 -282.999 59.5s-158.666 94 -219.999 163s-109 150 -143 243s-51 193.167 -51 300.5c0 104 17.333 200.833 52 290.5s83.167 167.334 145.5 233.001s136.5 117.167 222.5 154.5s180 56 282 56z
M782.997 132c52.667 1.33301 102.667 9.83105 150 25.498s91 37.167 131 64.5s76 59.5 108 96.5s59 78 81 123s39 93.167 51 144.5s18 104.333 18 159c0 80 -13.333 156 -40 228s-63.667 135.167 -111 189.5s-104.166 97.5 -170.499 129.5s-138.833 48 -217.5 48
s-151 -15.833 -217 -47.5s-123 -74.667 -171 -129s-85.333 -117.5 -112 -189.5s-40 -148.333 -40 -229c0 -82.667 13 -160.667 39 -234s62.667 -137.666 110 -192.999s104.166 -99.666 170.499 -132.999s139.833 -51 220.5 -53zM616.997 1573
c-9.33301 0 -17.168 3 -23.501 9s-9.5 13.667 -9.5 23l2 136c0 9.33301 3 16.833 9 22.5s13.333 8.5 22 8.5h65c8.66699 0 16 -3 22 -9s9 -13.667 9 -23l3 -135c0 -9.33301 -3.16699 -17 -9.5 -23s-14.166 -9 -23.499 -9h-66zM899.995 1573c-9.33301 0 -17.168 3 -23.501 9
s-9.5 13.667 -9.5 23l2 136c0 9.33301 3 16.833 9 22.5s13.333 8.5 22 8.5h65c8.66699 0 16 -3 22 -9s9 -13.667 9 -23l3 -135c0 -9.33301 -3.16699 -17 -9.5 -23s-14.166 -9 -23.499 -9h-66z" />
    <glyph glyph-name="Oslash" unicode="&#xd8;" horiz-adv-x="1566" 
d="M786 1479c77.333 0 149.835 -11.168 217.502 -33.501s129.5 -53.833 185.5 -94.5l87 104c5.33301 6.66699 12 10 20 10s15.667 -3 23 -9l53 -44c7.33301 -5.33301 11.5 -12 12.5 -20s-1.16699 -15.333 -6.5 -22l-89 -106c60.667 -66 108 -143 142 -231
s51 -183.333 51 -286c0 -107.333 -16.833 -207.5 -50.5 -300.5s-81.167 -173.833 -142.5 -242.5s-135 -122.5 -221 -161.5s-181.667 -58.5 -287 -58.5c-86 0 -165.5 13.667 -238.5 41s-138.833 65.333 -197.5 114l-109 -130c-5.33301 -6 -11.833 -9 -19.5 -9
s-14.834 3 -21.501 9l-54 45c-6 5.33301 -9.83301 11.833 -11.5 19.5s0.166016 14.5 5.49902 20.5l117 140c-54 67.333 -95.5 144.333 -124.5 231s-43.5 180 -43.5 280c0 104 17.333 200.833 52 290.5s83.167 167.334 145.5 233.001s136.5 117.167 222.5 154.5
s180 56 282 56zM784.002 131.999c52.667 1.33301 102.668 9.83301 150.001 25.5s91 37.167 131 64.5s76 59.5 108 96.5s59 78 81 123s39 93.167 51 144.5s18 104.333 18 159c0 76 -11.833 148 -35.5 216s-56.834 128.667 -99.501 182l-740 -882
c44.667 -39.333 95.167 -70.333 151.5 -93s117.833 -34.667 184.5 -36zM784.003 1340c-78.667 0 -150.999 -15.833 -216.999 -47.5s-123 -74.667 -171 -129s-85.333 -117.5 -112 -189.5s-40 -148.333 -40 -229c0 -72.667 9.83301 -141.5 29.5 -206.5
s48.167 -124.167 85.5 -177.5l733 875c-42.667 33.333 -89.834 59 -141.501 77s-107.167 27 -166.5 27z" />
    <glyph glyph-name="Ugrave" unicode="&#xd9;" horiz-adv-x="1352" 
d="M248 574c0.666992 -63.333 12.001 -122.001 34.001 -176.001s51.833 -100.667 89.5 -140s81.167 -70.166 130.5 -92.499s102 -33.5 158 -33.5c55.333 0 107.833 11.333 157.5 34s93.167 53.834 130.5 93.501s67 86.5 89 140.5s33.333 112.333 34 175l15 850
c0 9.33301 3.16699 17.166 9.5 23.499s14.166 9.5 23.499 9.5h68c9.33301 0 17 -3.16699 23 -9.5s9 -14.166 9 -23.499l14 -853c-2.66699 -82.667 -18.667 -160 -48 -232s-69.166 -134.833 -119.499 -188.5s-110 -95.834 -179 -126.501s-144.5 -46 -226.5 -46
c-81.333 0 -156.333 15 -225 45s-128.5 71.333 -179.5 124s-91.333 114.5 -121 185.5s-45.834 147.5 -48.501 229.5l13 862c0 9.33301 3.16699 17.166 9.5 23.499s14.166 9.5 23.499 9.5h68c9.33301 0 16.833 -3.16699 22.5 -9.5s8.83398 -14.166 9.50098 -23.499z
M550.001 1793c-4.66699 4.66699 -7.16699 9.83301 -7.5 15.5s0.666992 11.167 3 16.5s6 9.83301 11 13.5s10.5 5.5 16.5 5.5h75c14.667 -2 24.667 -7.66699 30 -17l124 -208c4.66699 -8.66699 6 -16.667 4 -24s-5.83301 -13 -11.5 -17s-12.167 -6 -19.5 -6
s-14 3.33301 -20 10z" />
    <glyph glyph-name="Uacute" unicode="&#xda;" horiz-adv-x="1352" 
d="M248 574c0.666992 -63.333 12.001 -122.001 34.001 -176.001s51.833 -100.667 89.5 -140s81.167 -70.166 130.5 -92.499s102 -33.5 158 -33.5c55.333 0 107.833 11.333 157.5 34s93.167 53.834 130.5 93.501s67 86.5 89 140.5s33.333 112.333 34 175l15 850
c0 9.33301 3.16699 17.166 9.5 23.499s14.166 9.5 23.499 9.5h68c9.33301 0 17 -3.16699 23 -9.5s9 -14.166 9 -23.499l14 -853c-2.66699 -82.667 -18.667 -160 -48 -232s-69.166 -134.833 -119.499 -188.5s-110 -95.834 -179 -126.501s-144.5 -46 -226.5 -46
c-81.333 0 -156.333 15 -225 45s-128.5 71.333 -179.5 124s-91.333 114.5 -121 185.5s-45.834 147.5 -48.501 229.5l13 862c0 9.33301 3.16699 17.166 9.5 23.499s14.166 9.5 23.499 9.5h68c9.33301 0 16.833 -3.16699 22.5 -9.5s8.83398 -14.166 9.50098 -23.499z
M638.001 1583c-6 -7.33301 -12.667 -11.001 -20 -11.001s-13.833 2 -19.5 6s-9.5 9.83301 -11.5 17.5s-0.666992 15.834 4 24.501l124 208c5.33301 9.33301 15.333 15 30 17h76c7.33301 0 13.333 -1.83301 18 -5.5s8 -8.16699 10 -13.5s2.5 -11 1.5 -17s-3.5 -11 -7.5 -15z
" />
    <glyph glyph-name="Ucircumflex" unicode="&#xdb;" horiz-adv-x="1352" 
d="M248 574c0.666992 -63.333 12.001 -122.001 34.001 -176.001s51.833 -100.667 89.5 -140s81.167 -70.166 130.5 -92.499s102 -33.5 158 -33.5c55.333 0 107.833 11.333 157.5 34s93.167 53.834 130.5 93.501s67 86.5 89 140.5s33.333 112.333 34 175l15 850
c0 9.33301 3.16699 17.166 9.5 23.499s14.166 9.5 23.499 9.5h68c9.33301 0 17 -3.16699 23 -9.5s9 -14.166 9 -23.499l14 -853c-2.66699 -82.667 -18.667 -160 -48 -232s-69.166 -134.833 -119.499 -188.5s-110 -95.834 -179 -126.501s-144.5 -46 -226.5 -46
c-81.333 0 -156.333 15 -225 45s-128.5 71.333 -179.5 124s-91.333 114.5 -121 185.5s-45.834 147.5 -48.501 229.5l13 862c0 9.33301 3.16699 17.166 9.5 23.499s14.166 9.5 23.499 9.5h68c9.33301 0 16.833 -3.16699 22.5 -9.5s8.83398 -14.166 9.50098 -23.499z
M923.001 1623c10.667 -10.667 13.5039 -21.833 8.50391 -33.5s-14.5 -17.5 -28.5 -17.5h-75c-12.667 0 -22.334 5.33301 -29.001 16l-120 196c-2.66699 5.33301 -6.5 7.83301 -11.5 7.5s-8.5 -2.83301 -10.5 -7.5l-120 -196c-6.66699 -10.667 -17 -16 -31 -16h-74
c-15.333 0 -24.833 6 -28.5 18s-0.833984 23 8.49902 33l199 208c7.33301 8.66699 16.666 13 27.999 13h58c9.33301 0 17.666 -4.33301 24.999 -13z" />
    <glyph glyph-name="Udieresis" unicode="&#xdc;" horiz-adv-x="1352" 
d="M248 574c0.666992 -63.333 12.001 -122.001 34.001 -176.001s51.833 -100.667 89.5 -140s81.167 -70.166 130.5 -92.499s102 -33.5 158 -33.5c55.333 0 107.833 11.333 157.5 34s93.167 53.834 130.5 93.501s67 86.5 89 140.5s33.333 112.333 34 175l15 850
c0 9.33301 3.16699 17.166 9.5 23.499s14.166 9.5 23.499 9.5h68c9.33301 0 17 -3.16699 23 -9.5s9 -14.166 9 -23.499l14 -853c-2.66699 -82.667 -18.667 -160 -48 -232s-69.166 -134.833 -119.499 -188.5s-110 -95.834 -179 -126.501s-144.5 -46 -226.5 -46
c-81.333 0 -156.333 15 -225 45s-128.5 71.333 -179.5 124s-91.333 114.5 -121 185.5s-45.834 147.5 -48.501 229.5l13 862c0 9.33301 3.16699 17.166 9.5 23.499s14.166 9.5 23.499 9.5h68c9.33301 0 16.833 -3.16699 22.5 -9.5s8.83398 -14.166 9.50098 -23.499z
M527.001 1573c-9.33301 0 -17.168 3 -23.501 9s-9.5 13.667 -9.5 23l2 136c0 9.33301 3 16.833 9 22.5s13.333 8.5 22 8.5h65c8.66699 0 16 -3 22 -9s9 -13.667 9 -23l3 -135c0 -9.33301 -3.16699 -17 -9.5 -23s-14.166 -9 -23.499 -9h-66zM809.999 1573
c-9.33301 0 -17.168 3 -23.501 9s-9.5 13.667 -9.5 23l2 136c0 9.33301 3 16.833 9 22.5s13.333 8.5 22 8.5h65c8.66699 0 16 -3 22 -9s9 -13.667 9 -23l3 -135c0 -9.33301 -3.16699 -17 -9.5 -23s-14.166 -9 -23.499 -9h-66z" />
    <glyph glyph-name="Yacute" unicode="&#xdd;" horiz-adv-x="1170" 
d="M1106 1458c14 0 23.667 -5.83203 29 -17.499s4.33301 -23.167 -3 -34.5l-436 -672c-1.33301 -3.33301 -2.66602 -6.5 -3.99902 -9.5s-2 -6.16699 -2 -9.5l12 -681c0 -9.33301 -3.16699 -17.333 -9.5 -24s-14.5 -10 -24.5 -10h-112c-10 0 -18.167 3.33301 -24.5 10
s-9.5 14.667 -9.5 24l11 681c0 7.33301 -1.66699 13.666 -5 18.999l-438 676c-4 4.66699 -5.83301 9.83398 -5.5 15.501s2 11 5 16s7 9.16699 12 12.5s10.833 4.66602 17.5 3.99902h81c11.333 0 20.666 -5.33301 27.999 -16l359 -542c6 -8.66699 13.667 -13 23 -13
c12 0 20 4.66699 24 14l360 539c7.33301 11.333 17.333 17.333 30 18h82zM619 1580c-6 -7.33301 -12.667 -11.001 -20 -11.001s-13.833 2 -19.5 6s-9.5 9.83301 -11.5 17.5s-0.666992 15.834 4 24.501l124 208c5.33301 9.33301 15.333 15 30 17h76
c7.33301 0 13.333 -1.83301 18 -5.5s8 -8.16699 10 -13.5s2.5 -11 1.5 -17s-3.5 -11 -7.5 -15z" />
    <glyph glyph-name="germandbls" unicode="&#xdf;" horiz-adv-x="1054" 
d="M107 1054c0 22.667 1.83398 48.3379 5.50098 77.0049s10.167 58 19.5 88s22.666 59.333 39.999 88s40 54.167 68 76.5s62 40.333 102 54s88 20.5 144 20.5c61.333 0 117.666 -7.66699 168.999 -23s95.333 -37.5 132 -66.5s65.167 -64.833 85.5 -107.5
s30.5 -91.334 30.5 -146.001c0 -38.667 -6 -73.667 -18 -105s-28.667 -59.333 -50 -84s-46.333 -46.167 -75 -64.5s-59.667 -33.5 -93 -45.5c-11.333 -4 -16 -9.83301 -14 -17.5s7.66699 -13.167 17 -16.5c42.667 -16 82.334 -37.5 119.001 -64.5s68.5 -57.667 95.5 -92
s48.333 -71.166 64 -110.499s23.5 -79 23.5 -119c0 -74.667 -13 -138 -39 -190s-61.333 -94.5 -106 -127.5s-97.167 -57 -157.5 -72s-124.833 -22.5 -193.5 -22.5c-8.66699 0 -14.667 2.5 -18 7.5s-5 11.5 -5 19.5v97c0 16 7 24 21 24c42.667 0 83.834 4.66699 123.501 14
s74.667 24.666 105 45.999s54.666 49.666 72.999 84.999s27.5 78.666 27.5 129.999c0 40 -9.5 78.667 -28.5 116s-43.833 70.166 -74.5 98.499s-65.667 51 -105 68s-79 25.5 -119 25.5c-8.66699 0 -14.667 2.16699 -18 6.5s-5 9.83301 -5 16.5v111
c0 7.33301 1.66699 13.5 5 18.5s9.33301 7.5 18 7.5c38 0 74.333 4.83301 109 14.5s65 24.167 91 43.5s46.667 43.666 62 72.999s23 63.666 23 102.999c0 33.333 -5.83301 64 -17.5 92s-29.334 52 -53.001 72s-53 35.5 -88 46.5s-75.5 16.5 -121.5 16.5
c-50 0 -90.5 -9.16699 -121.5 -27.5s-55 -40.666 -72 -66.999s-28.333 -54.5 -34 -84.5s-8.16699 -57 -7.5 -81l20 -1043c0 -9.33301 -3.16699 -17.166 -9.5 -23.499s-14.5 -9.5 -24.5 -9.5h-113c-9.33301 0 -17.166 3.16699 -23.499 9.5s-9.5 14.166 -9.5 23.499z" />
    <glyph glyph-name="agrave" unicode="&#xe0;" 
d="M800 781c-1.33301 30 -9.33203 55.5 -23.999 76.5s-33.667 38 -57 51s-49.833 22.333 -79.5 28s-60.167 8.5 -91.5 8.5c-26.667 0 -53.5 -2.83301 -80.5 -8.5s-52.333 -15 -76 -28s-45 -30.167 -64 -51.5s-33.833 -47.333 -44.5 -78c-4.66699 -13.333 -9 -23 -13 -29
s-11.667 -9.66699 -23 -11h-85c-12.667 0 -21.334 5.83301 -26.001 17.5s-5.66699 22.834 -3 33.501c8.66699 48.667 27.667 91 57 127s64 65.667 104 89s83.333 40.666 130 51.999s91.667 17 135 17c50 0 97.833 -5.83301 143.5 -17.5s86 -30.167 121 -55.5
s63.167 -57.833 84.5 -97.5s32.666 -87.167 33.999 -142.5l12 -728c0 -10 -3.16699 -18.167 -9.5 -24.5s-14.5 -9.5 -24.5 -9.5h-102c-10 0 -18 3.16699 -24 9.5s-9 14.5 -9 24.5l1 82c0 9.33301 -4 15 -12 17s-15.333 -0.666992 -22 -8
c-51.333 -52.667 -108 -90.167 -170 -112.5s-125.667 -33.5 -191 -33.5c-46 0 -87.833 8.33301 -125.5 25s-70.167 38.834 -97.5 66.501s-48.5 59.5 -63.5 95.5s-22.833 73.667 -23.5 113c0 32.667 5 64 15 94s24 57.5 42 82.5s39.667 46.667 65 65s53.333 32.166 84 41.499
c48.667 12 94.334 21.5 137.001 28.5s82.667 14.167 120 21.5s72 15.5 104 24.5s62 21.5 90 37.5c41.333 23.333 62 59 62 107zM232.001 300c0 -42 9.99902 -75.666 29.999 -100.999s45.5 -43.666 76.5 -54.999s65.833 -16.333 104.5 -15s76.667 7.5 114 18.5
s71.833 26 103.5 45s56.834 40.833 75.501 65.5c12 16 21.667 36.167 29 60.5s13 50 17 77s6.83301 53.667 8.5 80s2.5 49.5 2.5 69.5c0 9.33301 -4.66699 13.666 -14 12.999c-32.667 -12 -64.5 -22.5 -95.5 -31.5s-62.667 -17.333 -95 -25s-66.333 -15.334 -102 -23.001
l-115.5 -24.5c-42.667 -9.33301 -76.5 -27.833 -101.5 -55.5s-37.5 -60.5 -37.5 -98.5zM434 1407c-4.66699 4.66699 -7.16699 9.83301 -7.5 15.5s0.666992 11.167 3 16.5s6 9.83301 11 13.5s10.5 5.5 16.5 5.5h75c14.667 -2 24.667 -7.66699 30 -17l124 -208
c4.66699 -8.66699 6 -16.667 4 -24s-5.83301 -13 -11.5 -17s-12.167 -6 -19.5 -6s-14 3.33301 -20 10z" />
    <glyph glyph-name="aacute" unicode="&#xe1;" 
d="M800 781c-1.33301 30 -9.33203 55.5 -23.999 76.5s-33.667 38 -57 51s-49.833 22.333 -79.5 28s-60.167 8.5 -91.5 8.5c-26.667 0 -53.5 -2.83301 -80.5 -8.5s-52.333 -15 -76 -28s-45 -30.167 -64 -51.5s-33.833 -47.333 -44.5 -78c-4.66699 -13.333 -9 -23 -13 -29
s-11.667 -9.66699 -23 -11h-85c-12.667 0 -21.334 5.83301 -26.001 17.5s-5.66699 22.834 -3 33.501c8.66699 48.667 27.667 91 57 127s64 65.667 104 89s83.333 40.666 130 51.999s91.667 17 135 17c50 0 97.833 -5.83301 143.5 -17.5s86 -30.167 121 -55.5
s63.167 -57.833 84.5 -97.5s32.666 -87.167 33.999 -142.5l12 -728c0 -10 -3.16699 -18.167 -9.5 -24.5s-14.5 -9.5 -24.5 -9.5h-102c-10 0 -18 3.16699 -24 9.5s-9 14.5 -9 24.5l1 82c0 9.33301 -4 15 -12 17s-15.333 -0.666992 -22 -8
c-51.333 -52.667 -108 -90.167 -170 -112.5s-125.667 -33.5 -191 -33.5c-46 0 -87.833 8.33301 -125.5 25s-70.167 38.834 -97.5 66.501s-48.5 59.5 -63.5 95.5s-22.833 73.667 -23.5 113c0 32.667 5 64 15 94s24 57.5 42 82.5s39.667 46.667 65 65s53.333 32.166 84 41.499
c48.667 12 94.334 21.5 137.001 28.5s82.667 14.167 120 21.5s72 15.5 104 24.5s62 21.5 90 37.5c41.333 23.333 62 59 62 107zM232.001 300c0 -42 9.99902 -75.666 29.999 -100.999s45.5 -43.666 76.5 -54.999s65.833 -16.333 104.5 -15s76.667 7.5 114 18.5
s71.833 26 103.5 45s56.834 40.833 75.501 65.5c12 16 21.667 36.167 29 60.5s13 50 17 77s6.83301 53.667 8.5 80s2.5 49.5 2.5 69.5c0 9.33301 -4.66699 13.666 -14 12.999c-32.667 -12 -64.5 -22.5 -95.5 -31.5s-62.667 -17.333 -95 -25s-66.333 -15.334 -102 -23.001
l-115.5 -24.5c-42.667 -9.33301 -76.5 -27.833 -101.5 -55.5s-37.5 -60.5 -37.5 -98.5zM546 1196c-6 -7.33301 -12.667 -11.001 -20 -11.001s-13.833 2 -19.5 6s-9.5 9.83301 -11.5 17.5s-0.666992 15.834 4 24.501l124 208c5.33301 9.33301 15.333 15 30 17h76
c7.33301 0 13.333 -1.83301 18 -5.5s8 -8.16699 10 -13.5s2.5 -11 1.5 -17s-3.5 -11 -7.5 -15z" />
    <glyph glyph-name="acircumflex" unicode="&#xe2;" 
d="M800 781c-1.33301 30 -9.33203 55.5 -23.999 76.5s-33.667 38 -57 51s-49.833 22.333 -79.5 28s-60.167 8.5 -91.5 8.5c-26.667 0 -53.5 -2.83301 -80.5 -8.5s-52.333 -15 -76 -28s-45 -30.167 -64 -51.5s-33.833 -47.333 -44.5 -78c-4.66699 -13.333 -9 -23 -13 -29
s-11.667 -9.66699 -23 -11h-85c-12.667 0 -21.334 5.83301 -26.001 17.5s-5.66699 22.834 -3 33.501c8.66699 48.667 27.667 91 57 127s64 65.667 104 89s83.333 40.666 130 51.999s91.667 17 135 17c50 0 97.833 -5.83301 143.5 -17.5s86 -30.167 121 -55.5
s63.167 -57.833 84.5 -97.5s32.666 -87.167 33.999 -142.5l12 -728c0 -10 -3.16699 -18.167 -9.5 -24.5s-14.5 -9.5 -24.5 -9.5h-102c-10 0 -18 3.16699 -24 9.5s-9 14.5 -9 24.5l1 82c0 9.33301 -4 15 -12 17s-15.333 -0.666992 -22 -8
c-51.333 -52.667 -108 -90.167 -170 -112.5s-125.667 -33.5 -191 -33.5c-46 0 -87.833 8.33301 -125.5 25s-70.167 38.834 -97.5 66.501s-48.5 59.5 -63.5 95.5s-22.833 73.667 -23.5 113c0 32.667 5 64 15 94s24 57.5 42 82.5s39.667 46.667 65 65s53.333 32.166 84 41.499
c48.667 12 94.334 21.5 137.001 28.5s82.667 14.167 120 21.5s72 15.5 104 24.5s62 21.5 90 37.5c41.333 23.333 62 59 62 107zM232.001 300c0 -42 9.99902 -75.666 29.999 -100.999s45.5 -43.666 76.5 -54.999s65.833 -16.333 104.5 -15s76.667 7.5 114 18.5
s71.833 26 103.5 45s56.834 40.833 75.501 65.5c12 16 21.667 36.167 29 60.5s13 50 17 77s6.83301 53.667 8.5 80s2.5 49.5 2.5 69.5c0 9.33301 -4.66699 13.666 -14 12.999c-32.667 -12 -64.5 -22.5 -95.5 -31.5s-62.667 -17.333 -95 -25s-66.333 -15.334 -102 -23.001
l-115.5 -24.5c-42.667 -9.33301 -76.5 -27.833 -101.5 -55.5s-37.5 -60.5 -37.5 -98.5zM799 1238c10.667 -10.667 13.5039 -21.833 8.50391 -33.5s-14.5 -17.5 -28.5 -17.5h-75c-12.667 0 -22.334 5.33301 -29.001 16l-120 196c-2.66699 5.33301 -6.5 7.83301 -11.5 7.5
s-8.5 -2.83301 -10.5 -7.5l-120 -196c-6.66699 -10.667 -17 -16 -31 -16h-74c-15.333 0 -24.833 6 -28.5 18s-0.833984 23 8.49902 33l199 208c7.33301 8.66699 16.666 13 27.999 13h58c9.33301 0 17.666 -4.33301 24.999 -13z" />
    <glyph glyph-name="atilde" unicode="&#xe3;" 
d="M800 781c-1.33301 30 -9.33203 55.5 -23.999 76.5s-33.667 38 -57 51s-49.833 22.333 -79.5 28s-60.167 8.5 -91.5 8.5c-26.667 0 -53.5 -2.83301 -80.5 -8.5s-52.333 -15 -76 -28s-45 -30.167 -64 -51.5s-33.833 -47.333 -44.5 -78c-4.66699 -13.333 -9 -23 -13 -29
s-11.667 -9.66699 -23 -11h-85c-12.667 0 -21.334 5.83301 -26.001 17.5s-5.66699 22.834 -3 33.501c8.66699 48.667 27.667 91 57 127s64 65.667 104 89s83.333 40.666 130 51.999s91.667 17 135 17c50 0 97.833 -5.83301 143.5 -17.5s86 -30.167 121 -55.5
s63.167 -57.833 84.5 -97.5s32.666 -87.167 33.999 -142.5l12 -728c0 -10 -3.16699 -18.167 -9.5 -24.5s-14.5 -9.5 -24.5 -9.5h-102c-10 0 -18 3.16699 -24 9.5s-9 14.5 -9 24.5l1 82c0 9.33301 -4 15 -12 17s-15.333 -0.666992 -22 -8
c-51.333 -52.667 -108 -90.167 -170 -112.5s-125.667 -33.5 -191 -33.5c-46 0 -87.833 8.33301 -125.5 25s-70.167 38.834 -97.5 66.501s-48.5 59.5 -63.5 95.5s-22.833 73.667 -23.5 113c0 32.667 5 64 15 94s24 57.5 42 82.5s39.667 46.667 65 65s53.333 32.166 84 41.499
c48.667 12 94.334 21.5 137.001 28.5s82.667 14.167 120 21.5s72 15.5 104 24.5s62 21.5 90 37.5c41.333 23.333 62 59 62 107zM232.001 300c0 -42 9.99902 -75.666 29.999 -100.999s45.5 -43.666 76.5 -54.999s65.833 -16.333 104.5 -15s76.667 7.5 114 18.5
s71.833 26 103.5 45s56.834 40.833 75.501 65.5c12 16 21.667 36.167 29 60.5s13 50 17 77s6.83301 53.667 8.5 80s2.5 49.5 2.5 69.5c0 9.33301 -4.66699 13.666 -14 12.999c-32.667 -12 -64.5 -22.5 -95.5 -31.5s-62.667 -17.333 -95 -25s-66.333 -15.334 -102 -23.001
l-115.5 -24.5c-42.667 -9.33301 -76.5 -27.833 -101.5 -55.5s-37.5 -60.5 -37.5 -98.5zM834 1441c-0.666992 -22 -5 -42.668 -13 -62.001s-18.833 -36.166 -32.5 -50.499s-29.834 -25.5 -48.501 -33.5s-38.334 -12 -59.001 -12c-26 0 -48.333 4.83301 -67 14.5
s-36 20.5 -52 32.5s-32.5 22.833 -49.5 32.5s-37.167 14.5 -60.5 14.5c-27.333 0 -51.666 -7.16699 -72.999 -21.5s-40 -32.166 -56 -53.499c-5.33301 -5.33301 -12.166 -7.16602 -20.499 -5.49902s-12.5 6.5 -12.5 14.5c0 22 3.83301 43 11.5 63s18.5 37.833 32.5 53.5
s30.833 28 50.5 37s41.5 13.5 65.5 13.5c26 0 47.167 -4.83301 63.5 -14.5s32 -20.167 47 -31.5s31.5 -21.833 49.5 -31.5s41.667 -14.5 71 -14.5c27.333 0 50.833 6.83301 70.5 20.5s36.834 28.167 51.501 43.5c2 3.33301 4.83301 5.66602 8.5 6.99902
s7.16699 1.5 10.5 0.5s6.16602 -2.83301 8.49902 -5.5s3.5 -6.33398 3.5 -11.001z" />
    <glyph glyph-name="adieresis" unicode="&#xe4;" 
d="M800 781c-1.33301 30 -9.33203 55.5 -23.999 76.5s-33.667 38 -57 51s-49.833 22.333 -79.5 28s-60.167 8.5 -91.5 8.5c-26.667 0 -53.5 -2.83301 -80.5 -8.5s-52.333 -15 -76 -28s-45 -30.167 -64 -51.5s-33.833 -47.333 -44.5 -78c-4.66699 -13.333 -9 -23 -13 -29
s-11.667 -9.66699 -23 -11h-85c-12.667 0 -21.334 5.83301 -26.001 17.5s-5.66699 22.834 -3 33.501c8.66699 48.667 27.667 91 57 127s64 65.667 104 89s83.333 40.666 130 51.999s91.667 17 135 17c50 0 97.833 -5.83301 143.5 -17.5s86 -30.167 121 -55.5
s63.167 -57.833 84.5 -97.5s32.666 -87.167 33.999 -142.5l12 -728c0 -10 -3.16699 -18.167 -9.5 -24.5s-14.5 -9.5 -24.5 -9.5h-102c-10 0 -18 3.16699 -24 9.5s-9 14.5 -9 24.5l1 82c0 9.33301 -4 15 -12 17s-15.333 -0.666992 -22 -8
c-51.333 -52.667 -108 -90.167 -170 -112.5s-125.667 -33.5 -191 -33.5c-46 0 -87.833 8.33301 -125.5 25s-70.167 38.834 -97.5 66.501s-48.5 59.5 -63.5 95.5s-22.833 73.667 -23.5 113c0 32.667 5 64 15 94s24 57.5 42 82.5s39.667 46.667 65 65s53.333 32.166 84 41.499
c48.667 12 94.334 21.5 137.001 28.5s82.667 14.167 120 21.5s72 15.5 104 24.5s62 21.5 90 37.5c41.333 23.333 62 59 62 107zM232.001 300c0 -42 9.99902 -75.666 29.999 -100.999s45.5 -43.666 76.5 -54.999s65.833 -16.333 104.5 -15s76.667 7.5 114 18.5
s71.833 26 103.5 45s56.834 40.833 75.501 65.5c12 16 21.667 36.167 29 60.5s13 50 17 77s6.83301 53.667 8.5 80s2.5 49.5 2.5 69.5c0 9.33301 -4.66699 13.666 -14 12.999c-32.667 -12 -64.5 -22.5 -95.5 -31.5s-62.667 -17.333 -95 -25s-66.333 -15.334 -102 -23.001
l-115.5 -24.5c-42.667 -9.33301 -76.5 -27.833 -101.5 -55.5s-37.5 -60.5 -37.5 -98.5zM689 1259c-9.33301 0 -17.168 3 -23.501 9s-9.5 13.667 -9.5 23l2 136c0 9.33301 3 16.833 9 22.5s13.333 8.5 22 8.5h65c8.66699 0 16 -3 22 -9s9 -13.667 9 -23l3 -135
c0 -9.33301 -3.16699 -17 -9.5 -23s-14.166 -9 -23.499 -9h-66zM405.998 1259c-9.33301 0 -17.168 3 -23.501 9s-9.5 13.667 -9.5 23l2 136c0 9.33301 3 16.833 9 22.5s13.333 8.5 22 8.5h65c8.66699 0 16 -3 22 -9s9 -13.667 9 -23l3 -135
c0 -9.33301 -3.16699 -17 -9.5 -23s-14.166 -9 -23.499 -9h-66z" />
    <glyph glyph-name="agrave.001" unicode="&#xe5;" 
d="M800 781c-1.33301 30 -9.33203 55.5 -23.999 76.5s-33.667 38 -57 51s-49.833 22.333 -79.5 28s-60.167 8.5 -91.5 8.5c-26.667 0 -53.5 -2.83301 -80.5 -8.5s-52.333 -15 -76 -28s-45 -30.167 -64 -51.5s-33.833 -47.333 -44.5 -78c-4.66699 -13.333 -9 -23 -13 -29
s-11.667 -9.66699 -23 -11h-85c-12.667 0 -21.334 5.83301 -26.001 17.5s-5.66699 22.834 -3 33.501c8.66699 48.667 27.667 91 57 127s64 65.667 104 89s83.333 40.666 130 51.999s91.667 17 135 17c50 0 97.833 -5.83301 143.5 -17.5s86 -30.167 121 -55.5
s63.167 -57.833 84.5 -97.5s32.666 -87.167 33.999 -142.5l12 -728c0 -10 -3.16699 -18.167 -9.5 -24.5s-14.5 -9.5 -24.5 -9.5h-102c-10 0 -18 3.16699 -24 9.5s-9 14.5 -9 24.5l1 82c0 9.33301 -4 15 -12 17s-15.333 -0.666992 -22 -8
c-51.333 -52.667 -108 -90.167 -170 -112.5s-125.667 -33.5 -191 -33.5c-46 0 -87.833 8.33301 -125.5 25s-70.167 38.834 -97.5 66.501s-48.5 59.5 -63.5 95.5s-22.833 73.667 -23.5 113c0 32.667 5 64 15 94s24 57.5 42 82.5s39.667 46.667 65 65s53.333 32.166 84 41.499
c48.667 12 94.334 21.5 137.001 28.5s82.667 14.167 120 21.5s72 15.5 104 24.5s62 21.5 90 37.5c41.333 23.333 62 59 62 107zM232.001 300c0 -42 9.99902 -75.666 29.999 -100.999s45.5 -43.666 76.5 -54.999s65.833 -16.333 104.5 -15s76.667 7.5 114 18.5
s71.833 26 103.5 45s56.834 40.833 75.501 65.5c12 16 21.667 36.167 29 60.5s13 50 17 77s6.83301 53.667 8.5 80s2.5 49.5 2.5 69.5c0 9.33301 -4.66699 13.666 -14 12.999c-32.667 -12 -64.5 -22.5 -95.5 -31.5s-62.667 -17.333 -95 -25s-66.333 -15.334 -102 -23.001
l-115.5 -24.5c-42.667 -9.33301 -76.5 -27.833 -101.5 -55.5s-37.5 -60.5 -37.5 -98.5zM563 1533c26 0 50 -4.83301 72 -14.5s41.167 -22.667 57.5 -39s29.166 -35.666 38.499 -57.999s14 -45.833 14 -70.5c0 -25.333 -4.66699 -48.833 -14 -70.5
s-22.166 -40.667 -38.499 -57s-35.5 -29.166 -57.5 -38.499s-46 -14 -72 -14c-24.667 0 -48 4.66699 -70 14s-41.167 22.166 -57.5 38.499s-29.333 35.333 -39 57s-14.5 45.167 -14.5 70.5c0 24.667 4.83301 48.167 14.5 70.5s22.667 41.666 39 57.999s35.5 29.333 57.5 39
s45.333 14.5 70 14.5zM563 1253c31.333 0 55.833 8.83301 73.5 26.5s26.5 41.5 26.5 71.5c0 31.333 -8.83301 55.666 -26.5 72.999s-42.167 26 -73.5 26c-30 0 -53.833 -8.66699 -71.5 -26s-26.5 -41.666 -26.5 -72.999c0 -30 8.83301 -53.833 26.5 -71.5
s41.5 -26.5 71.5 -26.5z" />
    <glyph glyph-name="ae" unicode="&#xe6;" horiz-adv-x="1893" 
d="M1309 1080c74.667 0 142.174 -14.1748 202.507 -42.5078s112 -66.333 155 -114s76.667 -102.5 101 -164.5s38.5 -126.667 42.5 -194c0 -11.333 -3.16699 -20.166 -9.5 -26.499s-14.166 -9.5 -23.499 -9.5h-804c-12.667 -0.666992 -19 -8 -19 -22
c2.66699 -53.333 12.834 -102.5 30.501 -147.5s41.667 -83.833 72 -116.5s66.666 -58.167 108.999 -76.5s89.833 -27.5 142.5 -27.5c66 0 123.833 15.333 173.5 46s90.167 70.667 121.5 120c7.33301 10.667 17 16 29 16h95c13.333 0 22.666 -5.5 27.999 -16.5
s5 -21.833 -1 -32.5c-21.333 -43.333 -46.833 -82.166 -76.5 -116.499s-63.334 -63.666 -101.001 -87.999s-78.834 -43 -123.501 -56s-92.334 -19.5 -143.001 -19.5c-45.333 0 -88.333 6.5 -129 19.5s-78.334 30.833 -113.001 53.5s-66.334 48.834 -95.001 78.501
s-54 61.5 -76 95.5c-2 4.66699 -5.5 7.16699 -10.5 7.5s-8.83301 -2.16699 -11.5 -7.5c-17.333 -28 -38.5 -56.5 -63.5 -85.5s-55.5 -55.333 -91.5 -79s-77.833 -43 -125.5 -58s-102.5 -22.5 -164.5 -22.5c-55.333 0 -104.166 8.16699 -146.499 24.5s-78 38 -107 65
s-51.167 58.333 -66.5 94s-23.333 72.834 -24 111.501c0 32.667 5 64.167 15 94.5s24 57.833 42 82.5s39.667 46.167 65 64.5s53.333 32.166 84 41.499c49.333 12 95.333 20 138 24s82.5 7.5 119.5 10.5s71.5 7.33301 103.5 13s62 16.5 90 32.5
c42 22.667 63 58.334 63 107.001c-0.666992 29.333 -8 56 -22 80s-32.667 44.5 -56 61.5s-50.166 30.333 -80.499 40s-61.833 14.5 -94.5 14.5c-26.667 0 -53.5 -2.83301 -80.5 -8.5s-52.333 -15 -76 -28s-45 -30.167 -64 -51.5s-33.833 -47.333 -44.5 -78
c-4.66699 -12.667 -9 -22.167 -13 -28.5s-11.667 -10.166 -23 -11.499h-85c-12.667 0 -21.5 5.66699 -26.5 17s-5.83301 23 -2.5 35c9.33301 48.667 28.666 90.834 57.999 126.501s64 65 104 88s83.167 40.167 129.5 51.5s91.166 17 134.499 17
c37.333 0 73.666 -4.66699 108.999 -14s68.166 -22.666 98.499 -39.999s57.333 -38.5 81 -63.5s42.834 -53.167 57.501 -84.5c2 -4 5.16699 -6.16699 9.5 -6.5s8.16602 1.5 11.499 5.5c22 27.333 46.833 53 74.5 77s57.5 45 89.5 63s66 32.333 102 43s73.333 16 112 16z
M737.007 268.992c13.333 17.333 24.001 36.665 32.001 57.998s14 43.333 18 66s6.66699 45 8 67s2 42.333 2 61c0 8.66699 -4.33301 13 -13 13c-32.667 -12 -65 -20.833 -97 -26.5s-64.667 -10.5 -98 -14.5s-67.5 -7.83301 -102.5 -11.5s-71.833 -9.5 -110.5 -17.5
c-21.333 -4.66699 -40.666 -11.667 -57.999 -21s-32 -20.666 -44 -33.999s-21.167 -28.5 -27.5 -45.5s-9.5 -34.833 -9.5 -53.5c0 -42 10 -75.667 30 -101s45.667 -43.666 77 -54.999s66.166 -16.333 104.499 -15s76 7.5 113 18.5s71.167 26.167 102.5 45.5
s55.666 41.333 72.999 66zM1621.01 652.991c17.333 0 23.333 8.66602 18 25.999c-12 36 -28.333 70.333 -49 103s-45 61.5 -73 86.5s-59.5 44.833 -94.5 59.5s-72.833 22 -113.5 22s-79 -7.16699 -115 -21.5s-68.5 -33.666 -97.5 -57.999s-54.167 -53 -75.5 -86
s-37.333 -68.5 -48 -106.5c-4.66699 -16.667 2 -25 20 -25h628z" />
    <glyph glyph-name="ccedilla" unicode="&#xe7;" horiz-adv-x="1142" 
d="M645 -14c-7.33301 -0.666992 -13.333 -2.49805 -18 -5.49805s-7 -7.83301 -7 -14.5c0 -20 0.166992 -36.167 0.5 -48.5s4.83301 -20.833 13.5 -25.5c14 -5.33301 27.167 -12.833 39.5 -22.5s23.166 -21.334 32.499 -35.001s16.666 -28.667 21.999 -45s8 -33.833 8 -52.5
c0 -26 -3.83301 -49.833 -11.5 -71.5s-18.667 -40.334 -33 -56.001s-31.666 -27.834 -51.999 -36.501s-42.833 -13 -67.5 -13c-19.333 0 -37.833 3.16699 -55.5 9.5s-33.667 15.333 -48 27s-26.333 25.667 -36 42s-15.834 34.5 -18.501 54.5
c-1.33301 14.667 5.33398 22 20.001 22h46c10.667 0 17.667 -4.66699 21 -14c4 -17.333 12.667 -31 26 -41s28.333 -15 45 -15c14.667 0 26.834 2.83301 36.501 8.5s17.334 12.834 23.001 21.501s9.66699 18.5 12 29.5s3.5 21.833 3.5 32.5
c0 22.667 -5.66699 42.834 -17 60.501s-29.666 26.5 -54.999 26.5c-10 0.666992 -17.667 -1 -23 -5s-11.333 -6 -18 -6c-5.33301 0 -9.83301 2.16699 -13.5 6.5s-5.5 9.16602 -5.5 14.499l4 137c0 7.33301 -3 12.5 -9 15.5s-11.667 5.16699 -17 6.5
c-63.333 10 -120.666 30.667 -171.999 62s-95 70.5 -131 117.5s-63.667 100.833 -83 161.5s-29 125.334 -29 194.001c0 81.333 12.667 155.666 38 222.999s60.666 125 105.999 173s98.833 85.167 160.5 111.5s129.167 39.5 202.5 39.5c50 0 97.667 -6.66699 143 -20
s87.166 -32.166 125.499 -56.499s72.833 -54 103.5 -89s56 -74.167 76 -117.5c6 -11.333 5.66699 -22 -1 -32s-16 -15 -28 -15h-94c-8 0 -14.333 1.33301 -19 4s-8.66699 7.33398 -12 14.001c-30 55.333 -69.833 99.5 -119.5 132.5s-107.834 49.5 -174.501 49.5
c-53.333 0 -102 -11.333 -146 -34s-81.667 -52.834 -113 -90.501s-55.666 -81 -72.999 -130s-26 -100.167 -26 -153.5c0 -60.667 8.66699 -115.834 26 -165.501s41.666 -92.334 72.999 -128.001s69 -63.167 113 -82.5s92.667 -29 146 -29c74.667 0 139.834 20 195.501 60
s98.5 93.333 128.5 160c3.33301 6 7.16602 11 11.499 15s10.833 6 19.5 6h89c14 -1.33301 23.333 -6.5 28 -15.5s5.66699 -18.167 3 -27.5c-14 -47.333 -34.333 -90.666 -61 -129.999s-58.167 -74 -94.5 -104s-76.5 -54.5 -120.5 -73.5s-90.333 -31.167 -139 -36.5z" />
    <glyph glyph-name="egrave" unicode="&#xe8;" horiz-adv-x="1125" 
d="M1093 558c0 -11.333 -3.33594 -20.167 -10.0029 -26.5s-14.334 -9.5 -23.001 -9.5h-808c-12.667 -0.666992 -19 -8 -19 -22c2.66699 -53.333 13 -102.666 31 -147.999s42.333 -84.5 73 -117.5s67.334 -58.833 110.001 -77.5s90.334 -28 143.001 -28
c66 0 124 15.5 174 46.5s91 71.5 123 121.5c8 11.333 17.667 17 29 17h94c13.333 0 22.666 -5.66699 27.999 -17s5.33301 -22 0 -32c-21.333 -43.333 -47 -82.5 -77 -117.5s-64 -65 -102 -90s-79.5 -44.333 -124.5 -58s-92.833 -20.5 -143.5 -20.5
c-76.667 0 -146.167 14.167 -208.5 42.5s-115.666 67.166 -159.999 116.499s-78.666 107.5 -102.999 174.5s-36.5 139.5 -36.5 217.5c0 80 12.667 153.333 38 220s60.5 124.167 105.5 172.5s98.5 85.833 160.5 112.5s129.667 40 203 40
c74.667 0 142.334 -14.333 203.001 -43s112.667 -66.834 156 -114.501s77.333 -102.667 102 -165s38.667 -127.166 42 -194.499zM903.997 644.999c7.33301 0 12.8301 2.5 16.4971 7.5s4.16699 11.167 1.5 18.5c-12 36 -28.333 70.5 -49 103.5s-45.167 62.167 -73.5 87.5
s-60.166 45.5 -95.499 60.5s-73.333 22.5 -114 22.5s-79.167 -7.16699 -115.5 -21.5s-69.166 -34 -98.499 -59s-54.666 -54.167 -75.999 -87.5s-37.333 -69 -48 -107c-2.66699 -7.33301 -2.16699 -13.333 1.5 -18s9.5 -7 17.5 -7h633zM427.994 1407
c-4.66699 4.66699 -7.16699 9.83301 -7.5 15.5s0.666992 11.167 3 16.5s6 9.83301 11 13.5s10.5 5.5 16.5 5.5h75c14.667 -2 24.667 -7.66699 30 -17l124 -208c4.66699 -8.66699 6 -16.667 4 -24s-5.83301 -13 -11.5 -17s-12.167 -6 -19.5 -6s-14 3.33301 -20 10z" />
    <glyph glyph-name="eacute" unicode="&#xe9;" horiz-adv-x="1125" 
d="M1093 558c0 -11.333 -3.33594 -20.167 -10.0029 -26.5s-14.334 -9.5 -23.001 -9.5h-808c-12.667 -0.666992 -19 -8 -19 -22c2.66699 -53.333 13 -102.666 31 -147.999s42.333 -84.5 73 -117.5s67.334 -58.833 110.001 -77.5s90.334 -28 143.001 -28
c66 0 124 15.5 174 46.5s91 71.5 123 121.5c8 11.333 17.667 17 29 17h94c13.333 0 22.666 -5.66699 27.999 -17s5.33301 -22 0 -32c-21.333 -43.333 -47 -82.5 -77 -117.5s-64 -65 -102 -90s-79.5 -44.333 -124.5 -58s-92.833 -20.5 -143.5 -20.5
c-76.667 0 -146.167 14.167 -208.5 42.5s-115.666 67.166 -159.999 116.499s-78.666 107.5 -102.999 174.5s-36.5 139.5 -36.5 217.5c0 80 12.667 153.333 38 220s60.5 124.167 105.5 172.5s98.5 85.833 160.5 112.5s129.667 40 203 40
c74.667 0 142.334 -14.333 203.001 -43s112.667 -66.834 156 -114.501s77.333 -102.667 102 -165s38.667 -127.166 42 -194.499zM903.997 644.999c7.33301 0 12.8301 2.5 16.4971 7.5s4.16699 11.167 1.5 18.5c-12 36 -28.333 70.5 -49 103.5s-45.167 62.167 -73.5 87.5
s-60.166 45.5 -95.499 60.5s-73.333 22.5 -114 22.5s-79.167 -7.16699 -115.5 -21.5s-69.166 -34 -98.499 -59s-54.666 -54.167 -75.999 -87.5s-37.333 -69 -48 -107c-2.66699 -7.33301 -2.16699 -13.333 1.5 -18s9.5 -7 17.5 -7h633zM539.994 1196
c-6 -7.33301 -12.667 -11.001 -20 -11.001s-13.833 2 -19.5 6s-9.5 9.83301 -11.5 17.5s-0.666992 15.834 4 24.501l124 208c5.33301 9.33301 15.333 15 30 17h76c7.33301 0 13.333 -1.83301 18 -5.5s8 -8.16699 10 -13.5s2.5 -11 1.5 -17s-3.5 -11 -7.5 -15z" />
    <glyph glyph-name="ecircumflex" unicode="&#xea;" horiz-adv-x="1125" 
d="M1093 558c0 -11.333 -3.33594 -20.167 -10.0029 -26.5s-14.334 -9.5 -23.001 -9.5h-808c-12.667 -0.666992 -19 -8 -19 -22c2.66699 -53.333 13 -102.666 31 -147.999s42.333 -84.5 73 -117.5s67.334 -58.833 110.001 -77.5s90.334 -28 143.001 -28
c66 0 124 15.5 174 46.5s91 71.5 123 121.5c8 11.333 17.667 17 29 17h94c13.333 0 22.666 -5.66699 27.999 -17s5.33301 -22 0 -32c-21.333 -43.333 -47 -82.5 -77 -117.5s-64 -65 -102 -90s-79.5 -44.333 -124.5 -58s-92.833 -20.5 -143.5 -20.5
c-76.667 0 -146.167 14.167 -208.5 42.5s-115.666 67.166 -159.999 116.499s-78.666 107.5 -102.999 174.5s-36.5 139.5 -36.5 217.5c0 80 12.667 153.333 38 220s60.5 124.167 105.5 172.5s98.5 85.833 160.5 112.5s129.667 40 203 40
c74.667 0 142.334 -14.333 203.001 -43s112.667 -66.834 156 -114.501s77.333 -102.667 102 -165s38.667 -127.166 42 -194.499zM903.997 644.999c7.33301 0 12.8301 2.5 16.4971 7.5s4.16699 11.167 1.5 18.5c-12 36 -28.333 70.5 -49 103.5s-45.167 62.167 -73.5 87.5
s-60.166 45.5 -95.499 60.5s-73.333 22.5 -114 22.5s-79.167 -7.16699 -115.5 -21.5s-69.166 -34 -98.499 -59s-54.666 -54.167 -75.999 -87.5s-37.333 -69 -48 -107c-2.66699 -7.33301 -2.16699 -13.333 1.5 -18s9.5 -7 17.5 -7h633zM837.994 1238
c10.667 -10.667 13.5039 -21.833 8.50391 -33.5s-14.5 -17.5 -28.5 -17.5h-75c-12.667 0 -22.334 5.33301 -29.001 16l-120 196c-2.66699 5.33301 -6.5 7.83301 -11.5 7.5s-8.5 -2.83301 -10.5 -7.5l-120 -196c-6.66699 -10.667 -17 -16 -31 -16h-74
c-15.333 0 -24.833 6 -28.5 18s-0.833984 23 8.49902 33l199 208c7.33301 8.66699 16.666 13 27.999 13h58c9.33301 0 17.666 -4.33301 24.999 -13z" />
    <glyph glyph-name="edieresis" unicode="&#xeb;" horiz-adv-x="1125" 
d="M1093 558c0 -11.333 -3.33594 -20.167 -10.0029 -26.5s-14.334 -9.5 -23.001 -9.5h-808c-12.667 -0.666992 -19 -8 -19 -22c2.66699 -53.333 13 -102.666 31 -147.999s42.333 -84.5 73 -117.5s67.334 -58.833 110.001 -77.5s90.334 -28 143.001 -28
c66 0 124 15.5 174 46.5s91 71.5 123 121.5c8 11.333 17.667 17 29 17h94c13.333 0 22.666 -5.66699 27.999 -17s5.33301 -22 0 -32c-21.333 -43.333 -47 -82.5 -77 -117.5s-64 -65 -102 -90s-79.5 -44.333 -124.5 -58s-92.833 -20.5 -143.5 -20.5
c-76.667 0 -146.167 14.167 -208.5 42.5s-115.666 67.166 -159.999 116.499s-78.666 107.5 -102.999 174.5s-36.5 139.5 -36.5 217.5c0 80 12.667 153.333 38 220s60.5 124.167 105.5 172.5s98.5 85.833 160.5 112.5s129.667 40 203 40
c74.667 0 142.334 -14.333 203.001 -43s112.667 -66.834 156 -114.501s77.333 -102.667 102 -165s38.667 -127.166 42 -194.499zM903.997 644.999c7.33301 0 12.8301 2.5 16.4971 7.5s4.16699 11.167 1.5 18.5c-12 36 -28.333 70.5 -49 103.5s-45.167 62.167 -73.5 87.5
s-60.166 45.5 -95.499 60.5s-73.333 22.5 -114 22.5s-79.167 -7.16699 -115.5 -21.5s-69.166 -34 -98.499 -59s-54.666 -54.167 -75.999 -87.5s-37.333 -69 -48 -107c-2.66699 -7.33301 -2.16699 -13.333 1.5 -18s9.5 -7 17.5 -7h633zM706.994 1259
c-9.33301 0 -17.168 3 -23.501 9s-9.5 13.667 -9.5 23l2 136c0 9.33301 3 16.833 9 22.5s13.333 8.5 22 8.5h65c8.66699 0 16 -3 22 -9s9 -13.667 9 -23l3 -135c0 -9.33301 -3.16699 -17 -9.5 -23s-14.166 -9 -23.499 -9h-66zM423.992 1259c-9.33301 0 -17.168 3 -23.501 9
s-9.5 13.667 -9.5 23l2 136c0 9.33301 3 16.833 9 22.5s13.333 8.5 22 8.5h65c8.66699 0 16 -3 22 -9s9 -13.667 9 -23l3 -135c0 -9.33301 -3.16699 -17 -9.5 -23s-14.166 -9 -23.499 -9h-66z" />
    <glyph glyph-name="igrave" unicode="&#xec;" horiz-adv-x="426" 
d="M309 33c0 -9.33301 -3 -16.833 -9 -22.5s-13.667 -9.16699 -23 -10.5h-110c-9.33301 0 -17.333 3.16699 -24 9.5s-10 14.5 -10 24.5l18 989c0 9.33301 3 17 9 23s13.667 9 23 9h77c8.66699 0 16 -3 22 -9s9.33301 -14 10 -24zM68 1407
c-4.66699 4.66699 -7.16699 9.83301 -7.5 15.5s0.666992 11.167 3 16.5s6 9.83301 11 13.5s10.5 5.5 16.5 5.5h75c14.667 -2 24.667 -7.66699 30 -17l124 -208c4.66699 -8.66699 6 -16.667 4 -24s-5.83301 -13 -11.5 -17s-12.167 -6 -19.5 -6s-14 3.33301 -20 10z" />
    <glyph glyph-name="iacute" unicode="&#xed;" horiz-adv-x="447" 
d="M276 33c0 -9.33301 -2.99902 -16.833 -8.99902 -22.5s-13.667 -9.16699 -23 -10.5h-111c-8.66699 0 -16.334 3.16699 -23.001 9.5s-10 14.5 -10 24.5l18 989c0 9.33301 3 17 9 23s13.667 9 23 9h76c9.33301 0 17 -3 23 -9s9.33301 -14 10 -24zM183.001 1196
c-6 -7.33301 -12.667 -11.001 -20 -11.001s-13.833 2 -19.5 6s-9.5 9.83301 -11.5 17.5s-0.666992 15.834 4 24.501l124 208c5.33301 9.33301 15.333 15 30 17h76c7.33301 0 13.333 -1.83301 18 -5.5s8 -8.16699 10 -13.5s2.5 -11 1.5 -17s-3.5 -11 -7.5 -15z" />
    <glyph glyph-name="icircumflex" unicode="&#xee;" horiz-adv-x="642" 
d="M405 33c0 -9.33301 -3 -16.833 -9 -22.5s-13.667 -9.16699 -23 -10.5h-110c-9.33301 0 -17.333 3.16699 -24 9.5s-10 14.5 -10 24.5l18 989c0 9.33301 3 17 9 23s13.667 9 23 9h77c8.66699 0 16 -3 22 -9s9.33301 -14 10 -24zM571 1237
c10.667 -10.667 13.5039 -21.833 8.50391 -33.5s-14.5 -17.5 -28.5 -17.5h-75c-12.667 0 -22.334 5.33301 -29.001 16l-120 196c-2.66699 5.33301 -6.5 7.83301 -11.5 7.5s-8.5 -2.83301 -10.5 -7.5l-120 -196c-6.66699 -10.667 -17 -16 -31 -16h-74
c-15.333 0 -24.833 6 -28.5 18s-0.833984 23 8.49902 33l199 208c7.33301 8.66699 16.666 13 27.999 13h58c9.33301 0 17.666 -4.33301 24.999 -13z" />
    <glyph glyph-name="idieresis" unicode="&#xef;" horiz-adv-x="533" 
d="M348 33c0 -9.33301 -2.99902 -16.833 -8.99902 -22.5s-13.667 -9.16699 -23 -10.5h-111c-8.66699 0 -16.334 3.16699 -23.001 9.5s-10 14.5 -10 24.5l18 989c0 9.33301 3 17 9 23s13.667 9 23 9h76c9.33301 0 17 -3 23 -9s9.33301 -14 10 -24zM83.001 1259
c-9.33301 0 -17.168 3 -23.501 9s-9.5 13.667 -9.5 23l2 136c0 9.33301 3 16.833 9 22.5s13.333 8.5 22 8.5h65c8.66699 0 16 -3 22 -9s9 -13.667 9 -23l3 -135c0 -9.33301 -3.16699 -17 -9.5 -23s-14.166 -9 -23.499 -9h-66zM373.999 1259c-9.33301 0 -17.168 3 -23.501 9
s-9.5 13.667 -9.5 23l2 136c0 9.33301 3 16.833 9 22.5s13.333 8.5 22 8.5h65c8.66699 0 16 -3 22 -9s9 -13.667 9 -23l3 -135c0 -9.33301 -3.16699 -17 -9.5 -23s-14.166 -9 -23.499 -9h-66z" />
    <glyph glyph-name="ntilde" unicode="&#xf1;" horiz-adv-x="1070" 
d="M963 34c0 -9.33301 -3.16504 -17.3369 -9.49805 -24.0039s-14.166 -10 -23.499 -10h-107c-9.33301 0 -17.666 2.83301 -24.999 8.5s-11 14.167 -11 25.5l13 693c-1.33301 30 -6.83301 58.333 -16.5 85s-23.334 49.834 -41.001 69.501s-39 35.167 -64 46.5
s-52.833 17 -83.5 17c-38.667 0 -77.667 -9.5 -117 -28.5s-75 -43.5 -107 -73.5s-58.167 -63.167 -78.5 -99.5s-30.833 -71.5 -31.5 -105.5l10 -604c0 -9.33301 -2.83301 -17.333 -8.5 -24s-13.167 -10 -22.5 -10h-109c-9.33301 0 -17.333 2.83301 -24 8.5
s-10.334 14.167 -11.001 25.5l17 988c0 10 3.16699 18 9.5 24s14.166 9 23.499 9h75c9.33301 0 17.166 -3.16699 23.499 -9.5s9.5 -14.166 9.5 -23.499l1 -107c0 -8 4 -13.5 12 -16.5s14.667 -1.83301 20 3.5c43.333 52 95.166 93.833 155.499 125.5
s128.833 47.5 205.5 47.5c40 0 78.333 -7.16699 115 -21.5s68.834 -34.666 96.501 -60.999s49.667 -57.666 66 -93.999s24.5 -76.5 24.5 -120.5zM775.002 1441c-0.666992 -22 -5 -42.668 -13 -62.001s-18.833 -36.166 -32.5 -50.499s-29.834 -25.5 -48.501 -33.5
s-38.334 -12 -59.001 -12c-26 0 -48.333 4.83301 -67 14.5s-36 20.5 -52 32.5s-32.5 22.833 -49.5 32.5s-37.167 14.5 -60.5 14.5c-27.333 0 -51.666 -7.16699 -72.999 -21.5s-40 -32.166 -56 -53.499c-5.33301 -5.33301 -12.166 -7.16602 -20.499 -5.49902
s-12.5 6.5 -12.5 14.5c0 22 3.83301 43 11.5 63s18.5 37.833 32.5 53.5s30.833 28 50.5 37s41.5 13.5 65.5 13.5c26 0 47.167 -4.83301 63.5 -14.5s32 -20.167 47 -31.5s31.5 -21.833 49.5 -31.5s41.667 -14.5 71 -14.5c27.333 0 50.833 6.83301 70.5 20.5
s36.834 28.167 51.501 43.5c2 3.33301 4.83301 5.66602 8.5 6.99902s7.16699 1.5 10.5 0.5s6.16602 -2.83301 8.49902 -5.5s3.5 -6.33398 3.5 -11.001z" />
    <glyph glyph-name="ograve" unicode="&#xf2;" horiz-adv-x="1154" 
d="M591 -21c-75.333 0 -144.167 14.5 -206.5 43.5s-115.833 68.5 -160.5 118.5s-79.334 108.333 -104.001 175s-37 137.334 -37 212.001c0 73.333 12.333 143 37 209s59.334 124 104.001 174s98.167 89.833 160.5 119.5s131.166 44.5 206.499 44.5
c74.667 0 143 -14.833 205 -44.5s115.333 -69.5 160 -119.5s79.334 -108 104.001 -174s37 -135.667 37 -209c0 -74.667 -12.5 -145.334 -37.5 -212.001s-59.833 -125 -104.5 -175s-98 -89.5 -160 -118.5s-130 -43.5 -204 -43.5zM948.999 528
c0 51.333 -8.67188 101.835 -26.0049 151.502s-41.666 94.167 -72.999 133.5s-69 71.166 -113 95.499s-92.667 36.5 -146 36.5c-55.333 0 -105.166 -11.667 -149.499 -35s-82.166 -54 -113.499 -92s-55.333 -81.5 -72 -130.5s-25 -99.167 -25 -150.5
c0 -61.333 9.33301 -117.166 28 -167.499s44.334 -93.333 77.001 -129s70.834 -63.167 114.501 -82.5s90.5 -29 140.5 -29c48 0 93.333 9.33301 136 28s80.334 45.167 113.001 79.5s58.667 76.166 78 125.499s29.666 104.666 30.999 165.999zM449.994 1407
c-4.66699 4.66699 -7.16699 9.83301 -7.5 15.5s0.666992 11.167 3 16.5s6 9.83301 11 13.5s10.5 5.5 16.5 5.5h75c14.667 -2 24.667 -7.66699 30 -17l124 -208c4.66699 -8.66699 6 -16.667 4 -24s-5.83301 -13 -11.5 -17s-12.167 -6 -19.5 -6s-14 3.33301 -20 10z" />
    <glyph glyph-name="oacute" unicode="&#xf3;" horiz-adv-x="1154" 
d="M591 -21c-75.333 0 -144.167 14.5 -206.5 43.5s-115.833 68.5 -160.5 118.5s-79.334 108.333 -104.001 175s-37 137.334 -37 212.001c0 73.333 12.333 143 37 209s59.334 124 104.001 174s98.167 89.833 160.5 119.5s131.166 44.5 206.499 44.5
c74.667 0 143 -14.833 205 -44.5s115.333 -69.5 160 -119.5s79.334 -108 104.001 -174s37 -135.667 37 -209c0 -74.667 -12.5 -145.334 -37.5 -212.001s-59.833 -125 -104.5 -175s-98 -89.5 -160 -118.5s-130 -43.5 -204 -43.5zM948.999 528
c0 51.333 -8.67188 101.835 -26.0049 151.502s-41.666 94.167 -72.999 133.5s-69 71.166 -113 95.499s-92.667 36.5 -146 36.5c-55.333 0 -105.166 -11.667 -149.499 -35s-82.166 -54 -113.499 -92s-55.333 -81.5 -72 -130.5s-25 -99.167 -25 -150.5
c0 -61.333 9.33301 -117.166 28 -167.499s44.334 -93.333 77.001 -129s70.834 -63.167 114.501 -82.5s90.5 -29 140.5 -29c48 0 93.333 9.33301 136 28s80.334 45.167 113.001 79.5s58.667 76.166 78 125.499s29.666 104.666 30.999 165.999zM537.994 1196
c-6 -7.33301 -12.667 -11.001 -20 -11.001s-13.833 2 -19.5 6s-9.5 9.83301 -11.5 17.5s-0.666992 15.834 4 24.501l124 208c5.33301 9.33301 15.333 15 30 17h76c7.33301 0 13.333 -1.83301 18 -5.5s8 -8.16699 10 -13.5s2.5 -11 1.5 -17s-3.5 -11 -7.5 -15z" />
    <glyph glyph-name="ocircumflex" unicode="&#xf4;" horiz-adv-x="1154" 
d="M591 -21c-75.333 0 -144.167 14.5 -206.5 43.5s-115.833 68.5 -160.5 118.5s-79.334 108.333 -104.001 175s-37 137.334 -37 212.001c0 73.333 12.333 143 37 209s59.334 124 104.001 174s98.167 89.833 160.5 119.5s131.166 44.5 206.499 44.5
c74.667 0 143 -14.833 205 -44.5s115.333 -69.5 160 -119.5s79.334 -108 104.001 -174s37 -135.667 37 -209c0 -74.667 -12.5 -145.334 -37.5 -212.001s-59.833 -125 -104.5 -175s-98 -89.5 -160 -118.5s-130 -43.5 -204 -43.5zM948.999 528
c0 51.333 -8.67188 101.835 -26.0049 151.502s-41.666 94.167 -72.999 133.5s-69 71.166 -113 95.499s-92.667 36.5 -146 36.5c-55.333 0 -105.166 -11.667 -149.499 -35s-82.166 -54 -113.499 -92s-55.333 -81.5 -72 -130.5s-25 -99.167 -25 -150.5
c0 -61.333 9.33301 -117.166 28 -167.499s44.334 -93.333 77.001 -129s70.834 -63.167 114.501 -82.5s90.5 -29 140.5 -29c48 0 93.333 9.33301 136 28s80.334 45.167 113.001 79.5s58.667 76.166 78 125.499s29.666 104.666 30.999 165.999zM852.994 1238
c10.667 -10.667 13.5039 -21.833 8.50391 -33.5s-14.5 -17.5 -28.5 -17.5h-75c-12.667 0 -22.334 5.33301 -29.001 16l-120 196c-2.66699 5.33301 -6.5 7.83301 -11.5 7.5s-8.5 -2.83301 -10.5 -7.5l-120 -196c-6.66699 -10.667 -17 -16 -31 -16h-74
c-15.333 0 -24.833 6 -28.5 18s-0.833984 23 8.49902 33l199 208c7.33301 8.66699 16.666 13 27.999 13h58c9.33301 0 17.666 -4.33301 24.999 -13z" />
    <glyph glyph-name="otilde" unicode="&#xf5;" horiz-adv-x="1154" 
d="M591 -21c-75.333 0 -144.167 14.5 -206.5 43.5s-115.833 68.5 -160.5 118.5s-79.334 108.333 -104.001 175s-37 137.334 -37 212.001c0 73.333 12.333 143 37 209s59.334 124 104.001 174s98.167 89.833 160.5 119.5s131.166 44.5 206.499 44.5
c74.667 0 143 -14.833 205 -44.5s115.333 -69.5 160 -119.5s79.334 -108 104.001 -174s37 -135.667 37 -209c0 -74.667 -12.5 -145.334 -37.5 -212.001s-59.833 -125 -104.5 -175s-98 -89.5 -160 -118.5s-130 -43.5 -204 -43.5zM948.999 528
c0 51.333 -8.67188 101.835 -26.0049 151.502s-41.666 94.167 -72.999 133.5s-69 71.166 -113 95.499s-92.667 36.5 -146 36.5c-55.333 0 -105.166 -11.667 -149.499 -35s-82.166 -54 -113.499 -92s-55.333 -81.5 -72 -130.5s-25 -99.167 -25 -150.5
c0 -61.333 9.33301 -117.166 28 -167.499s44.334 -93.333 77.001 -129s70.834 -63.167 114.501 -82.5s90.5 -29 140.5 -29c48 0 93.333 9.33301 136 28s80.334 45.167 113.001 79.5s58.667 76.166 78 125.499s29.666 104.666 30.999 165.999zM867.994 1441
c-0.666992 -22 -5 -42.668 -13 -62.001s-18.833 -36.166 -32.5 -50.499s-29.834 -25.5 -48.501 -33.5s-38.334 -12 -59.001 -12c-26 0 -48.333 4.83301 -67 14.5s-36 20.5 -52 32.5s-32.5 22.833 -49.5 32.5s-37.167 14.5 -60.5 14.5
c-27.333 0 -51.666 -7.16699 -72.999 -21.5s-40 -32.166 -56 -53.499c-5.33301 -5.33301 -12.166 -7.16602 -20.499 -5.49902s-12.5 6.5 -12.5 14.5c0 22 3.83301 43 11.5 63s18.5 37.833 32.5 53.5s30.833 28 50.5 37s41.5 13.5 65.5 13.5c26 0 47.167 -4.83301 63.5 -14.5
s32 -20.167 47 -31.5s31.5 -21.833 49.5 -31.5s41.667 -14.5 71 -14.5c27.333 0 50.833 6.83301 70.5 20.5s36.834 28.167 51.501 43.5c2 3.33301 4.83301 5.66602 8.5 6.99902s7.16699 1.5 10.5 0.5s6.16602 -2.83301 8.49902 -5.5s3.5 -6.33398 3.5 -11.001z" />
    <glyph glyph-name="odieresis" unicode="&#xf6;" horiz-adv-x="1154" 
d="M591 -21c-75.333 0 -144.167 14.5 -206.5 43.5s-115.833 68.5 -160.5 118.5s-79.334 108.333 -104.001 175s-37 137.334 -37 212.001c0 73.333 12.333 143 37 209s59.334 124 104.001 174s98.167 89.833 160.5 119.5s131.166 44.5 206.499 44.5
c74.667 0 143 -14.833 205 -44.5s115.333 -69.5 160 -119.5s79.334 -108 104.001 -174s37 -135.667 37 -209c0 -74.667 -12.5 -145.334 -37.5 -212.001s-59.833 -125 -104.5 -175s-98 -89.5 -160 -118.5s-130 -43.5 -204 -43.5zM948.999 528
c0 51.333 -8.67188 101.835 -26.0049 151.502s-41.666 94.167 -72.999 133.5s-69 71.166 -113 95.499s-92.667 36.5 -146 36.5c-55.333 0 -105.166 -11.667 -149.499 -35s-82.166 -54 -113.499 -92s-55.333 -81.5 -72 -130.5s-25 -99.167 -25 -150.5
c0 -61.333 9.33301 -117.166 28 -167.499s44.334 -93.333 77.001 -129s70.834 -63.167 114.501 -82.5s90.5 -29 140.5 -29c48 0 93.333 9.33301 136 28s80.334 45.167 113.001 79.5s58.667 76.166 78 125.499s29.666 104.666 30.999 165.999zM708.994 1259
c-9.33301 0 -17.168 3 -23.501 9s-9.5 13.667 -9.5 23l2 136c0 9.33301 3 16.833 9 22.5s13.333 8.5 22 8.5h65c8.66699 0 16 -3 22 -9s9 -13.667 9 -23l3 -135c0 -9.33301 -3.16699 -17 -9.5 -23s-14.166 -9 -23.499 -9h-66zM425.992 1259c-9.33301 0 -17.168 3 -23.501 9
s-9.5 13.667 -9.5 23l2 136c0 9.33301 3 16.833 9 22.5s13.333 8.5 22 8.5h65c8.66699 0 16 -3 22 -9s9 -13.667 9 -23l3 -135c0 -9.33301 -3.16699 -17 -9.5 -23s-14.166 -9 -23.499 -9h-66z" />
    <glyph glyph-name="oslash" unicode="&#xf8;" horiz-adv-x="1182" 
d="M592 -21c-57.333 0 -110.665 9.00195 -159.998 27.002s-94 42 -134 72l-59 -69c-5.33301 -6 -11.833 -9 -19.5 -9s-14.834 3 -21.501 9l-54 45c-6 5.33301 -9.83301 11.833 -11.5 19.5s0.166016 14.5 5.49902 20.5l65 76c-38 48 -67.333 102.5 -88 163.5
s-31 125.833 -31 194.5c0 73.333 12.333 143 37 209s59.334 124 104.001 174s98.167 89.833 160.5 119.5s131.166 44.5 206.499 44.5c58.667 0 113.334 -9.5 164.001 -28.5s96.667 -44.833 138 -77.5l67 77c5.33301 6 12 9.16699 20 9.5s15.667 -2.5 23 -8.5l53 -45
c6.66699 -5.33301 10.667 -12 12 -20s-0.666992 -15 -6 -21l-76 -88c35.333 -48 62.666 -101.333 81.999 -160s29 -120.334 29 -185.001c0 -74.667 -12.5 -145.334 -37.5 -212.001s-59.833 -125 -104.5 -175s-98 -89.5 -160 -118.5s-130 -43.5 -204 -43.5zM592.001 945.002
c-55.333 0 -105.168 -11.668 -149.501 -35.001s-82.166 -54 -113.499 -92s-55.333 -81.5 -72 -130.5s-25 -99.167 -25 -150.5c0 -50 6.33301 -96.167 19 -138.5s30 -80.166 52 -113.499l499 577c-28.667 24.667 -60.5 44.667 -95.5 60s-73.167 23 -114.5 23z
M949.999 528.001c0 40 -5.33301 79.833 -16 119.5s-26 76.5 -46 110.5l-491 -567c55.333 -39.333 120.333 -59 195 -59c48 0 93.333 9.16699 136 27.5s80.334 44.5 113.001 78.5s58.667 75.5 78 124.5s29.666 104.167 30.999 165.5z" />
    <glyph glyph-name="ugrave" unicode="&#xf9;" horiz-adv-x="1074" 
d="M953 33c0 -9.33301 -2.99414 -17.166 -8.99414 -23.499s-13.667 -9.5 -23 -9.5h-111c-8.66699 0 -16.334 3.16699 -23.001 9.5s-10 14.5 -10 24.5l1 81c0 11.333 -4 18 -12 20s-14.667 -0.666992 -20 -8c-34.667 -42.667 -76.834 -78 -126.501 -106
s-104.834 -42 -165.501 -42c-59.333 0 -111.833 10.667 -157.5 32s-84 50 -115 86s-54.333 77.667 -70 125s-22.834 97 -21.501 149l13 652c0 9.33301 3 17 9 23s13.333 9 22 9h77c9.33301 0 17.166 -3 23.499 -9s9.5 -14 9.5 -24l11 -648
c3.33301 -78.667 24.166 -139.167 62.499 -181.5s89.833 -63.5 154.5 -63.5c35.333 0 71.333 6.33301 108 19s70 31.5 100 56.5s54.667 56.167 74 93.5s29.333 80.333 30 129l11 595c0 9.33301 3 17.166 9 23.499s13.667 9.5 23 9.5h77c9.33301 0 17 -3.16699 23 -9.5
s9 -14.5 9 -24.5zM427.006 1407c-4.66699 4.66699 -7.16699 9.83301 -7.5 15.5s0.666992 11.167 3 16.5s6 9.83301 11 13.5s10.5 5.5 16.5 5.5h75c14.667 -2 24.667 -7.66699 30 -17l124 -208c4.66699 -8.66699 6 -16.667 4 -24s-5.83301 -13 -11.5 -17s-12.167 -6 -19.5 -6
s-14 3.33301 -20 10z" />
    <glyph glyph-name="uacute" unicode="&#xfa;" horiz-adv-x="1074" 
d="M953 33c0 -9.33301 -2.99414 -17.166 -8.99414 -23.499s-13.667 -9.5 -23 -9.5h-111c-8.66699 0 -16.334 3.16699 -23.001 9.5s-10 14.5 -10 24.5l1 81c0 11.333 -4 18 -12 20s-14.667 -0.666992 -20 -8c-34.667 -42.667 -76.834 -78 -126.501 -106
s-104.834 -42 -165.501 -42c-59.333 0 -111.833 10.667 -157.5 32s-84 50 -115 86s-54.333 77.667 -70 125s-22.834 97 -21.501 149l13 652c0 9.33301 3 17 9 23s13.333 9 22 9h77c9.33301 0 17.166 -3 23.499 -9s9.5 -14 9.5 -24l11 -648
c3.33301 -78.667 24.166 -139.167 62.499 -181.5s89.833 -63.5 154.5 -63.5c35.333 0 71.333 6.33301 108 19s70 31.5 100 56.5s54.667 56.167 74 93.5s29.333 80.333 30 129l11 595c0 9.33301 3 17.166 9 23.499s13.667 9.5 23 9.5h77c9.33301 0 17 -3.16699 23 -9.5
s9 -14.5 9 -24.5zM534.006 1196c-6 -7.33301 -12.667 -11.001 -20 -11.001s-13.833 2 -19.5 6s-9.5 9.83301 -11.5 17.5s-0.666992 15.834 4 24.501l124 208c5.33301 9.33301 15.333 15 30 17h76c7.33301 0 13.333 -1.83301 18 -5.5s8 -8.16699 10 -13.5s2.5 -11 1.5 -17
s-3.5 -11 -7.5 -15z" />
    <glyph glyph-name="ucircumflex" unicode="&#xfb;" horiz-adv-x="1074" 
d="M953 33c0 -9.33301 -2.99414 -17.166 -8.99414 -23.499s-13.667 -9.5 -23 -9.5h-111c-8.66699 0 -16.334 3.16699 -23.001 9.5s-10 14.5 -10 24.5l1 81c0 11.333 -4 18 -12 20s-14.667 -0.666992 -20 -8c-34.667 -42.667 -76.834 -78 -126.501 -106
s-104.834 -42 -165.501 -42c-59.333 0 -111.833 10.667 -157.5 32s-84 50 -115 86s-54.333 77.667 -70 125s-22.834 97 -21.501 149l13 652c0 9.33301 3 17 9 23s13.333 9 22 9h77c9.33301 0 17.166 -3 23.499 -9s9.5 -14 9.5 -24l11 -648
c3.33301 -78.667 24.166 -139.167 62.499 -181.5s89.833 -63.5 154.5 -63.5c35.333 0 71.333 6.33301 108 19s70 31.5 100 56.5s54.667 56.167 74 93.5s29.333 80.333 30 129l11 595c0 9.33301 3 17.166 9 23.499s13.667 9.5 23 9.5h77c9.33301 0 17 -3.16699 23 -9.5
s9 -14.5 9 -24.5zM780.006 1238c10.667 -10.667 13.5039 -21.833 8.50391 -33.5s-14.5 -17.5 -28.5 -17.5h-75c-12.667 0 -22.334 5.33301 -29.001 16l-120 196c-2.66699 5.33301 -6.5 7.83301 -11.5 7.5s-8.5 -2.83301 -10.5 -7.5l-120 -196
c-6.66699 -10.667 -17 -16 -31 -16h-74c-15.333 0 -24.833 6 -28.5 18s-0.833984 23 8.49902 33l199 208c7.33301 8.66699 16.666 13 27.999 13h58c9.33301 0 17.666 -4.33301 24.999 -13z" />
    <glyph glyph-name="udieresis" unicode="&#xfc;" horiz-adv-x="1074" 
d="M953 33c0 -9.33301 -2.99414 -17.166 -8.99414 -23.499s-13.667 -9.5 -23 -9.5h-111c-8.66699 0 -16.334 3.16699 -23.001 9.5s-10 14.5 -10 24.5l1 81c0 11.333 -4 18 -12 20s-14.667 -0.666992 -20 -8c-34.667 -42.667 -76.834 -78 -126.501 -106
s-104.834 -42 -165.501 -42c-59.333 0 -111.833 10.667 -157.5 32s-84 50 -115 86s-54.333 77.667 -70 125s-22.834 97 -21.501 149l13 652c0 9.33301 3 17 9 23s13.333 9 22 9h77c9.33301 0 17.166 -3 23.499 -9s9.5 -14 9.5 -24l11 -648
c3.33301 -78.667 24.166 -139.167 62.499 -181.5s89.833 -63.5 154.5 -63.5c35.333 0 71.333 6.33301 108 19s70 31.5 100 56.5s54.667 56.167 74 93.5s29.333 80.333 30 129l11 595c0 9.33301 3 17.166 9 23.499s13.667 9.5 23 9.5h77c9.33301 0 17 -3.16699 23 -9.5
s9 -14.5 9 -24.5zM386.006 1259c-9.33301 0 -17.168 3 -23.501 9s-9.5 13.667 -9.5 23l2 136c0 9.33301 3 16.833 9 22.5s13.333 8.5 22 8.5h65c8.66699 0 16 -3 22 -9s9 -13.667 9 -23l3 -135c0 -9.33301 -3.16699 -17 -9.5 -23s-14.166 -9 -23.499 -9h-66zM669.004 1259
c-9.33301 0 -17.168 3 -23.501 9s-9.5 13.667 -9.5 23l2 136c0 9.33301 3 16.833 9 22.5s13.333 8.5 22 8.5h65c8.66699 0 16 -3 22 -9s9 -13.667 9 -23l3 -135c0 -9.33301 -3.16699 -17 -9.5 -23s-14.166 -9 -23.499 -9h-66z" />
    <glyph glyph-name="yacute" unicode="&#xfd;" horiz-adv-x="1024" 
d="M543 1196c-6 -7.33301 -12.667 -11.001 -20 -11.001s-13.833 2 -19.5 6s-9.5 9.83301 -11.5 17.5s-0.666992 15.834 4 24.501l124 208c5.33301 9.33301 15.333 15 30 17h76c7.33301 0 13.333 -1.83301 18 -5.5s8 -8.16699 10 -13.5s2.5 -11 1.5 -17s-3.5 -11 -7.5 -15z
M970 1055c11.333 0 20 -4.49902 26 -13.499s7.33301 -18.5 4 -28.5l-514 -1430c-2.66699 -7.33301 -6.83398 -13 -12.501 -17s-12.167 -6 -19.5 -6h-112c-12 0 -20.667 5 -26 15s-5.66602 20.333 -0.999023 31l142 348c2 5.33301 2.33301 10.666 1 15.999l-373 1042
c-3.33301 11.333 -2 21.333 4 30s14.667 13 26 13h76c16.667 0 27.334 -7.33301 32.001 -22l296 -818c4 -9.33301 10.167 -13.5 18.5 -12.5s14.166 5.16699 17.499 12.5l307 818c4.66699 14.667 15 22 31 22h77z" />
    <glyph glyph-name="ydieresis" unicode="&#xff;" horiz-adv-x="1024" 
d="M970 1055c11.333 0 20 -4.49902 26 -13.499s7.33301 -18.5 4 -28.5l-514 -1430c-2.66699 -7.33301 -6.83398 -13 -12.501 -17s-12.167 -6 -19.5 -6h-112c-12 0 -20.667 5 -26 15s-5.66602 20.333 -0.999023 31l142 348c2 5.33301 2.33301 10.666 1 15.999l-373 1042
c-3.33301 11.333 -2 21.333 4 30s14.667 13 26 13h76c16.667 0 27.334 -7.33301 32.001 -22l296 -818c4 -9.33301 10.167 -13.5 18.5 -12.5s14.166 5.16699 17.499 12.5l307 818c4.66699 14.667 15 22 31 22h77zM348 1259c-9.33301 0 -17.168 3 -23.501 9
s-9.5 13.667 -9.5 23l2 136c0 9.33301 3 16.833 9 22.5s13.333 8.5 22 8.5h65c8.66699 0 16 -3 22 -9s9 -13.667 9 -23l3 -135c0 -9.33301 -3.16699 -17 -9.5 -23s-14.166 -9 -23.499 -9h-66zM630.998 1259c-9.33301 0 -17.168 3 -23.501 9s-9.5 13.667 -9.5 23l2 136
c0 9.33301 3 16.833 9 22.5s13.333 8.5 22 8.5h65c8.66699 0 16 -3 22 -9s9 -13.667 9 -23l3 -135c0 -9.33301 -3.16699 -17 -9.5 -23s-14.166 -9 -23.499 -9h-66z" />
    <glyph glyph-name="OE" unicode="&#x152;" horiz-adv-x="2019" 
d="M1938 33c0 -9.33301 -3.1709 -17.167 -9.50391 -23.5s-14.166 -9.5 -23.499 -9.5h-864c-6.66699 -1.33301 -19.167 -3 -37.5 -5s-39.833 -3.83301 -64.5 -5.5s-50.834 -3 -78.501 -4s-54.167 -1.5 -79.5 -1.5c-103.333 0.666992 -197.666 20.667 -282.999 60
s-158.666 93.166 -219.999 161.499s-109 148.5 -143 240.5s-51 191.667 -51 299c0 104 17.333 200.833 52 290.5s83.167 167.334 145.5 233.001s136.5 117.167 222.5 154.5s180 56 282 56c25.333 0 52.666 -0.833008 81.999 -2.5s57 -3.83398 83 -6.50098
s48.5 -5.16699 67.5 -7.5l36.5 -4.5h828c8 0 14.667 -2.66699 20 -8s8 -12 8 -20l2 -86c0 -9.33301 -2.16699 -16.666 -6.5 -21.999s-11.166 -8 -20.499 -8h-705c-9.33301 -0.666992 -16.333 -3.83398 -21 -9.50098s-7 -12.5 -7 -20.5l7 -406
c0 -8.66699 2.66699 -15.667 8 -21s12 -8 20 -8h634c20 0 30 -9.33301 30 -28v-88c0 -9.33301 -2.83301 -16.5 -8.5 -21.5s-12.5 -7.5 -20.5 -7.5h-630c-9.33301 0 -16.666 -2.66699 -21.999 -8s-7.66602 -12.333 -6.99902 -21l8 -485c0 -9.33301 2.5 -16.666 7.5 -21.999
s11.833 -8 20.5 -8h702c9.33301 0 17.333 -2.5 24 -7.5s10 -12.167 10 -21.5zM783.996 1340c-78.667 -0.666992 -150.998 -17 -216.998 -49s-123 -75 -171 -129s-85.333 -116.833 -112 -188.5s-40 -147.834 -40 -228.501c0 -82.667 13.167 -160.667 39.5 -234
s63.333 -137.666 111 -192.999s104.667 -99.666 171 -132.999s139.166 -51 218.499 -53c18 0 36.667 0.666992 56 2s38.5 3 57.5 5s37 4.5 54 7.5s31.5 6.16699 43.5 9.5l20 1159c-10.667 3.33301 -24.334 6.5 -41.001 9.5s-35.167 5.66699 -55.5 8s-42 4.16602 -65 5.49902
s-46.167 2 -69.5 2z" />
    <glyph glyph-name="oe" unicode="&#x153;" horiz-adv-x="2002" 
d="M593 -21c-75.333 0 -144.169 14.5 -206.502 43.5s-115.833 68.5 -160.5 118.5s-79.334 108.333 -104.001 175s-37 137.334 -37 212.001c0 73.333 12.333 143 37 209s59.334 124 104.001 174s98.167 89.833 160.5 119.5s131.166 44.5 206.499 44.5
c44.667 0 86.5 -6.33301 125.5 -19s75.167 -30.334 108.5 -53.001s63.666 -49.167 90.999 -79.5s51 -63.166 71 -98.499c10 -14 19 -13.667 27 1c19.333 36 42.5 69.167 69.5 99.5s57.5 56.666 91.5 78.999s70.833 39.666 110.5 51.999s82.167 18.5 127.5 18.5
c74.667 0 142.334 -14.333 203.001 -43s112.667 -66.834 156 -114.501s77.333 -102.667 102 -165s38.667 -127.166 42 -194.499c0 -11.333 -3.33301 -20.166 -10 -26.499s-14.334 -9.5 -23.001 -9.5h-788c-12.667 -0.666992 -19 -7.66699 -19 -21
c0 -4 0.166992 -7.83301 0.5 -11.5s0.833008 -7.5 1.5 -11.5c4.66699 -52.667 15.334 -100.334 32.001 -143.001s39 -79 67 -109s61.833 -53.167 101.5 -69.5s84.5 -24.5 134.5 -24.5c66.667 0 124.834 15 174.501 45s90.5 70 122.5 120c7.33301 11.333 17 17 29 17h94
c13.333 0 22.666 -5.66699 27.999 -17s5.33301 -22 0 -32c-21.333 -43.333 -47 -82.5 -77 -117.5s-64 -65 -102 -90s-79.5 -44.333 -124.5 -58s-92.833 -20.5 -143.5 -20.5c-47.333 0 -91.333 6.5 -132 19.5s-77.667 31 -111 54s-63.333 50.333 -90 82
s-50 65.834 -70 102.501c-2.66699 5.33301 -6.16699 8.16602 -10.5 8.49902s-8.16602 -2.16699 -11.499 -7.5c-20.667 -36 -44.5 -69.833 -71.5 -101.5s-57.167 -59.167 -90.5 -82.5s-69.666 -41.666 -108.999 -54.999s-81.666 -20 -126.999 -20zM930.997 528
c0 52 -7.50391 102.833 -22.5039 152.5s-37 94.167 -66 133.5s-64.5 71 -106.5 95s-89.667 36 -143 36c-55.333 0 -105.166 -11.667 -149.499 -35s-82.166 -54 -113.499 -92s-55.333 -81.5 -72 -130.5s-25 -99.167 -25 -150.5c0 -61.333 9.33301 -117 28 -167
s44.334 -92.667 77.001 -128s70.834 -62.5 114.501 -81.5s90.5 -28.5 140.5 -28.5c47.333 0 91.333 9.16699 132 27.5s76 44.5 106 78.5s53.833 75.5 71.5 124.5s27.167 104.167 28.5 165.5zM1728.99 645c7.33301 0 12.832 2.49902 16.499 7.49902s4.16699 11.167 1.5 18.5
c-12 36 -28.333 70.5 -49 103.5s-45.167 62.167 -73.5 87.5s-60.166 45.666 -95.499 60.999s-73.333 23 -114 23s-78 -7.33301 -112 -22s-64.5 -34.667 -91.5 -60s-50.167 -54.666 -69.5 -87.999s-34.333 -68.666 -45 -105.999c-2.66699 -7.33301 -2.16699 -13.333 1.5 -18
s9.5 -7 17.5 -7h613z" />
    <glyph glyph-name="Ydieresis" unicode="&#x178;" horiz-adv-x="1170" 
d="M1106 1458c14 0 23.667 -5.83203 29 -17.499s4.33301 -23.167 -3 -34.5l-436 -672c-1.33301 -3.33301 -2.66602 -6.5 -3.99902 -9.5s-2 -6.16699 -2 -9.5l12 -681c0 -9.33301 -3.16699 -17.333 -9.5 -24s-14.5 -10 -24.5 -10h-112c-10 0 -18.167 3.33301 -24.5 10
s-9.5 14.667 -9.5 24l11 681c0 7.33301 -1.66699 13.666 -5 18.999l-438 676c-4 4.66699 -5.83301 9.83398 -5.5 15.501s2 11 5 16s7 9.16699 12 12.5s10.833 4.66602 17.5 3.99902h81c11.333 0 20.666 -5.33301 27.999 -16l359 -542c6 -8.66699 13.667 -13 23 -13
c12 0 20 4.66699 24 14l360 539c7.33301 11.333 17.333 17.333 30 18h82zM436 1573c-9.33301 0 -17.168 3 -23.501 9s-9.5 13.667 -9.5 23l2 136c0 9.33301 3 16.833 9 22.5s13.333 8.5 22 8.5h65c8.66699 0 16 -3 22 -9s9 -13.667 9 -23l3 -135
c0 -9.33301 -3.16699 -17 -9.5 -23s-14.166 -9 -23.499 -9h-66zM718.998 1573c-9.33301 0 -17.168 3 -23.501 9s-9.5 13.667 -9.5 23l2 136c0 9.33301 3 16.833 9 22.5s13.333 8.5 22 8.5h65c8.66699 0 16 -3 22 -9s9 -13.667 9 -23l3 -135
c0 -9.33301 -3.16699 -17 -9.5 -23s-14.166 -9 -23.499 -9h-66z" />
    <glyph glyph-name="circumflex" unicode="&#x2c6;" horiz-adv-x="707" 
d="M608 1623c10.667 -10.667 13.5039 -21.833 8.50391 -33.5s-14.5 -17.5 -28.5 -17.5h-75c-12.667 0 -22.334 5.33301 -29.001 16l-120 196c-2.66699 5.33301 -6.5 7.83301 -11.5 7.5s-8.5 -2.83301 -10.5 -7.5l-120 -196c-6.66699 -10.667 -17 -16 -31 -16h-74
c-15.333 0 -24.833 6 -28.5 18s-0.833984 23 8.49902 33l199 208c7.33301 8.66699 16.666 13 27.999 13h58c9.33301 0 17.666 -4.33301 24.999 -13z" />
    <glyph glyph-name="dotaccent" unicode="&#x2d9;" horiz-adv-x="305" 
d="M120 1259c-9.33301 0 -17.168 3 -23.501 9s-9.5 13.667 -9.5 23l2 136c0 9.33301 3 16.833 9 22.5s13.333 8.5 22 8.5h65c8.66699 0 16 -3 22 -9s9 -13.667 9 -23l3 -135c0 -9.33301 -3.16699 -17 -9.5 -23s-14.166 -9 -23.499 -9h-66z" />
    <glyph glyph-name="ring" unicode="&#x2da;" horiz-adv-x="529" 
d="M264 1892c26 0 50 -4.83301 72 -14.5s41.167 -22.667 57.5 -39s29.166 -35.666 38.499 -57.999s14 -45.833 14 -70.5c0 -25.333 -4.66699 -48.833 -14 -70.5s-22.166 -40.667 -38.499 -57s-35.5 -29.166 -57.5 -38.499s-46 -14 -72 -14c-24.667 0 -48 4.66699 -70 14
s-41.167 22.166 -57.5 38.499s-29.333 35.333 -39 57s-14.5 45.167 -14.5 70.5c0 24.667 4.83301 48.167 14.5 70.5s22.667 41.666 39 57.999s35.5 29.333 57.5 39s45.333 14.5 70 14.5zM264 1612c31.333 0 55.833 8.83301 73.5 26.5s26.5 41.5 26.5 71.5
c0 31.333 -8.83301 55.666 -26.5 72.999s-42.167 26 -73.5 26c-30 0 -53.833 -8.66699 -71.5 -26s-26.5 -41.666 -26.5 -72.999c0 -30 8.83301 -53.833 26.5 -71.5s41.5 -26.5 71.5 -26.5z" />
    <glyph glyph-name="tilde" unicode="&#x2dc;" horiz-adv-x="712" 
d="M628 1441c-0.666992 -22 -5 -42.668 -13 -62.001s-18.833 -36.166 -32.5 -50.499s-29.834 -25.5 -48.501 -33.5s-38.334 -12 -59.001 -12c-26 0 -48.333 4.83301 -67 14.5s-36 20.5 -52 32.5s-32.5 22.833 -49.5 32.5s-37.167 14.5 -60.5 14.5
c-27.333 0 -51.666 -7.16699 -72.999 -21.5s-40 -32.166 -56 -53.499c-5.33301 -5.33301 -12.166 -7.16602 -20.499 -5.49902s-12.5 6.5 -12.5 14.5c0 22 3.83301 43 11.5 63s18.5 37.833 32.5 53.5s30.833 28 50.5 37s41.5 13.5 65.5 13.5c26 0 47.167 -4.83301 63.5 -14.5
s32 -20.167 47 -31.5s31.5 -21.833 49.5 -31.5s41.667 -14.5 71 -14.5c27.333 0 50.833 6.83301 70.5 20.5s36.834 28.167 51.501 43.5c2 3.33301 4.83301 5.66602 8.5 6.99902s7.16699 1.5 10.5 0.5s6.16602 -2.83301 8.49902 -5.5s3.5 -6.33398 3.5 -11.001z" />
    <glyph glyph-name="endash" unicode="&#x2013;" horiz-adv-x="1012" 
d="M924 527c-0.666992 -7.33301 -3.49902 -13.5 -8.49902 -18.5s-11.167 -7.83301 -18.5 -8.5h-781c-7.33301 0 -13.833 2.66699 -19.5 8s-8.5 11.666 -8.5 18.999v77c0 7.33301 2.83301 13.833 8.5 19.5s12.167 8.5 19.5 8.5h780c7.33301 0 13.666 -2.66699 18.999 -8
s8.33301 -11.666 9 -18.999v-78z" />
    <glyph glyph-name="emdash" unicode="&#x2014;" horiz-adv-x="1389" 
d="M1301 527c-0.666992 -7.33301 -3.49902 -13.5 -8.49902 -18.5s-11.167 -7.83301 -18.5 -8.5h-1158c-7.33301 0 -13.833 2.66699 -19.5 8s-8.5 11.666 -8.5 18.999v77c0 7.33301 2.83301 13.833 8.5 19.5s12.167 8.5 19.5 8.5h1157c7.33301 0 13.666 -2.66699 18.999 -8
s8.33301 -11.666 9 -18.999v-78z" />
    <glyph glyph-name="quoteleft" unicode="&#x2018;" horiz-adv-x="360" 
d="M200 1453c7.33301 6 14.498 8.66797 21.498 8.00098s12.667 -3.33398 17 -8.00098s6.83301 -10.667 7.5 -18s-2 -14.333 -8 -21c-13.333 -15.333 -22.666 -31.833 -27.999 -49.5s-6.83301 -35.167 -4.5 -52.5s8.16602 -33.5 17.499 -48.5s22.333 -27.167 39 -36.5
c12 -7.33301 18 -18 18 -32l-2 -135c0 -9.33301 -3.16699 -17.333 -9.5 -24s-14.166 -10 -23.499 -10h-129c-9.33301 0 -17 3.33301 -23 10s-9.33301 14.667 -10 24l-3 135c2 54.667 13.333 103.667 34 147s49.334 80.333 86.001 111z" />
    <glyph glyph-name="quoteright" unicode="&#x2019;" horiz-adv-x="360" 
d="M161 1031c-7.33301 -6 -14.666 -8.66895 -21.999 -8.00195s-13.166 3.33398 -17.499 8.00098s-6.83301 10.667 -7.5 18s2 14.333 8 21c13.333 14.667 22.666 31 27.999 49s7 35.833 5 53.5s-7.83301 33.834 -17.5 48.501s-22.834 26.667 -39.501 36
c-5.33301 4 -9.66602 8.5 -12.999 13.5s-5 11.167 -5 18.5l2 135c0 9.33301 3.16699 17.333 9.5 24s14.166 10 23.499 10h129c9.33301 0 17 -3.33301 23 -10s9.33301 -14.667 10 -24l3 -135c-2 -54.667 -13.333 -103.667 -34 -147s-49 -80.333 -85 -111z" />
    <glyph glyph-name="quotedblleft" unicode="&#x201c;" horiz-adv-x="823" 
d="M200 1453c7.33301 6 14.498 8.66797 21.498 8.00098s12.667 -3.33398 17 -8.00098s6.83301 -10.667 7.5 -18s-2 -14.333 -8 -21c-13.333 -15.333 -22.666 -31.833 -27.999 -49.5s-6.83301 -35.167 -4.5 -52.5s8.16602 -33.5 17.499 -48.5s22.333 -27.167 39 -36.5
c12 -7.33301 18 -18 18 -32l-2 -135c0 -9.33301 -3.16699 -17.333 -9.5 -24s-14.166 -10 -23.499 -10h-129c-9.33301 0 -17 3.33301 -23 10s-9.33301 14.667 -10 24l-3 135c2 54.667 13.333 103.667 34 147s49.334 80.333 86.001 111zM556.998 1453
c7.33301 6 14.498 8.66797 21.498 8.00098s12.667 -3.33398 17 -8.00098s6.83301 -10.667 7.5 -18s-2 -14.333 -8 -21c-13.333 -15.333 -22.666 -31.833 -27.999 -49.5s-6.83301 -35.167 -4.5 -52.5s8.16602 -33.5 17.499 -48.5s22.333 -27.167 39 -36.5
c12 -7.33301 18 -18 18 -32l-2 -135c0 -9.33301 -3.16699 -17.333 -9.5 -24s-14.166 -10 -23.499 -10h-129c-9.33301 0 -17 3.33301 -23 10s-9.33301 14.667 -10 24l-3 135c2 54.667 13.333 103.667 34 147s49.334 80.333 86.001 111z" />
    <glyph glyph-name="quotedblright" unicode="&#x201d;" horiz-adv-x="823" 
d="M161 1031c-7.33301 -6 -14.666 -8.66895 -21.999 -8.00195s-13.166 3.33398 -17.499 8.00098s-6.83301 10.667 -7.5 18s2 14.333 8 21c13.333 14.667 22.666 31 27.999 49s7 35.833 5 53.5s-7.83301 33.834 -17.5 48.501s-22.834 26.667 -39.501 36
c-5.33301 4 -9.66602 8.5 -12.999 13.5s-5 11.167 -5 18.5l2 135c0 9.33301 3.16699 17.333 9.5 24s14.166 10 23.499 10h129c9.33301 0 17 -3.33301 23 -10s9.33301 -14.667 10 -24l3 -135c-2 -54.667 -13.333 -103.667 -34 -147s-49 -80.333 -85 -111zM518 1031
c-7.33301 -6 -14.666 -8.66895 -21.999 -8.00195s-13.166 3.33398 -17.499 8.00098s-6.83301 10.667 -7.5 18s2 14.333 8 21c13.333 14.667 22.666 31 27.999 49s7 35.833 5 53.5s-7.83301 33.834 -17.5 48.501s-22.834 26.667 -39.501 36
c-5.33301 4 -9.66602 8.5 -12.999 13.5s-5 11.167 -5 18.5l2 135c0 9.33301 3.16699 17.333 9.5 24s14.166 10 23.499 10h129c9.33301 0 17 -3.33301 23 -10s9.33301 -14.667 10 -24l3 -135c-2 -54.667 -13.333 -103.667 -34 -147s-49 -80.333 -85 -111z" />
    <glyph glyph-name="bullet" unicode="&#x2022;" horiz-adv-x="854" 
d="M771 728c0 -47.333 -9 -91.833 -27 -133.5s-42.5 -78 -73.5 -109s-67.333 -55.5 -109 -73.5s-86.167 -27 -133.5 -27c-48 0 -93 9 -135 27s-78.5 42.5 -109.5 73.5s-55.5 67.333 -73.5 109s-27 86.167 -27 133.5c0 48 9 93 27 135s42.5 78.5 73.5 109.5
s67.5 55.5 109.5 73.5s87 27 135 27c47.333 0 91.833 -9 133.5 -27s78 -42.5 109 -73.5s55.5 -67.5 73.5 -109.5s27 -87 27 -135z" />
    <glyph glyph-name="ellipsis" unicode="&#x2026;" horiz-adv-x="1729" 
d="M1544 34c0 -9.33301 -2.99902 -17.333 -8.99902 -24s-14 -10 -24 -10h-131c-9.33301 -0 -17 3.33301 -23 10s-9 14.667 -9 24l2 135c0 9.33301 3.16699 17.333 9.5 24s14.166 10 23.499 10h125c9.33301 0 17 -3.33301 23 -10s9.33301 -14.667 10 -24zM894.001 34
c0 -9.33301 -2.99902 -17.333 -8.99902 -24s-14 -10 -24 -10h-131c-9.33301 -0 -17 3.33301 -23 10s-9 14.667 -9 24l2 135c0 9.33301 3.16699 17.333 9.5 24s14.166 10 23.499 10h125c9.33301 0 17 -3.33301 23 -10s9.33301 -14.667 10 -24zM307.002 34
c0 -9.33301 -2.99902 -17.333 -8.99902 -24s-14 -10 -24 -10h-131c-9.33301 -0 -17 3.33301 -23 10s-9 14.667 -9 24l2 135c0 9.33301 3.16699 17.333 9.5 24s14.166 10 23.499 10h125c9.33301 0 17 -3.33301 23 -10s9.33301 -14.667 10 -24z" />
    <glyph glyph-name="Euro" unicode="&#x20ac;" horiz-adv-x="1270" 
d="M223 676c-0.666992 16.667 -1.16504 34.001 -1.49805 52.001s-0.166016 35.333 0.500977 52c0 11.333 -6.66699 18 -20 20h-100c-8.66699 0 -15.5 2.66699 -20.5 8s-7.83301 12.666 -8.5 21.999v73c0 7.33301 2.66699 13.666 8 18.999s12.333 8.33301 21 9h130
c9.33301 0 15.666 5.66699 18.999 17c16.667 70 42.5 134.167 77.5 192.5s76.667 109.666 125 153.999s101.666 81.166 159.999 110.499s118.666 50 180.999 62s125.5 14.833 189.5 8.5s126 -22.833 186 -49.5c7.33301 -3.33301 13 -9.16602 17 -17.499s4 -16.5 0 -24.5
l-27 -63c-7.33301 -18 -21 -23.333 -41 -16c-82 28.667 -160.667 39.834 -236 33.501s-144.333 -26.333 -207 -60s-117.5 -78.334 -164.5 -134.001s-82.833 -118.167 -107.5 -187.5c-3.33301 -7.33301 -3.33301 -13.5 0 -18.5s10 -7.5 20 -7.5h271c8 0 14.667 -2.5 20 -7.5
s8.33301 -11.5 9 -19.5v-75c0 -8 -2.83301 -14.833 -8.5 -20.5s-13.167 -8.5 -22.5 -8.5h-293c-4.66699 -0.666992 -8.83398 -2.5 -12.501 -5.5s-5.5 -7.16699 -5.5 -12.5c-1.33301 -22 -1.66602 -42.833 -0.999023 -62.5s1.66699 -36.167 3 -49.5c1.33301 -12 8 -18 20 -18
h291c8.66699 0 15.667 -2.83301 21 -8.5s8 -13.167 8 -22.5v-72c0 -17.333 -9.33301 -26.666 -28 -27.999h-263c-9.33301 0 -15.333 -2.83301 -18 -8.5s-2.66699 -12.167 0 -19.5c28.667 -74.667 67.167 -139.5 115.5 -194.5s103.333 -97.5 165 -127.5s128.5 -46 200.5 -48
s146 12.667 222 44c8.66699 3.33301 16.5 3.5 23.5 0.5s12.5 -8.5 16.5 -16.5l30 -69c3.33301 -7.33301 3.83301 -14.666 1.5 -21.999s-7.16602 -13 -14.499 -17c-34 -20 -75 -35.667 -123 -47s-102.333 -17 -163 -17c-65.333 0 -130.833 12.167 -196.5 36.5
s-127.167 59.333 -184.5 105s-108.333 100.834 -153 165.501s-78.667 137.667 -102 219c-2.66699 10.667 -9.66699 16 -21 16h-130c-8.66699 0 -15.667 2.66699 -21 8s-8 12.666 -8 21.999v71c0 8 2.66699 15 8 21s12.666 9 21.999 9h101c5.33301 0 10 2 14 6
s5.66699 10 5 18z" />
    <glyph glyph-name="trademark" unicode="&#x2122;" horiz-adv-x="903" 
d="M383 1420c0 -6 -2.33301 -9 -7 -9h-112c-5.33301 0 -8 -2.66699 -8 -8l6 -335c0 -6.66699 -3 -10 -9 -10h-43c-6 0 -9 3.33301 -9 10l5 335c0 5.33301 -2.33301 8 -7 8h-110c-4.66699 0 -7 3 -7 9l1 31c0 4.66699 2.33301 7 7 7h286c4.66699 0 7 -2.33301 7 -7v-31z
M815 1068c0 -6.66699 -3.33203 -10 -9.99902 -10h-42c-6.66699 0 -10 3.33301 -10 10l5 307c0 3.33301 -1.33301 5.16602 -4 5.49902s-4.66699 -0.833984 -6 -3.50098l-107 -313c-2.66699 -4 -5.66699 -6 -9 -6h-44c-4 0 -7 2 -9 6l-108 313
c-1.33301 2.66699 -3.16602 3.83398 -5.49902 3.50098s-3.5 -2.16602 -3.5 -5.49902l4 -307c0 -6.66699 -2.66699 -10 -8 -10h-42c-6.66699 0 -10 3.33301 -10 10l7 380c0 6.66699 3.33301 10 10 10h51c4.66699 0 7.66699 -2.33301 9 -7l120 -301
c1.33301 -3.33301 3.66602 -5 6.99902 -5s5.66602 1.66699 6.99902 5l125 302c1.33301 4 4 6 8 6h49c6 0 9 -3 9 -9z" />
    </font>
</defs>
</svg>
